<svg width="32" height="32" viewBox="0 0 32 32" fill="none" xmlns="http://www.w3.org/2000/svg">
<path d="M26 4H6C4.875 4 4 4.9375 4 6V26C4 27.125 4.875 28 6 28H26C27.0625 28 28 27.125 28 26V6C28 4.9375 27.0625 4 26 4ZM6 2H26C28.1875 2 30 3.8125 30 6V26C30 28.25 28.1875 30 26 30H6C3.75 30 2 28.25 2 26V6C2 3.8125 3.75 2 6 2ZM7.1875 9.375C7.5625 8.9375 8.1875 8.9375 8.625 9.25L15.625 15.25C15.875 15.4375 16 15.75 16 16.0625C16 16.3125 15.875 16.625 15.625 16.8125L8.625 22.8125C8.1875 23.125 7.5625 23.125 7.1875 22.6875C6.875 22.25 6.875 21.625 7.3125 21.25L13.4375 16L7.3125 10.8125C6.875 10.4375 6.875 9.8125 7.1875 9.375ZM15 22H25C25.5 22 26 22.5 26 23C26 23.5625 25.5 24 25 24H15C14.4375 24 14 23.5625 14 23C14 22.5 14.4375 22 15 22Z" fill="#ABCF6F"/>
</svg>
