<svg width="32" height="32" viewBox="0 0 32 32" fill="none" xmlns="http://www.w3.org/2000/svg">
<path d="M7 0H8C8.5 0 9 0.5 9 1C9 1.5625 8.5 2 8 2V4.375C9.6875 1.75 12.625 0 16 0C21 0 25.125 3.9375 25.4375 8.9375L26 16.9375C26 17.6875 25.5 18.375 24.75 18.5L17.625 19.9375C16.625 20.125 15.375 20.125 14.3125 19.9375L7.1875 18.5C6.4375 18.375 5.9375 17.6875 6 16.9375V16.6875C6 16.625 6 16.5625 6 16.5V1C6 0.5 6.4375 0 7 0ZM8.3125 12.125L8 16.625L12.375 17.5C12.0625 15.6875 11 14.25 9.8125 13.1875C9.25 12.75 8.75 12.375 8.3125 12.125ZM14.4375 17.9375H14.75C14.8125 18 14.875 18 15 18V10L8.6875 10.0625C8.75 10.0625 8.8125 10.125 8.875 10.125C9.5 10.5 10.3125 11 11.125 11.6875C12.625 13.0625 14.25 15.0625 14.4375 17.9375ZM17 18C17.0625 18 17.125 18 17.1875 17.9375H17.5C17.6875 15.0625 19.3125 13 20.8125 11.6875C21.625 11 22.4375 10.5 23.0625 10.125C23.125 10.125 23.1875 10.0625 23.25 10H17V18ZM19.5625 17.5L23.9375 16.625L23.625 12.125C23.1875 12.375 22.6875 12.75 22.125 13.25C20.9375 14.25 19.875 15.6875 19.5625 17.5ZM23.3125 8C22.625 4.5625 19.5625 2 16 2C12.375 2 9.3125 4.5625 8.625 8H16H23.3125ZM10.375 24C7 24 4.1875 26.6875 4 30H10.5625L14.9375 25.6875C15.5 25.0625 16.4375 25.0625 17.0625 25.6875L21.375 30H27.9375C27.75 26.6875 25 24 21.5625 24H10.375ZM16 27.4375L13.375 30H18.5625L16 27.4375ZM3.5625 32C2.6875 32 2 31.3125 2 30.4375C2 25.8125 5.75 22 10.375 22H21.5625C26.1875 22 30 25.8125 30 30.4375C30 31.3125 29.25 32 28.375 32H21H11H3.5625Z" fill="#ABCF6F"/>
</svg>
