<svg width="33" height="33" viewBox="0 0 33 33" fill="none" xmlns="http://www.w3.org/2000/svg">
<path d="M28.375 3C27.625 2.1875 26.3125 2.1875 25.5625 3L23.9375 4.6875L27.5 8.25L29.125 6.5625C29.9375 5.8125 29.9375 4.5 29.125 3.75L28.375 3ZM13.625 15.125C13.3125 15.375 13.125 15.75 13.0625 16.125L12.25 19.9375L16.125 19.125C16.5 19.0625 16.8125 18.875 17.125 18.625L26.0625 9.625L22.5 6.125L13.625 15.125ZM24.125 1.625C25.6875 0 28.25 0 29.8125 1.5625L30.5625 2.3125C32.125 3.875 32.125 6.4375 30.5625 8L18.5 20C18 20.5625 17.25 20.9375 16.5 21.125L11.1875 22.25C10.875 22.3125 10.5 22.1875 10.25 21.9375C10 21.6875 9.9375 21.375 10 21.0625L11.125 15.6875C11.25 14.9375 11.625 14.25 12.1875 13.6875L24.125 1.625ZM18.8125 3.4375C17.875 3.25 16.9375 3.125 16 3.125C8.8125 3.125 3 9 3 16.125C3 23.3125 8.8125 29.125 16 29.125C16.5 29.125 17 29.625 17 30.125C17 30.6875 16.5 31.125 16 31.125C7.6875 31.125 1 24.4375 1 16.125C1 7.875 7.6875 1.125 16 1.125C17.5 1.125 19 1.375 20.4375 1.8125L18.8125 3.4375ZM30.3125 11.75C30.75 13.125 31 14.625 31 16.125C31 21.125 26.9375 25.125 22 25.125C21.1875 25.125 20.4375 25.0625 19.75 24.875C19.1875 24.75 18.875 24.1875 19 23.625C19.125 23.125 19.6875 22.8125 20.25 22.9375C20.75 23.0625 21.375 23.125 22 23.125C25.8125 23.125 29 20 29 16.125C29 15.1875 28.875 14.3125 28.6875 13.375L30.3125 11.75Z" fill="#ABCF6F"/>
</svg>
