<svg width="100" height="100" viewBox="0 0 100 100" fill="none" xmlns="http://www.w3.org/2000/svg">
<path d="M78.3921 2.85645C80.3684 2.03901 81.7373 1.64767 83.1304 2.07617C84.5165 2.50264 85.9068 3.73527 87.9526 6.08887C90.0029 8.44773 90.5038 10.1313 89.811 11.5176C89.4683 12.2032 88.8395 12.8011 87.9976 13.3643C87.155 13.9278 86.0905 14.4627 84.8657 15.0195C79.837 17.3053 75.575 19.1187 72.0396 20.875C68.5049 22.6309 65.7066 24.3243 63.6069 26.3633C58.9478 30.888 55.9975 36.6504 54.2524 44.207C52.5288 51.6748 51.9479 61.9539 51.4302 71.7393C50.9127 81.5326 50.9388 85.6608 50.8247 89.7314C50.7783 91.3887 50.6684 92.4564 49.9868 93.4043C49.3093 94.3462 48.0757 95.1588 45.8286 96.3457C44.611 96.9888 43.5883 97.4782 42.7427 97.7744C41.8999 98.0696 41.2157 98.1788 40.6841 98.041C40.1412 97.9001 39.7765 97.5076 39.562 96.8564C39.3493 96.2106 39.2797 95.2998 39.3257 94.0957C39.597 86.9827 40.3915 67.9345 41.3442 58.8135C42.2993 49.6742 43.029 41.5105 48.1177 33.0518C53.2989 24.4389 63.2114 19.5397 69.9526 16.4414C76.5456 13.4113 79.8649 11.8683 83.1118 10.4072C83.3851 10.2843 83.6275 10.1677 83.8198 10.04C84.0125 9.91214 84.1449 9.77875 84.2104 9.62793C84.2742 9.48088 84.2804 9.30218 84.1909 9.06738C84.1003 8.82962 83.9134 8.53861 83.5972 8.17773C82.9628 7.4542 82.4574 7.07052 81.769 7.00684C81.0698 6.9422 80.1623 7.20541 78.7183 7.84473C75.8314 9.12282 63.5841 14.4138 50.2329 20.2666C37.0078 26.0644 16.1683 35.1296 11.0776 37.3428C10.8041 37.4615 10.4881 37.4265 10.2466 37.25V37.251C10.0064 37.0766 9.87053 36.8056 9.89893 36.4844C9.96253 35.7648 10.0288 35.0218 10.0903 34.3154C10.1833 33.2536 10.8449 32.3278 11.8169 31.9043C17.0609 29.6159 34.8149 21.8696 48.52 15.8828L68.3345 7.22461C73.7899 4.84271 77.6197 3.1759 78.3921 2.85645Z" fill="#ABCF6F" stroke="#050807" stroke-width="0.2"/>
</svg>
