<svg width="26" height="27" viewBox="0 0 26 27" fill="none" xmlns="http://www.w3.org/2000/svg">
<path d="M7.7999 2.93335C5.64678 2.93335 3.8999 4.68022 3.8999 6.83335V19.8333C3.8999 21.9865 5.64678 23.7333 7.7999 23.7333H19.4999H20.7999C21.519 23.7333 22.0999 23.1524 22.0999 22.4333C22.0999 21.7143 21.519 21.1333 20.7999 21.1333V18.5333C21.519 18.5333 22.0999 17.9524 22.0999 17.2333V4.23335C22.0999 3.51429 21.519 2.93335 20.7999 2.93335H19.4999H7.7999ZM7.7999 18.5333H18.1999V21.1333H7.7999C7.08084 21.1333 6.4999 20.5524 6.4999 19.8333C6.4999 19.1143 7.08084 18.5333 7.7999 18.5333ZM9.0999 8.78335C9.0999 8.42585 9.3924 8.13335 9.7499 8.13335H17.5499C17.9074 8.13335 18.1999 8.42585 18.1999 8.78335C18.1999 9.14085 17.9074 9.43335 17.5499 9.43335H9.7499C9.3924 9.43335 9.0999 9.14085 9.0999 8.78335ZM9.7499 10.7333H17.5499C17.9074 10.7333 18.1999 11.0258 18.1999 11.3833C18.1999 11.7408 17.9074 12.0333 17.5499 12.0333H9.7499C9.3924 12.0333 9.0999 11.7408 9.0999 11.3833C9.0999 11.0258 9.3924 10.7333 9.7499 10.7333Z" fill="#B0D16A"/>
</svg>
