<svg width="26" height="26" viewBox="0 0 26 26" fill="none" xmlns="http://www.w3.org/2000/svg">
<path d="M8.65729 5.2324L8.23478 6.4999H5.2001C3.76604 6.4999 2.6001 7.66584 2.6001 9.0999V19.4999C2.6001 20.934 3.76604 22.0999 5.2001 22.0999H20.8001C22.2342 22.0999 23.4001 20.934 23.4001 19.4999V9.0999C23.4001 7.66584 22.2342 6.4999 20.8001 6.4999H17.7654L17.3429 5.2324C17.0788 4.43615 16.3354 3.8999 15.4945 3.8999H10.5057C9.66479 3.8999 8.92135 4.43615 8.65729 5.2324ZM13.0001 10.3999C14.0344 10.3999 15.0264 10.8108 15.7578 11.5422C16.4892 12.2736 16.9001 13.2656 16.9001 14.2999C16.9001 15.3342 16.4892 16.3262 15.7578 17.0576C15.0264 17.789 14.0344 18.1999 13.0001 18.1999C11.9658 18.1999 10.9738 17.789 10.2424 17.0576C9.51099 16.3262 9.1001 15.3342 9.1001 14.2999C9.1001 13.2656 9.51099 12.2736 10.2424 11.5422C10.9738 10.8108 11.9658 10.3999 13.0001 10.3999Z" fill="#B0D16A"/>
</svg>
