<svg width="652" height="650" viewBox="0 0 652 650" fill="none" xmlns="http://www.w3.org/2000/svg">
<path d="M227.459 623.535L226.519 623.194L226.178 624.134L227.118 624.475L227.459 623.535ZM238.985 628.176L239.89 627.753L239.89 627.753L238.985 628.176ZM236.327 635.51L235.903 634.604L235.903 634.604L236.327 635.51ZM203.533 623.624L204.438 623.2L204.438 623.2L203.533 623.624ZM218.014 620.111L217.673 621.052L218.613 621.392L218.954 620.452L218.014 620.111ZM237.58 591.032C237.791 591.108 237.873 591.204 237.922 591.309L239.733 590.461C239.433 589.82 238.91 589.387 238.261 589.151L237.58 591.032ZM237.922 591.309C237.971 591.414 237.992 591.538 237.915 591.749L239.796 592.43C240.031 591.781 240.033 591.102 239.733 590.461L237.922 591.309ZM237.915 591.749L226.519 623.194L228.399 623.875L239.796 592.43L237.915 591.749ZM227.118 624.475L237.795 628.344L238.477 626.464L227.8 622.594L227.118 624.475ZM237.795 628.344C237.94 628.397 238.018 628.47 238.079 628.6L239.89 627.753C239.602 627.137 239.114 626.695 238.477 626.464L237.795 628.344ZM238.079 628.6C238.14 628.73 238.146 628.837 238.094 628.982L239.974 629.663C240.205 629.026 240.179 628.369 239.89 627.753L238.079 628.6ZM238.094 628.982L236.18 634.262L238.06 634.943L239.974 629.663L238.094 628.982ZM236.18 634.262C236.104 634.473 236.008 634.555 235.903 634.604L236.751 636.415C237.392 636.115 237.825 635.592 238.06 634.943L236.18 634.262ZM235.903 634.604C235.773 634.665 235.666 634.671 235.521 634.619L234.84 636.499C235.478 636.73 236.135 636.704 236.751 636.415L235.903 634.604ZM235.521 634.619L204.781 623.477L204.099 625.358L234.84 636.499L235.521 634.619ZM204.781 623.477C204.569 623.401 204.488 623.305 204.438 623.2L202.627 624.048C202.927 624.689 203.45 625.122 204.099 625.358L204.781 623.477ZM204.438 623.2C204.389 623.095 204.368 622.971 204.445 622.76L202.565 622.079C202.329 622.728 202.327 623.407 202.627 624.048L204.438 623.2ZM204.445 622.76L206.358 617.48L204.478 616.799L202.565 622.079L204.445 622.76ZM206.358 617.48C206.411 617.336 206.484 617.258 206.614 617.197L205.767 615.385C205.151 615.673 204.709 616.161 204.478 616.799L206.358 617.48ZM206.614 617.197C206.719 617.148 206.843 617.127 207.054 617.203L207.736 615.323C207.087 615.088 206.408 615.085 205.767 615.385L206.614 617.197ZM207.054 617.203L217.673 621.052L218.354 619.171L207.736 615.323L207.054 617.203ZM218.954 620.452L230.35 589.007L228.47 588.326L217.074 619.771L218.954 620.452ZM230.35 589.007C230.427 588.796 230.522 588.714 230.627 588.665L229.78 586.854C229.139 587.154 228.705 587.677 228.47 588.326L230.35 589.007ZM230.627 588.665C230.732 588.616 230.856 588.595 231.068 588.672L231.749 586.791C231.1 586.556 230.421 586.554 229.78 586.854L230.627 588.665ZM231.068 588.672L237.58 591.032L238.261 589.151L231.749 586.791L231.068 588.672Z" fill="#19A467"/>
<path d="M210.226 580.199L211.207 580.003L211.199 579.966L211.189 579.929L210.226 580.199ZM209.765 581.658L210.413 582.42L210.455 582.384L210.493 582.344L209.765 581.658ZM177.176 609.377L176.528 608.616L176.494 608.644L176.463 608.676L177.176 609.377ZM166.184 603.208L167.154 603.45L167.165 603.408L167.172 603.364L166.184 603.208ZM172.872 560.95L171.908 560.687L171.893 560.74L171.885 560.794L172.872 560.95ZM173.878 559.797L173.607 558.834L173.57 558.845L173.534 558.858L173.878 559.797ZM181.519 564.158L182.482 563.887L182.482 563.887L181.519 564.158ZM181.612 565.14L180.63 564.952L180.626 564.974L180.623 564.996L181.612 565.14ZM180.531 572.548L179.542 572.403L179.442 573.083L180.042 573.42L180.531 572.548ZM195.876 581.161L195.386 582.033L195.986 582.369L196.515 581.93L195.876 581.161ZM201.636 576.38L202.275 577.149L202.292 577.135L202.309 577.12L201.636 576.38ZM189.923 587.05L190.577 587.807L191.654 586.875L190.412 586.178L189.923 587.05ZM178.659 580.728L179.148 579.856L177.91 579.161L177.673 580.561L178.659 580.728ZM175.467 599.545L174.481 599.378L174.016 602.121L176.121 600.302L175.467 599.545ZM209.104 580.287C209.215 580.349 209.244 580.402 209.264 580.47L211.189 579.929C211.017 579.317 210.625 578.847 210.083 578.543L209.104 580.287ZM209.246 580.395C209.282 580.575 209.251 580.659 209.223 580.709L210.967 581.688C211.264 581.159 211.321 580.576 211.207 580.003L209.246 580.395ZM209.223 580.709C209.153 580.834 209.089 580.917 209.038 580.972L210.493 582.344C210.677 582.149 210.833 581.926 210.967 581.688L209.223 580.709ZM209.117 580.896L176.528 608.616L177.824 610.139L210.413 582.42L209.117 580.896ZM176.463 608.676C176.274 608.867 176.04 609 175.729 609.068L176.156 611.022C176.824 610.876 177.412 610.563 177.888 610.079L176.463 608.676ZM175.729 609.068C175.548 609.107 175.266 609.09 174.827 608.844L173.848 610.588C174.571 610.994 175.358 611.196 176.156 611.022L175.729 609.068ZM174.827 608.844L167.862 604.935L166.883 606.679L173.848 610.588L174.827 608.844ZM167.862 604.935C167.424 604.689 167.262 604.456 167.202 604.281L165.312 604.935C165.578 605.707 166.161 606.273 166.883 606.679L167.862 604.935ZM167.202 604.281C167.098 603.981 167.089 603.712 167.154 603.45L165.214 602.965C165.049 603.624 165.088 604.289 165.312 604.935L167.202 604.281ZM167.172 603.364L173.86 561.106L171.885 560.794L165.196 603.051L167.172 603.364ZM173.837 561.214C173.857 561.142 173.895 561.044 173.965 560.919L172.221 559.94C172.087 560.179 171.978 560.428 171.908 560.687L173.837 561.214ZM173.965 560.919C173.993 560.869 174.049 560.799 174.221 560.736L173.534 558.858C172.986 559.058 172.518 559.411 172.221 559.94L173.965 560.919ZM174.148 560.76C174.216 560.741 174.277 560.738 174.388 560.801L175.366 559.057C174.824 558.752 174.219 558.662 173.607 558.834L174.148 560.76ZM174.388 560.801L180.047 563.977L181.026 562.233L175.366 559.057L174.388 560.801ZM180.047 563.977C180.477 564.218 180.547 564.393 180.557 564.428L182.482 563.887C182.269 563.13 181.684 562.602 181.026 562.233L180.047 563.977ZM180.557 564.428C180.647 564.751 180.638 564.908 180.63 564.952L182.594 565.329C182.685 564.856 182.614 564.357 182.482 563.887L180.557 564.428ZM180.623 564.996L179.542 572.403L181.521 572.692L182.602 565.285L180.623 564.996ZM180.042 573.42L195.386 582.033L196.365 580.289L181.021 571.676L180.042 573.42ZM196.515 581.93L202.275 577.149L200.998 575.61L195.237 580.391L196.515 581.93ZM202.309 577.12C202.342 577.09 202.471 577.001 202.794 576.91L202.253 574.985C201.783 575.117 201.32 575.316 200.964 575.64L202.309 577.12ZM202.794 576.91C202.829 576.9 203.015 576.869 203.445 577.11L204.424 575.366C203.766 574.997 203.01 574.772 202.253 574.985L202.794 576.91ZM203.445 577.11L209.104 580.287L210.083 578.543L204.424 575.366L203.445 577.11ZM190.412 586.178L179.148 579.856L178.169 581.6L189.433 587.922L190.412 586.178ZM177.673 580.561L174.481 599.378L176.453 599.712L179.645 580.895L177.673 580.561ZM176.121 600.302L190.577 587.807L189.269 586.294L174.813 598.789L176.121 600.302Z" fill="#19A467"/>
<path d="M163.784 553.416L164.78 553.322L164.78 553.322L163.784 553.416ZM136.508 586.406L136.413 585.411L136.413 585.411L136.508 586.406ZM130.208 581.198L131.203 581.103L131.203 581.103L130.208 581.198ZM130.212 580.311L131.187 580.536L131.199 580.484L131.205 580.432L130.212 580.311ZM133.953 549.64L134.945 549.761L135.359 546.37L133.182 549.003L133.953 549.64ZM116.598 569.945L116.504 568.949L116.504 568.949L116.598 569.945ZM110.01 564.498L111.005 564.403L111.005 564.403L110.01 564.498ZM137.286 531.507L137.192 530.512L137.159 530.515L137.126 530.52L137.286 531.507ZM143.634 536.756L144.633 536.803L144.637 536.732L144.63 536.661L143.634 536.756ZM143.63 537.643L144.624 537.751L144.635 537.65L144.625 537.548L143.63 537.643ZM140.358 567.648L139.364 567.54L139.002 570.857L141.129 568.285L140.358 567.648ZM162.56 553.134C162.733 553.277 162.778 553.395 162.789 553.51L164.78 553.322C164.713 552.617 164.367 552.033 163.834 551.593L162.56 553.134ZM162.789 553.51C162.8 553.626 162.778 553.749 162.635 553.923L164.176 555.197C164.616 554.665 164.847 554.026 164.78 553.322L162.789 553.51ZM162.635 553.923L136.789 585.182L138.331 586.456L164.176 555.197L162.635 553.923ZM136.789 585.182C136.646 585.355 136.529 585.4 136.413 585.411L136.602 587.402C137.307 587.335 137.891 586.988 138.331 586.456L136.789 585.182ZM136.413 585.411C136.298 585.422 136.174 585.4 136.001 585.257L134.727 586.798C135.259 587.238 135.898 587.469 136.602 587.402L136.413 585.411ZM136.001 585.257L131.625 581.638L130.35 583.18L134.727 586.798L136.001 585.257ZM131.625 581.638C131.245 581.324 131.207 581.14 131.203 581.103L129.212 581.292C129.287 582.075 129.769 582.699 130.35 583.18L131.625 581.638ZM131.203 581.103C131.186 580.919 131.179 580.778 131.18 580.673C131.18 580.562 131.189 580.525 131.187 580.536L129.238 580.085C129.157 580.437 129.173 580.873 129.212 581.292L131.203 581.103ZM131.205 580.432L134.945 549.761L132.96 549.519L129.22 580.19L131.205 580.432ZM133.182 549.003L116.88 568.72L118.421 569.995L134.724 550.277L133.182 549.003ZM116.88 568.72C116.737 568.894 116.619 568.938 116.504 568.949L116.692 570.94C117.397 570.874 117.981 570.527 118.421 569.995L116.88 568.72ZM116.504 568.949C116.361 568.963 116.258 568.933 116.139 568.835L114.865 570.376C115.388 570.808 116.015 571.005 116.692 570.94L116.504 568.949ZM116.139 568.835L111.234 564.779L109.96 566.321L114.865 570.376L116.139 568.835ZM111.234 564.779C111.061 564.636 111.016 564.519 111.005 564.403L109.014 564.592C109.081 565.296 109.428 565.881 109.96 566.321L111.234 564.779ZM111.005 564.403C110.994 564.288 111.016 564.164 111.159 563.991L109.618 562.716C109.178 563.249 108.947 563.887 109.014 564.592L111.005 564.403ZM111.159 563.991L137.005 532.732L135.463 531.457L109.618 562.716L111.159 563.991ZM137.005 532.732C137.105 532.61 137.233 532.529 137.447 532.494L137.126 530.52C136.467 530.627 135.893 530.937 135.463 531.457L137.005 532.732ZM137.381 532.503C137.496 532.492 137.62 532.514 137.793 532.657L139.067 531.115C138.535 530.675 137.896 530.445 137.192 530.512L137.381 532.503ZM137.793 532.657L142.217 536.315L143.492 534.774L139.067 531.115L137.793 532.657ZM142.217 536.315C142.598 536.629 142.635 536.813 142.639 536.85L144.63 536.661C144.556 535.878 144.074 535.254 143.492 534.774L142.217 536.315ZM142.635 536.708C142.616 537.125 142.61 537.484 142.634 537.737L144.625 537.548C144.616 537.45 144.614 537.217 144.633 536.803L142.635 536.708ZM142.636 537.534L139.364 567.54L141.352 567.756L144.624 537.751L142.636 537.534ZM141.129 568.285L156.914 549.193L155.373 547.919L139.587 567.011L141.129 568.285ZM156.914 549.193C157.058 549.02 157.175 548.975 157.29 548.964L157.102 546.973C156.397 547.04 155.813 547.386 155.373 547.919L156.914 549.193ZM157.29 548.964C157.406 548.953 157.53 548.975 157.703 549.118L158.977 547.577C158.445 547.137 157.806 546.906 157.102 546.973L157.29 548.964ZM157.703 549.118L162.56 553.134L163.834 551.593L158.977 547.577L157.703 549.118Z" fill="#19A467"/>
<path d="M124.995 519.275L125.991 519.366L125.991 519.366L124.995 519.275ZM92.1037 546.672L92.1945 545.676L92.1945 545.676L92.1037 546.672ZM86.872 540.391L87.8679 540.482L87.8679 540.482L86.872 540.391ZM87.04 539.52L87.9561 539.921L87.9773 539.873L87.9933 539.822L87.04 539.52ZM96.3704 510.065L97.3237 510.367L98.3554 507.11L95.7304 509.297L96.3704 510.065ZM75.5699 526.822L75.6607 525.826L75.6607 525.826L75.5699 526.822ZM70.0986 520.254L71.0945 520.344L71.0945 520.344L70.0986 520.254ZM102.99 492.857L103.08 491.861L103.047 491.858L103.014 491.857L102.99 492.857ZM108.261 499.186L109.234 499.417L109.251 499.347L109.257 499.277L108.261 499.186ZM108.093 500.057L109.05 500.347L109.08 500.249L109.089 500.147L108.093 500.057ZM99.3462 528.945L98.3891 528.655L97.422 531.849L99.9862 529.713L99.3462 528.945ZM123.843 518.773C123.987 518.945 124.009 519.069 123.999 519.185L125.991 519.366C126.055 518.661 125.822 518.023 125.38 517.493L123.843 518.773ZM123.999 519.185C123.988 519.3 123.944 519.418 123.771 519.561L125.051 521.098C125.582 520.656 125.926 520.071 125.991 519.366L123.999 519.185ZM123.771 519.561L92.6063 545.52L93.8863 547.057L125.051 521.098L123.771 519.561ZM92.6063 545.52C92.4337 545.664 92.31 545.687 92.1945 545.676L92.013 547.668C92.7177 547.732 93.3558 547.499 93.8863 547.057L92.6063 545.52ZM92.1945 545.676C92.079 545.665 91.9614 545.621 91.8176 545.448L90.2809 546.728C90.7228 547.259 91.3082 547.604 92.013 547.668L92.1945 545.676ZM91.8176 545.448L88.1834 541.085L86.6467 542.365L90.2809 546.728L91.8176 545.448ZM88.1834 541.085C87.8677 540.706 87.8645 540.519 87.8679 540.482L85.8762 540.3C85.8048 541.083 86.1636 541.785 86.6467 542.365L88.1834 541.085ZM87.8679 540.482C87.8847 540.298 87.9042 540.158 87.924 540.055C87.9451 539.945 87.9606 539.911 87.9561 539.921L86.1239 539.119C85.9793 539.449 85.9144 539.881 85.8762 540.3L87.8679 540.482ZM87.9933 539.822L97.3237 510.367L95.4171 509.763L86.0867 539.218L87.9933 539.822ZM95.7304 509.297L76.0725 525.671L77.3525 527.207L97.0104 510.833L95.7304 509.297ZM76.0725 525.671C75.8999 525.814 75.7762 525.837 75.6607 525.826L75.4792 527.818C76.1839 527.882 76.822 527.649 77.3525 527.207L76.0725 525.671ZM75.6607 525.826C75.5177 525.813 75.4222 525.765 75.3238 525.647L73.787 526.927C74.2211 527.448 74.8019 527.756 75.4792 527.818L75.6607 525.826ZM75.3238 525.647L71.2502 520.756L69.7135 522.036L73.787 526.927L75.3238 525.647ZM71.2502 520.756C71.1064 520.584 71.084 520.46 71.0945 520.344L69.1027 520.163C69.0385 520.868 69.2716 521.506 69.7135 522.036L71.2502 520.756ZM71.0945 520.344C71.105 520.229 71.1495 520.111 71.3221 519.967L70.0421 518.431C69.5115 518.873 69.167 519.458 69.1027 520.163L71.0945 520.344ZM71.3221 519.967L102.487 494.009L101.207 492.472L70.0421 518.431L71.3221 519.967ZM102.487 494.009C102.608 493.908 102.749 493.851 102.965 493.857L103.014 491.857C102.346 491.841 101.725 492.04 101.207 492.472L102.487 494.009ZM102.899 493.853C103.014 493.863 103.132 493.908 103.276 494.081L104.812 492.8C104.37 492.27 103.785 491.925 103.08 491.861L102.899 493.853ZM103.276 494.081L106.95 498.492L108.487 497.212L104.812 492.8L103.276 494.081ZM106.95 498.492C107.266 498.871 107.269 499.058 107.265 499.095L109.257 499.277C109.328 498.493 108.97 497.791 108.487 497.212L106.95 498.492ZM107.288 498.955C107.192 499.361 107.12 499.713 107.097 499.966L109.089 500.147C109.098 500.049 109.139 499.82 109.234 499.417L107.288 498.955ZM107.136 499.767L98.3891 528.655L100.303 529.235L109.05 500.347L107.136 499.767ZM99.9862 529.713L119.021 513.858L117.741 512.322L98.7062 528.176L99.9862 529.713ZM119.021 513.858C119.193 513.714 119.317 513.692 119.433 513.703L119.614 511.711C118.909 511.647 118.271 511.88 117.741 512.322L119.021 513.858ZM119.433 513.703C119.548 513.713 119.666 513.758 119.81 513.93L121.346 512.65C120.904 512.12 120.319 511.775 119.614 511.711L119.433 513.703ZM119.81 513.93L123.843 518.773L125.38 517.493L121.346 512.65L119.81 513.93Z" fill="#19A467"/>
<path d="M93.3592 479.891L94.3249 480.151L94.3249 480.151L93.3592 479.891ZM56.2651 501.255L56.5249 500.29L56.5249 500.29L56.2651 501.255ZM47.2548 471.232L47.5146 470.266L47.5146 470.266L47.2548 471.232ZM58.284 489.507L57.4175 490.006L57.9165 490.873L58.7831 490.374L58.284 489.507ZM66.7735 484.618L67.2726 485.484L68.1391 484.985L67.6401 484.119L66.7735 484.618ZM57.1864 467.096L56.2207 466.837L56.2207 466.837L57.1864 467.096ZM63.0804 463.702L63.3402 462.736L63.3402 462.736L63.0804 463.702ZM73.4245 480.787L72.5579 481.286L73.057 482.153L73.9236 481.654L73.4245 480.787ZM82.1843 475.742L82.6834 476.609L83.55 476.11L83.0509 475.243L82.1843 475.742ZM71.663 456.599L72.6286 456.858L72.6286 456.858L71.663 456.599ZM77.8814 453.017L77.6215 453.983L77.6215 453.983L77.8814 453.017ZM92.3106 479.199C92.4227 479.394 92.4237 479.52 92.3936 479.632L94.3249 480.151C94.5087 479.468 94.3883 478.799 94.0437 478.201L92.3106 479.199ZM92.3936 479.632C92.3634 479.744 92.2995 479.852 92.1048 479.964L93.103 481.697C93.7013 481.352 94.141 480.835 94.3249 480.151L92.3936 479.632ZM92.1048 479.964L56.9573 500.207L57.9554 501.94L93.103 481.697L92.1048 479.964ZM56.9573 500.207C56.7626 500.319 56.6369 500.32 56.5249 500.29L56.0052 502.221C56.6886 502.405 57.3571 502.284 57.9554 501.94L56.9573 500.207ZM56.5249 500.29C56.4129 500.259 56.3047 500.196 56.1925 500.001L54.4594 500.999C54.804 501.597 55.3218 502.037 56.0052 502.221L56.5249 500.29ZM56.1925 500.001L42.085 475.506L40.3518 476.504L54.4594 500.999L56.1925 500.001ZM42.085 475.506C41.9728 475.311 41.9719 475.185 42.002 475.073L40.0707 474.554C39.8868 475.237 40.0072 475.906 40.3518 476.504L42.085 475.506ZM42.002 475.073C42.0321 474.961 42.096 474.853 42.2907 474.741L41.2926 473.008C40.6942 473.352 40.2546 473.87 40.0707 474.554L42.002 475.073ZM42.2907 474.741L46.6166 472.25L45.6184 470.516L41.2926 473.008L42.2907 474.741ZM46.6166 472.25C46.7499 472.173 46.8563 472.16 46.9949 472.198L47.5146 470.266C46.8579 470.09 46.2061 470.178 45.6184 470.516L46.6166 472.25ZM46.9949 472.198C47.1069 472.228 47.2151 472.292 47.3273 472.487L49.0604 471.488C48.7158 470.89 48.198 470.45 47.5146 470.266L46.9949 472.198ZM47.3273 472.487L57.4175 490.006L59.1506 489.008L49.0604 471.488L47.3273 472.487ZM58.7831 490.374L67.2726 485.484L66.2744 483.751L57.7849 488.641L58.7831 490.374ZM67.6401 484.119L58.235 467.789L56.5019 468.787L65.9069 485.117L67.6401 484.119ZM58.235 467.789C58.1229 467.594 58.1219 467.468 58.152 467.356L56.2207 466.837C56.0369 467.52 56.1573 468.188 56.5019 468.787L58.235 467.789ZM58.152 467.356C58.1822 467.244 58.2461 467.136 58.4408 467.024L57.4426 465.291C56.8443 465.635 56.4046 466.153 56.2207 466.837L58.152 467.356ZM58.4408 467.024L62.4422 464.719L61.444 462.986L57.4426 465.291L58.4408 467.024ZM62.4422 464.719C62.5755 464.643 62.6819 464.63 62.8205 464.667L63.3402 462.736C62.6835 462.559 62.0317 462.648 61.444 462.986L62.4422 464.719ZM62.8205 464.667C62.9325 464.698 63.0408 464.762 63.1529 464.956L64.886 463.958C64.5414 463.36 64.0236 462.92 63.3402 462.736L62.8205 464.667ZM63.1529 464.956L72.5579 481.286L74.291 480.288L64.886 463.958L63.1529 464.956ZM73.9236 481.654L82.6834 476.609L81.6853 474.876L72.9254 479.921L73.9236 481.654ZM83.0509 475.243L72.7116 457.291L70.9785 458.289L81.3178 476.241L83.0509 475.243ZM72.7116 457.291C72.5994 457.096 72.5985 456.97 72.6286 456.858L70.6973 456.339C70.5134 457.022 70.6338 457.691 70.9785 458.289L72.7116 457.291ZM72.6286 456.858C72.6587 456.746 72.7227 456.638 72.9174 456.526L71.9192 454.793C71.3208 455.138 70.8812 455.655 70.6973 456.339L72.6286 456.858ZM72.9174 456.526L77.1891 454.066L76.191 452.333L71.9192 454.793L72.9174 456.526ZM77.1891 454.066C77.3838 453.954 77.5095 453.953 77.6215 453.983L78.1412 452.051C77.4578 451.868 76.7893 451.988 76.191 452.333L77.1891 454.066ZM77.6215 453.983C77.7335 454.013 77.8418 454.077 77.9539 454.272L79.687 453.273C79.3424 452.675 78.8246 452.235 78.1412 452.051L77.6215 453.983ZM77.9539 454.272L92.3106 479.199L94.0437 478.201L79.687 453.273L77.9539 454.272Z" fill="#19A467"/>
<path d="M70.3044 439.437L71.2117 439.858L71.2117 439.858L70.3044 439.437ZM30.1147 454.174L30.5351 453.267L30.5351 453.267L30.1147 454.174ZM22.7911 424.958L23.7382 425.278L23.7409 425.27L22.7911 424.958ZM38.8103 416.625L39.0758 415.66L39.0758 415.66L38.8103 416.625ZM45.1064 420.563L44.3664 421.236L45.1306 422.077L45.8674 421.212L45.1064 420.563ZM56.7238 406.932L55.996 406.246L55.9789 406.265L55.9627 406.284L56.7238 406.932ZM58.3114 406.549L58.7319 405.642L58.697 405.626L58.6611 405.613L58.3114 406.549ZM61.4225 415.577L62.3064 416.045L62.3187 416.022L62.3298 415.998L61.4225 415.577ZM60.6472 416.726L59.9194 416.04L59.9105 416.049L59.9019 416.059L60.6472 416.726ZM49.8519 428.793L49.1066 428.126L48.7064 428.573L48.9131 429.137L49.8519 428.793ZM52.4513 435.882L51.5124 436.226L51.8567 437.165L52.7955 436.82L52.4513 435.882ZM45.0109 438.61L45.3552 439.549L46.294 439.204L45.9498 438.266L45.0109 438.61ZM39.0565 426.902L38.6015 427.793L38.6099 427.797L38.6183 427.801L39.0565 426.902ZM33.7625 442.734L32.8236 443.079L33.1679 444.018L34.1067 443.673L33.7625 442.734ZM69.3889 438.577C69.4663 438.788 69.4458 438.912 69.3971 439.017L71.2117 439.858C71.5093 439.216 71.5044 438.537 71.2667 437.888L69.3889 438.577ZM69.3971 439.017C69.3483 439.122 69.2669 439.218 69.056 439.295L69.7445 441.173C70.3928 440.935 70.9142 440.5 71.2117 439.858L69.3971 439.017ZM69.056 439.295L30.9753 453.259L31.6639 455.137L69.7445 441.173L69.056 439.295ZM30.9753 453.259C30.7644 453.336 30.6403 453.316 30.5351 453.267L29.6942 455.082C30.3363 455.379 31.0156 455.374 31.6639 455.137L30.9753 453.259ZM30.5351 453.267C30.4299 453.218 30.3341 453.137 30.2568 452.926L28.379 453.614C28.6167 454.263 29.0521 454.784 29.6942 455.082L30.5351 453.267ZM30.2568 452.926L24.564 437.401L22.6862 438.089L28.379 453.614L30.2568 452.926ZM24.564 437.401C22.8248 432.658 22.5994 428.64 23.7382 425.278L21.8439 424.637C20.5144 428.561 20.845 433.068 22.6862 438.089L24.564 437.401ZM23.7409 425.27C24.823 421.985 27.2674 419.596 31.2552 418.134L30.5667 416.256C26.1182 417.887 23.1493 420.673 21.8412 424.645L23.7409 425.27ZM31.2552 418.134C33.9531 417.144 36.3701 416.99 38.5447 417.589L39.0758 415.66C36.4204 414.929 33.5712 415.154 30.5667 416.256L31.2552 418.134ZM38.5447 417.589C40.7665 418.201 42.7037 419.407 44.3664 421.236L45.8463 419.891C43.9443 417.798 41.6842 416.379 39.0758 415.66L38.5447 417.589ZM45.8674 421.212L57.4849 407.581L55.9627 406.284L44.3453 419.915L45.8674 421.212ZM57.4516 407.618C57.5712 407.491 57.6395 407.462 57.648 407.459L56.9595 405.581C56.5774 405.721 56.2591 405.967 55.996 406.246L57.4516 407.618ZM57.648 407.459C57.7026 407.439 57.79 407.422 57.9618 407.486L58.6611 405.613C58.1142 405.408 57.5298 405.372 56.9595 405.581L57.648 407.459ZM57.891 407.457C57.9549 407.486 58.0026 407.524 58.0463 407.644L59.9241 406.955C59.71 406.371 59.3085 405.909 58.7319 405.642L57.891 407.457ZM58.0463 407.644L60.4308 414.147L62.3086 413.458L59.9241 406.955L58.0463 407.644ZM60.4308 414.147C60.6356 414.705 60.5869 415.002 60.5152 415.157L62.3298 415.998C62.7032 415.192 62.6194 414.306 62.3086 413.458L60.4308 414.147ZM60.5385 415.11C60.3 415.561 60.0903 415.859 59.9194 416.04L61.375 417.412C61.7144 417.051 62.0216 416.584 62.3064 416.045L60.5385 415.11ZM59.9019 416.059L49.1066 428.126L50.5972 429.459L61.3925 417.393L59.9019 416.059ZM48.9131 429.137L51.5124 436.226L53.3902 435.537L50.7908 428.448L48.9131 429.137ZM52.7955 436.82L66.3288 431.858L65.6403 429.98L52.107 434.943L52.7955 436.82ZM66.3288 431.858C66.5398 431.781 66.6638 431.801 66.769 431.85L67.6099 430.035C66.9678 429.738 66.2886 429.743 65.6403 429.98L66.3288 431.858ZM66.769 431.85C66.8742 431.899 66.97 431.98 67.0474 432.191L68.9251 431.502C68.6874 430.854 68.252 430.333 67.6099 430.035L66.769 431.85ZM67.0474 432.191L69.3889 438.577L71.2667 437.888L68.9251 431.502L67.0474 432.191ZM45.9498 438.266L43.2001 430.767L41.3223 431.455L44.072 438.954L45.9498 438.266ZM43.2001 430.767C42.369 428.5 41.1723 426.821 39.4946 426.004L38.6183 427.801C39.6382 428.298 40.578 429.425 41.3223 431.455L43.2001 430.767ZM39.5115 426.012C37.8464 425.161 35.9875 425.168 34.0312 425.886L34.7197 427.763C36.2786 427.192 37.5403 427.251 38.6015 427.793L39.5115 426.012ZM34.0312 425.886C32.0839 426.6 30.6457 427.772 29.8671 429.452L31.6817 430.293C32.1894 429.198 33.1519 428.338 34.7197 427.763L34.0312 425.886ZM29.8671 429.452C29.0659 431.181 29.2275 433.271 30.0739 435.58L31.9516 434.891C31.194 432.825 31.1967 431.34 31.6817 430.293L29.8671 429.452ZM30.0739 435.58L32.8236 443.079L34.7013 442.39L31.9516 434.891L30.0739 435.58ZM34.1067 443.673L45.3552 439.549L44.6666 437.671L33.4182 441.795L34.1067 443.673Z" fill="#19A467"/>
<path d="M15.3908 365.461L15.2869 364.466L14.2923 364.57L14.3963 365.565L15.3908 365.461ZM16.2467 377.856L17.0234 378.486L17.0234 378.486L16.2467 377.856ZM8.48889 378.667L9.1187 377.89L9.1187 377.89L8.48889 378.667ZM4.86448 343.974L5.64123 344.604L5.64124 344.604L4.86448 343.974ZM14.347 355.469L13.3524 355.573L13.4563 356.567L14.4509 356.463L14.347 355.469ZM49.0511 360.376C49.0744 360.599 49.0242 360.714 48.9512 360.804L50.5047 362.064C50.9504 361.514 51.112 360.855 51.0403 360.168L49.0511 360.376ZM48.9512 360.804C48.8782 360.894 48.7758 360.967 48.5523 360.991L48.7601 362.98C49.4469 362.908 50.059 362.614 50.5047 362.064L48.9512 360.804ZM48.5523 360.991L15.2869 364.466L15.4947 366.455L48.7601 362.98L48.5523 360.991ZM14.3963 365.565L15.5763 376.86L17.5655 376.652L16.3854 365.357L14.3963 365.565ZM15.5763 376.86C15.5923 377.013 15.5604 377.115 15.4699 377.227L17.0234 378.486C17.4517 377.958 17.6359 377.327 17.5655 376.652L15.5763 376.86ZM15.4699 377.227C15.3795 377.338 15.2861 377.39 15.1331 377.406L15.3409 379.396C16.0154 379.325 16.5951 379.014 17.0234 378.486L15.4699 377.227ZM15.1331 377.406L9.54749 377.99L9.75531 379.979L15.3409 379.396L15.1331 377.406ZM9.54749 377.99C9.32402 378.013 9.20877 377.963 9.1187 377.89L7.85908 379.444C8.40877 379.889 9.06853 380.051 9.75531 379.979L9.54749 377.99ZM9.1187 377.89C9.00716 377.8 8.9548 377.706 8.93882 377.553L6.94964 377.761C7.02011 378.436 7.33086 379.015 7.85909 379.444L9.1187 377.89ZM8.93882 377.553L5.54134 345.033L3.55217 345.24L6.94964 377.761L8.93882 377.553ZM5.54134 345.033C5.518 344.809 5.5682 344.694 5.64123 344.604L4.08774 343.344C3.64203 343.894 3.48042 344.554 3.55217 345.24L5.54134 345.033ZM5.64124 344.604C5.71427 344.514 5.81666 344.441 6.04012 344.418L5.83231 342.428C5.14553 342.5 4.53343 342.795 4.08773 343.344L5.64124 344.604ZM6.04012 344.418L11.6257 343.834L11.4179 341.845L5.83231 342.428L6.04012 344.418ZM11.6257 343.834C11.7787 343.818 11.8809 343.85 11.9925 343.94L13.2521 342.387C12.7238 341.959 12.0924 341.774 11.4179 341.845L11.6257 343.834ZM11.9925 343.94C12.0825 344.013 12.1555 344.116 12.1788 344.339L14.168 344.131C14.0962 343.445 13.8018 342.833 13.2521 342.387L11.9925 343.94ZM12.1788 344.339L13.3524 355.573L15.3415 355.365L14.168 344.131L12.1788 344.339ZM14.4509 356.463L47.7162 352.988L47.5084 350.999L14.2431 354.474L14.4509 356.463ZM47.7162 352.988C47.9397 352.965 48.055 353.015 48.145 353.088L49.4046 351.534C48.8549 351.089 48.1952 350.927 47.5084 350.999L47.7162 352.988ZM48.145 353.088C48.2351 353.161 48.308 353.263 48.3314 353.487L50.3206 353.279C50.2488 352.592 49.9543 351.98 49.4046 351.534L48.145 353.088ZM48.3314 353.487L49.0511 360.376L51.0403 360.168L50.3206 353.279L48.3314 353.487Z" fill="#19A467"/>
<path d="M45.7752 325.952L46.4315 326.706L46.4315 326.706L45.7752 325.952ZM3.07193 322.982L3.8264 322.325L3.82639 322.325L3.07193 322.982ZM3.69972 313.955L4.35606 314.71L4.35606 314.71L3.69972 313.955ZM20.4129 314.68L20.3435 315.678L21.3411 315.747L21.4105 314.749L20.4129 314.68ZM21.5862 297.81L22.5838 297.88L22.6532 296.882L21.6556 296.813L21.5862 297.81ZM4.93366 296.214L5.68812 295.558L5.68812 295.558L4.93366 296.214ZM5.56145 287.188L6.21778 287.943L6.21779 287.943L5.56145 287.188ZM48.2647 290.158L47.5102 290.815L47.5102 290.815L48.2647 290.158ZM47.6369 299.184L46.9806 298.43L46.9806 298.43L47.6369 299.184ZM30.4257 298.425L30.4951 297.428L29.4975 297.358L29.4281 298.356L30.4257 298.425ZM29.2524 315.295L28.2548 315.225L28.1854 316.223L29.183 316.292L29.2524 315.295ZM45.2913 324.792C45.2757 325.016 45.2063 325.121 45.1188 325.197L46.4315 326.706C46.9654 326.242 47.2385 325.62 47.2864 324.931L45.2913 324.792ZM45.1188 325.197C45.0313 325.273 44.9179 325.328 44.6938 325.312L44.555 327.307C45.2438 327.355 45.8976 327.171 46.4315 326.706L45.1188 325.197ZM44.6938 325.312L4.2315 322.498L4.09273 324.493L44.555 327.307L44.6938 325.312ZM4.2315 322.498C4.00736 322.482 3.9025 322.413 3.8264 322.325L2.31746 323.638C2.78194 324.172 3.40388 324.445 4.09273 324.493L4.2315 322.498ZM3.82639 322.325C3.75028 322.238 3.69612 322.124 3.7117 321.9L1.71652 321.761C1.66861 322.45 1.85299 323.104 2.31747 323.638L3.82639 322.325ZM3.7117 321.9L4.18363 315.115L2.18845 314.976L1.71652 321.761L3.7117 321.9ZM4.18363 315.115C4.19922 314.891 4.26857 314.786 4.35606 314.71L3.04338 313.201C2.50946 313.665 2.23636 314.287 2.18845 314.976L4.18363 315.115ZM4.35606 314.71C4.44355 314.634 4.55699 314.58 4.78114 314.595L4.91991 312.6C4.23105 312.552 3.5773 312.737 3.04338 313.201L4.35606 314.71ZM4.78114 314.595L20.3435 315.678L20.4823 313.682L4.91991 312.6L4.78114 314.595ZM21.4105 314.749L22.5838 297.88L20.5887 297.741L19.4153 314.611L21.4105 314.749ZM21.6556 296.813L6.09323 295.73L5.95446 297.726L21.5169 298.808L21.6556 296.813ZM6.09323 295.73C5.86908 295.715 5.76423 295.645 5.68812 295.558L4.17919 296.871C4.64366 297.405 5.2656 297.678 5.95446 297.726L6.09323 295.73ZM5.68812 295.558C5.61201 295.471 5.55784 295.357 5.57343 295.133L3.57825 294.994C3.53034 295.683 3.71471 296.337 4.17919 296.871L5.68812 295.558ZM5.57343 295.133L6.04535 288.348L4.05017 288.209L3.57825 294.994L5.57343 295.133ZM6.04535 288.348C6.06094 288.124 6.1303 288.019 6.21778 287.943L4.90511 286.434C4.37119 286.898 4.09809 287.52 4.05017 288.209L6.04535 288.348ZM6.21779 287.943C6.30528 287.866 6.41872 287.812 6.64286 287.828L6.78163 285.833C6.09278 285.785 5.43902 285.969 4.9051 286.434L6.21779 287.943ZM6.64286 287.828L47.1051 290.642L47.2439 288.647L6.78163 285.833L6.64286 287.828ZM47.1051 290.642C47.3293 290.658 47.4341 290.727 47.5102 290.815L49.0192 289.502C48.5547 288.968 47.9327 288.695 47.2439 288.647L47.1051 290.642ZM47.5102 290.815C47.5863 290.902 47.6405 291.016 47.6249 291.24L49.6201 291.378C49.668 290.69 49.4836 290.036 49.0191 289.502L47.5102 290.815ZM47.6249 291.24L47.153 298.025L49.1482 298.164L49.6201 291.378L47.6249 291.24ZM47.153 298.025C47.1374 298.249 47.068 298.354 46.9806 298.43L48.2932 299.939C48.8272 299.474 49.1003 298.852 49.1482 298.164L47.153 298.025ZM46.9806 298.43C46.8931 298.506 46.7796 298.56 46.5555 298.545L46.4167 300.54C47.1056 300.588 47.7593 300.403 48.2932 299.939L46.9806 298.43ZM46.5555 298.545L30.4951 297.428L30.3563 299.423L46.4167 300.54L46.5555 298.545ZM29.4281 298.356L28.2548 315.225L30.25 315.364L31.4233 298.495L29.4281 298.356ZM29.183 316.292L45.2434 317.409L45.3822 315.414L29.3218 314.297L29.183 316.292ZM45.2434 317.409C45.4675 317.425 45.5724 317.494 45.6485 317.582L47.1574 316.269C46.6929 315.735 46.071 315.462 45.3822 315.414L45.2434 317.409ZM45.6485 317.582C45.7246 317.669 45.7788 317.783 45.7632 318.007L47.7584 318.146C47.8063 317.457 47.6219 316.803 47.1574 316.269L45.6485 317.582ZM45.7632 318.007L45.2913 324.792L47.2864 324.931L47.7584 318.146L45.7632 318.007Z" fill="#19A467"/>
<path d="M51.0643 274.096L51.5782 274.954L51.5782 274.954L51.0643 274.096ZM9.54296 263.686L10.4008 263.172L10.4008 263.172L9.54296 263.686ZM23.9241 235.834L24.7819 235.32L24.7819 235.32L23.9241 235.834ZM19.1579 256.64L18.188 256.397L17.9448 257.367L18.9147 257.61L19.1579 256.64ZM28.6606 259.022L28.4174 259.992L29.3874 260.236L29.6306 259.266L28.6606 259.022ZM33.9403 239.76L33.4264 238.902L33.4264 238.902L33.9403 239.76ZM40.5377 241.414L41.3956 240.9L41.3956 240.9L40.5377 241.414ZM36.1054 260.889L35.1354 260.646L34.8922 261.616L35.8622 261.859L36.1054 260.889ZM45.9107 263.347L45.6675 264.317L46.6375 264.56L46.8807 263.59L45.9107 263.347ZM51.6457 242.269L52.1596 243.127L52.1596 243.127L51.6457 242.269ZM58.6062 244.014L57.7484 244.528L57.7484 244.528L58.6062 244.014ZM50.7911 272.87C50.7365 273.088 50.6498 273.179 50.5503 273.238L51.5782 274.954C52.1853 274.59 52.5632 274.026 52.7311 273.356L50.7911 272.87ZM50.5503 273.238C50.4509 273.298 50.3297 273.331 50.1118 273.277L49.6254 275.217C50.2952 275.385 50.9711 275.318 51.5782 274.954L50.5503 273.238ZM50.1118 273.277L10.7694 263.413L10.283 265.353L49.6254 275.217L50.1118 273.277ZM10.7694 263.413C10.5515 263.358 10.4604 263.272 10.4008 263.172L8.68512 264.2C9.0488 264.807 9.61324 265.185 10.283 265.353L10.7694 263.413ZM10.4008 263.172C10.3412 263.073 10.3078 262.951 10.3624 262.734L8.42244 262.247C8.25451 262.917 8.32143 263.593 8.68512 264.2L10.4008 263.172ZM10.3624 262.734L17.2367 235.315L15.2967 234.829L8.42244 262.247L10.3624 262.734ZM17.2367 235.315C17.2913 235.097 17.378 235.006 17.4774 234.946L16.4496 233.231C15.8425 233.594 15.4646 234.159 15.2967 234.829L17.2367 235.315ZM17.4774 234.946C17.5769 234.887 17.6981 234.853 17.916 234.908L18.4024 232.968C17.7326 232.8 17.0567 232.867 16.4496 233.231L17.4774 234.946ZM17.916 234.908L22.7582 236.122L23.2446 234.182L18.4024 232.968L17.916 234.908ZM22.7582 236.122C22.9074 236.159 22.9925 236.224 23.0663 236.348L24.7819 235.32C24.4324 234.736 23.9024 234.347 23.2446 234.182L22.7582 236.122ZM23.0663 236.348C23.1258 236.447 23.1593 236.568 23.1047 236.786L25.0446 237.272C25.2125 236.603 25.1456 235.927 24.7819 235.32L23.0663 236.348ZM23.1047 236.786L18.188 256.397L20.1279 256.883L25.0446 237.272L23.1047 236.786ZM18.9147 257.61L28.4174 259.992L28.9038 258.052L19.4011 255.67L18.9147 257.61ZM29.6306 259.266L34.2135 240.987L32.2735 240.5L27.6906 258.779L29.6306 259.266ZM34.2135 240.987C34.2681 240.769 34.3547 240.678 34.4542 240.618L33.4264 238.902C32.8193 239.266 32.4414 239.83 32.2735 240.5L34.2135 240.987ZM34.4542 240.618C34.5537 240.558 34.6749 240.525 34.8928 240.58L35.3792 238.64C34.7094 238.472 34.0335 238.539 33.4264 238.902L34.4542 240.618ZM34.8928 240.58L39.3718 241.702L39.8582 239.763L35.3792 238.64L34.8928 240.58ZM39.3718 241.702C39.521 241.74 39.6061 241.805 39.6799 241.928L41.3956 240.9C41.0461 240.317 40.516 239.927 39.8582 239.763L39.3718 241.702ZM39.6799 241.928C39.7395 242.028 39.7729 242.149 39.7183 242.367L41.6582 242.853C41.8262 242.183 41.7592 241.507 41.3956 240.9L39.6799 241.928ZM39.7183 242.367L35.1354 260.646L37.0754 261.132L41.6582 242.853L39.7183 242.367ZM35.8622 261.859L45.6675 264.317L46.1539 262.377L36.3486 259.919L35.8622 261.859ZM46.8807 263.59L51.9188 243.496L49.9788 243.009L44.9408 263.104L46.8807 263.59ZM51.9188 243.496C51.9734 243.278 52.0601 243.187 52.1596 243.127L51.1317 241.411C50.5247 241.775 50.1468 242.339 49.9788 243.009L51.9188 243.496ZM52.1596 243.127C52.2591 243.067 52.3802 243.034 52.5982 243.089L53.0846 241.149C52.4148 240.981 51.7388 241.048 51.1317 241.411L52.1596 243.127ZM52.5982 243.089L57.3798 244.287L57.8662 242.347L53.0846 241.149L52.5982 243.089ZM57.3798 244.287C57.5977 244.342 57.6888 244.429 57.7484 244.528L59.4641 243.5C59.1004 242.893 58.536 242.515 57.8662 242.347L57.3798 244.287ZM57.7484 244.528C57.808 244.628 57.8414 244.749 57.7868 244.967L59.7268 245.453C59.8947 244.783 59.8278 244.107 59.4641 243.5L57.7484 244.528ZM57.7868 244.967L50.7911 272.87L52.7311 273.356L59.7268 245.453L57.7868 244.967Z" fill="#19A467"/>
<path d="M71.5824 207.962L71.8493 208.925L71.8814 208.917L71.9129 208.905L71.5824 207.962ZM34.3317 186.872L33.3524 187.074L33.3591 187.107L33.368 187.139L34.3317 186.872ZM38.4749 179.681L38.6771 180.66L38.7097 180.653L38.7418 180.644L38.4749 179.681ZM39.4647 179.452L39.4825 178.452L39.4093 178.451L39.3367 178.46L39.4647 179.452ZM63.5295 179.883L63.5116 180.883L65.3438 180.915L64.38 179.357L63.5295 179.883ZM50.8396 159.361L51.6901 158.835L51.6801 158.819L51.6694 158.803L50.8396 159.361ZM50.4647 158.503L49.5009 158.77L49.5098 158.802L49.5208 158.834L50.4647 158.503ZM54.5299 151.196L54.7969 152.16L54.7969 152.16L54.5299 151.196ZM87.5688 179.725L87.8357 180.689L87.8357 180.689L87.5688 179.725ZM64.4385 167.132L64.9311 166.261L63.5941 167.667L64.4385 167.132ZM73.4578 181.345L74.3111 180.823L74.3067 180.816L74.3021 180.809L73.4578 181.345ZM73.9269 182.542L74.9063 182.34L74.9063 182.34L73.9269 182.542ZM71.1908 187.375L71.5213 188.319L71.5213 188.319L71.1908 187.375ZM69.9223 187.589L69.8973 188.589L69.9058 188.589L69.9143 188.589L69.9223 187.589ZM53.0943 187.169L53.1192 186.169L52.6016 188.039L53.0943 187.169ZM71.6457 206.707C71.568 206.844 71.4563 206.946 71.2519 207.018L71.9129 208.905C72.5432 208.685 73.0539 208.279 73.3861 207.692L71.6457 206.707ZM71.3154 206.998C71.2037 207.029 71.078 207.029 70.8824 206.918L69.8971 208.659C70.498 208.999 71.1673 209.114 71.8493 208.925L71.3154 206.998ZM70.8824 206.918L35.5866 186.935L34.6013 188.676L69.8971 208.659L70.8824 206.918ZM35.5866 186.935C35.3911 186.825 35.3264 186.717 35.2954 186.605L33.368 187.139C33.5569 187.821 34.0004 188.335 34.6013 188.676L35.5866 186.935ZM35.3111 186.67C35.2673 186.458 35.2975 186.309 35.3752 186.172L33.6348 185.187C33.3026 185.773 33.2173 186.42 33.3524 187.074L35.3111 186.67ZM35.3752 186.172L38.2343 181.122L36.4939 180.137L33.6348 185.187L35.3752 186.172ZM38.2343 181.122C38.4601 180.723 38.6276 180.67 38.6771 180.66L38.2726 178.701C37.4559 178.87 36.883 179.449 36.4939 180.137L38.2343 181.122ZM38.7418 180.644C39.1921 180.52 39.4627 180.461 39.5926 180.444L39.3367 178.46C39.054 178.497 38.6648 178.59 38.2079 178.717L38.7418 180.644ZM39.4468 180.452L63.5116 180.883L63.5474 178.883L39.4825 178.452L39.4468 180.452ZM64.38 179.357L51.6901 158.835L49.9891 159.887L62.679 180.409L64.38 179.357ZM51.6694 158.803C51.67 158.804 51.6617 158.791 51.6451 158.759C51.629 158.728 51.6087 158.686 51.5843 158.63C51.535 158.517 51.4764 158.367 51.4085 158.173L49.5208 158.834C49.6672 159.252 49.8272 159.647 50.0098 159.919L51.6694 158.803ZM51.4284 158.236C51.3943 158.113 51.3867 157.891 51.6075 157.501L49.8671 156.516C49.4731 157.212 49.2837 157.986 49.5009 158.77L51.4284 158.236ZM51.6075 157.501L54.4667 152.451L52.7262 151.466L49.8671 156.516L51.6075 157.501ZM54.4667 152.451C54.5773 152.255 54.6851 152.191 54.7969 152.16L54.263 150.232C53.581 150.421 53.0664 150.865 52.7262 151.466L54.4667 152.451ZM54.7969 152.16C54.9086 152.129 55.0344 152.129 55.2299 152.24L56.2152 150.499C55.6143 150.159 54.945 150.043 54.263 150.232L54.7969 152.16ZM55.2299 152.24L90.5257 172.222L91.511 170.482L56.2152 150.499L55.2299 152.24ZM90.5257 172.222C90.7212 172.333 90.7859 172.441 90.8169 172.553L92.7443 172.019C92.5554 171.337 92.1119 170.822 91.511 170.482L90.5257 172.222ZM90.8169 172.553C90.8478 172.664 90.8478 172.79 90.7371 172.986L92.4775 173.971C92.8177 173.37 92.9332 172.701 92.7443 172.019L90.8169 172.553ZM90.7371 172.986L87.6013 178.524L89.3417 179.51L92.4775 173.971L90.7371 172.986ZM87.6013 178.524C87.5255 178.658 87.4402 178.723 87.3018 178.761L87.8357 180.689C88.4911 180.507 89.0076 180.1 89.3417 179.51L87.6013 178.524ZM87.3018 178.761C87.1901 178.792 87.0644 178.792 86.8688 178.682L85.8835 180.422C86.4844 180.762 87.1537 180.878 87.8357 180.689L87.3018 178.761ZM86.8688 178.682L64.9311 166.261L63.9458 168.002L85.8835 180.422L86.8688 178.682ZM63.5941 167.667L72.6134 181.88L74.3021 180.809L65.2828 166.596L63.5941 167.667ZM72.6045 181.866C72.7658 182.13 72.8807 182.421 72.9476 182.745L74.9063 182.34C74.7943 181.798 74.5964 181.29 74.3111 180.823L72.6045 181.866ZM72.9476 182.745C72.9778 182.891 72.9661 183.096 72.7912 183.405L74.5317 184.391C74.8897 183.758 75.055 183.06 74.9063 182.34L72.9476 182.745ZM72.7912 183.405L71.3463 185.957L73.0867 186.943L74.5317 184.391L72.7912 183.405ZM71.3463 185.957C71.1715 186.266 71.001 186.382 70.8603 186.431L71.5213 188.319C72.2153 188.076 72.7287 187.575 73.0867 186.943L71.3463 185.957ZM70.8603 186.431C70.5481 186.541 70.2397 186.592 69.9304 186.589L69.9143 188.589C70.4615 188.594 70.9987 188.502 71.5213 188.319L70.8603 186.431ZM69.9473 186.59L53.1192 186.169L53.0693 188.168L69.8973 188.589L69.9473 186.59ZM52.6016 188.039L74.5393 200.459L75.5246 198.719L53.5869 186.299L52.6016 188.039ZM74.5393 200.459C74.7348 200.57 74.7995 200.678 74.8305 200.789L76.7579 200.255C76.569 199.573 76.1255 199.059 75.5246 198.719L74.5393 200.459ZM74.8305 200.789C74.8688 200.928 74.8572 201.034 74.7814 201.168L76.5219 202.153C76.856 201.563 76.9394 200.911 76.7579 200.255L74.8305 200.789ZM74.7814 201.168L71.6457 206.707L73.3861 207.692L76.5219 202.153L74.7814 201.168Z" fill="#19A467"/>
<path d="M98.6005 161.507L98.6037 162.507L98.6421 162.507L98.6804 162.504L98.6005 161.507ZM97.258 160.774L96.3857 161.263L96.4125 161.31L96.4444 161.355L97.258 160.774ZM76.3399 123.453L77.2122 122.964L77.1906 122.925L77.1657 122.889L76.3399 123.453ZM84.5123 113.856L84.0871 114.761L84.1271 114.78L84.1686 114.795L84.5123 113.856ZM124.688 128.564L125.133 127.668L125.084 127.644L125.032 127.625L124.688 128.564ZM125.626 129.772L126.623 129.692L126.62 129.654L126.614 129.616L125.626 129.772ZM119.874 136.43L119.954 137.427L119.954 137.427L119.874 136.43ZM118.893 136.332L119.267 135.405L119.246 135.396L119.225 135.389L118.893 136.332ZM111.832 133.843L112.164 132.9L111.516 132.672L111.071 133.195L111.832 133.843ZM100.423 147.241L99.6616 146.592L99.216 147.115L99.5448 147.719L100.423 147.241ZM104.004 153.815L103.126 154.293L103.137 154.313L103.148 154.332L104.004 153.815ZM95.7915 140.264L94.9231 140.76L95.6293 141.996L96.5528 140.912L95.7915 140.264ZM104.166 130.43L104.928 131.078L105.848 129.997L104.52 129.495L104.166 130.43ZM86.317 123.671L86.6711 122.736L84.0688 121.751L85.4486 124.167L86.317 123.671ZM98.7311 160.389C98.6487 160.486 98.5908 160.505 98.5206 160.51L98.6804 162.504C99.3139 162.453 99.8506 162.159 100.254 161.686L98.7311 160.389ZM98.5973 160.507C98.4139 160.508 98.3378 160.462 98.2935 160.424L96.9968 161.947C97.4592 162.34 98.02 162.509 98.6037 162.507L98.5973 160.507ZM98.2935 160.424C98.1847 160.331 98.1151 160.253 98.0717 160.192L96.4444 161.355C96.6004 161.573 96.7889 161.77 96.9968 161.947L98.2935 160.424ZM98.1304 160.285L77.2122 122.964L75.4675 123.942L96.3857 161.263L98.1304 160.285ZM77.1657 122.889C77.0139 122.666 76.9293 122.411 76.9225 122.093L74.923 122.135C74.9375 122.818 75.1309 123.455 75.514 124.016L77.1657 122.889ZM76.9225 122.093C76.9186 121.908 76.9896 121.633 77.3154 121.251L75.7928 119.954C75.2555 120.585 74.9056 121.318 74.923 122.135L76.9225 122.093ZM77.3154 121.251L82.494 115.17L80.9714 113.873L75.7928 119.954L77.3154 121.251ZM82.494 115.17C82.8199 114.787 83.0793 114.673 83.2625 114.648L82.9859 112.667C82.1769 112.78 81.5087 113.242 80.9714 113.873L82.494 115.17ZM83.2625 114.648C83.5778 114.604 83.8435 114.647 84.0871 114.761L84.9375 112.951C84.3226 112.662 83.6628 112.573 82.9859 112.667L83.2625 114.648ZM84.1686 114.795L124.345 129.503L125.032 127.625L84.8561 112.917L84.1686 114.795ZM124.244 129.46C124.311 129.493 124.399 129.549 124.508 129.642L125.805 128.119C125.597 127.942 125.373 127.787 125.133 127.668L124.244 129.46ZM124.508 129.642C124.552 129.679 124.61 129.747 124.639 129.928L126.614 129.616C126.523 129.04 126.267 128.513 125.805 128.119L124.508 129.642ZM124.629 129.852C124.635 129.922 124.625 129.983 124.543 130.079L126.066 131.376C126.469 130.903 126.674 130.326 126.623 129.692L124.629 129.852ZM124.543 130.079L120.336 135.02L121.858 136.317L126.066 131.376L124.543 130.079ZM120.336 135.02C120.016 135.396 119.831 135.431 119.794 135.434L119.954 137.427C120.738 137.364 121.369 136.891 121.858 136.317L120.336 135.02ZM119.794 135.434C119.46 135.46 119.308 135.421 119.267 135.405L118.518 137.259C118.965 137.44 119.468 137.466 119.954 137.427L119.794 135.434ZM119.225 135.389L112.164 132.9L111.5 134.787L118.56 137.275L119.225 135.389ZM111.071 133.195L99.6616 146.592L101.184 147.889L112.593 134.492L111.071 133.195ZM99.5448 147.719L103.126 154.293L104.882 153.336L101.301 146.762L99.5448 147.719ZM103.148 154.332C103.171 154.37 103.234 154.513 103.261 154.848L105.254 154.688C105.215 154.202 105.109 153.71 104.86 153.297L103.148 154.332ZM103.261 154.848C103.264 154.885 103.259 155.073 102.939 155.448L104.461 156.745C104.951 156.17 105.317 155.472 105.254 154.688L103.261 154.848ZM102.939 155.448L98.7311 160.389L100.254 161.686L104.461 156.745L102.939 155.448ZM96.5528 140.912L104.928 131.078L103.405 129.781L95.0301 139.615L96.5528 140.912ZM104.52 129.495L86.6711 122.736L85.9629 124.606L103.812 131.365L104.52 129.495ZM85.4486 124.167L94.9231 140.76L96.6599 139.768L87.1854 123.175L85.4486 124.167Z" fill="#19A467"/>
<path d="M133.575 121.143L133.481 122.138L133.481 122.138L133.575 121.143ZM106.299 88.1522L107.294 88.2466L107.294 88.2466L106.299 88.1522ZM131.41 71.5191L131.423 72.5191L131.431 72.5189L131.41 71.5191ZM144.601 83.8501L145.599 83.7795L145.599 83.7795L144.601 83.8501ZM142.983 91.0983L142.103 90.6246L141.564 91.625L142.625 92.032L142.983 91.0983ZM159.705 97.5147L160.109 96.6001L160.086 96.59L160.063 96.5811L159.705 97.5147ZM160.594 98.8843L161.59 98.9787L161.593 98.9405L161.594 98.9021L160.594 98.8843ZM153.117 104.824L152.97 105.813L152.996 105.817L153.022 105.819L153.117 104.824ZM151.776 104.475L152.18 103.56L152.168 103.555L152.157 103.55L151.776 104.475ZM136.803 98.313L137.184 97.3883L136.629 97.1598L136.166 97.5423L136.803 98.313ZM130.984 103.124L130.347 102.354L129.576 102.991L130.214 103.761L130.984 103.124ZM125.935 97.0166L125.164 97.6538L125.801 98.4245L126.572 97.7873L125.935 97.0166ZM134.992 87.5041L134 87.3715L133.999 87.3809L133.998 87.3902L134.992 87.5041ZM118.3 87.7831L117.663 87.0124L116.892 87.6497L117.53 88.4203L118.3 87.7831ZM134.082 119.993C133.909 120.136 133.785 120.158 133.67 120.147L133.481 122.138C134.185 122.205 134.824 121.974 135.356 121.534L134.082 119.993ZM133.67 120.147C133.554 120.136 133.437 120.091 133.294 119.918L131.752 121.193C132.192 121.725 132.776 122.071 133.481 122.138L133.67 120.147ZM133.294 119.918L107.448 88.659L105.907 89.9334L131.752 121.193L133.294 119.918ZM107.448 88.659C107.305 88.4858 107.283 88.362 107.294 88.2466L105.303 88.0578C105.236 88.7623 105.467 89.4012 105.907 89.9334L107.448 88.659ZM107.294 88.2466C107.305 88.1311 107.35 88.0137 107.523 87.8705L106.249 86.3292C105.716 86.7692 105.37 87.3533 105.303 88.0578L107.294 88.2466ZM107.523 87.8705L120.267 77.3336L118.993 75.7923L106.249 86.3292L107.523 87.8705ZM120.267 77.3336C124.161 74.1145 127.874 72.5643 131.423 72.519L131.397 70.5192C127.254 70.5721 123.115 72.3844 118.993 75.7923L120.267 77.3336ZM131.431 72.5189C134.89 72.4455 137.956 73.955 140.663 77.2285L142.204 75.9541C139.185 72.3025 135.569 70.4306 131.389 70.5194L131.431 72.5189ZM140.663 77.2285C142.494 79.4431 143.444 81.6707 143.604 83.9206L145.599 83.7795C145.404 81.032 144.243 78.4204 142.204 75.9541L140.663 77.2285ZM143.604 83.9206C143.766 86.2194 143.274 88.4478 142.103 90.6246L143.864 91.5721C145.204 89.0821 145.79 86.4782 145.599 83.7795L143.604 83.9206ZM142.625 92.032L159.346 98.4483L160.063 96.5811L143.341 90.1647L142.625 92.032ZM159.3 98.4293C159.46 98.4998 159.51 98.5546 159.516 98.5616L161.057 97.2872C160.798 96.9736 160.46 96.7552 160.109 96.6001L159.3 98.4293ZM159.516 98.5616C159.553 98.6064 159.597 98.6832 159.594 98.8666L161.594 98.9021C161.604 98.3185 161.444 97.7553 161.057 97.2872L159.516 98.5616ZM159.599 98.79C159.592 98.8601 159.572 98.9177 159.474 98.9986L160.748 100.54C161.228 100.144 161.53 99.6114 161.59 98.9787L159.599 98.79ZM159.474 98.9986L154.136 103.412L155.41 104.954L160.748 100.54L159.474 98.9986ZM154.136 103.412C153.678 103.791 153.381 103.844 153.211 103.828L153.022 105.819C153.907 105.903 154.714 105.529 155.41 104.954L154.136 103.412ZM153.263 103.834C152.759 103.76 152.408 103.661 152.18 103.56L151.372 105.39C151.824 105.59 152.368 105.724 152.97 105.813L153.263 103.834ZM152.157 103.55L137.184 97.3883L136.423 99.2378L151.395 105.4L152.157 103.55ZM136.166 97.5423L130.347 102.354L131.622 103.895L137.441 99.0837L136.166 97.5423ZM130.214 103.761L139.399 114.87L140.94 113.596L131.755 102.487L130.214 103.761ZM139.399 114.87C139.542 115.044 139.564 115.167 139.553 115.283L141.544 115.472C141.611 114.767 141.38 114.128 140.94 113.596L139.399 114.87ZM139.553 115.283C139.542 115.398 139.497 115.516 139.324 115.659L140.598 117.2C141.131 116.76 141.477 116.176 141.544 115.472L139.553 115.283ZM139.324 115.659L134.082 119.993L135.356 121.534L140.598 117.2L139.324 115.659ZM126.572 97.7873L132.727 92.6978L131.453 91.1564L125.297 96.2459L126.572 97.7873ZM132.727 92.6978C134.588 91.1595 135.773 89.4723 135.985 87.618L133.998 87.3902C133.869 88.5174 133.119 89.7788 131.453 91.1564L132.727 92.6978ZM135.983 87.6367C136.231 85.7834 135.605 84.0328 134.277 82.427L132.736 83.7014C133.794 84.981 134.158 86.1904 134 87.3715L135.983 87.6367ZM134.277 82.427C132.956 80.8285 131.371 79.8628 129.528 79.688L129.339 81.679C130.541 81.793 131.672 82.4144 132.736 83.7014L134.277 82.427ZM129.528 79.688C127.631 79.5081 125.714 80.3563 123.819 81.9229L125.093 83.4643C126.789 82.062 128.19 81.5701 129.339 81.679L129.528 79.688ZM123.819 81.9229L117.663 87.0124L118.938 88.5538L125.093 83.4643L123.819 81.9229ZM117.53 88.4203L125.164 97.6538L126.705 96.3794L119.071 87.1459L117.53 88.4203Z" fill="#19A467"/>
<path d="M170.758 91.602L170.492 92.5657L170.492 92.5657L170.758 91.602ZM149.669 54.3514L150.632 54.6183L150.632 54.6183L149.669 54.3514ZM174.113 42.3049L174.182 43.3026L174.194 43.3016L174.113 42.3049ZM182.48 44.1648L181.97 45.0252L181.979 45.0302L181.987 45.035L182.48 44.1648ZM189.124 51.0875L188.265 51.5996L188.265 51.5998L189.124 51.0875ZM193.828 59.3956L194.713 58.9312L194.709 58.9233L193.828 59.3956ZM196.553 68.8955L195.553 68.9021L195.553 68.9021L196.553 68.8955ZM193.92 76.9112L194.722 77.5097L194.729 77.4995L193.92 76.9112ZM175.262 80.3043L174.391 80.797L174.884 81.6672L175.754 81.1745L175.262 80.3043ZM186.714 69.3748L185.716 69.4385L185.717 69.4516L186.714 69.3748ZM185.024 64.2366L184.137 64.699L184.14 64.7058L184.144 64.7125L185.024 64.2366ZM183.479 61.3822L182.588 61.8366L182.598 61.856L182.609 61.8749L183.479 61.3822ZM182.065 58.8843L181.195 59.377L181.206 59.3959L181.217 59.4143L182.065 58.8843ZM180.443 56.1457L179.586 56.6614L179.591 56.6691L180.443 56.1457ZM174.943 51.3716L174.676 52.3353L174.69 52.339L174.703 52.3423L174.943 51.3716ZM161.673 56.3032L161.181 55.4329L160.31 55.9256L160.803 56.7958L161.673 56.3032ZM171.458 90.5585C171.263 90.6692 171.137 90.6693 171.025 90.6383L170.492 92.5657C171.174 92.7546 171.843 92.6392 172.444 92.2989L171.458 90.5585ZM171.025 90.6383C170.914 90.6073 170.806 90.5426 170.695 90.3471L168.955 91.3325C169.295 91.9334 169.81 92.3768 170.492 92.5657L171.025 90.6383ZM170.695 90.3471L150.712 55.0513L148.972 56.0367L168.955 91.3325L170.695 90.3471ZM150.712 55.0513C150.602 54.8558 150.601 54.7301 150.632 54.6183L148.705 54.0844C148.516 54.7664 148.632 55.4358 148.972 56.0367L150.712 55.0513ZM150.632 54.6183C150.663 54.5066 150.728 54.3988 150.924 54.2881L149.938 52.5477C149.337 52.8879 148.894 53.4024 148.705 54.0844L150.632 54.6183ZM150.924 54.2881L164.553 46.5716L163.568 44.8311L149.938 52.5477L150.924 54.2881ZM164.553 46.5716C168.086 44.5713 171.292 43.5039 174.182 43.3025L174.043 41.3073C170.771 41.5354 167.275 42.7323 163.568 44.8311L164.553 46.5716ZM174.194 43.3016C177.06 43.0666 179.64 43.6453 181.97 45.0252L182.989 43.3044C180.285 41.7025 177.287 41.0413 174.031 41.3083L174.194 43.3016ZM181.987 45.035C184.333 46.3634 186.434 48.528 188.265 51.5996L189.983 50.5754C188.021 47.2852 185.692 44.8347 182.972 43.2946L181.987 45.035ZM188.265 51.5998C189.2 53.1676 190.004 54.5443 190.675 55.7306L192.416 54.7453C191.735 53.5423 190.923 52.152 189.983 50.5752L188.265 51.5998ZM190.675 55.7306C191.347 56.9168 192.104 58.2957 192.946 59.8679L194.709 58.9233C193.861 57.3412 193.097 55.9483 192.416 54.7453L190.675 55.7306ZM192.942 59.8599C194.689 63.1918 195.535 66.2006 195.553 68.9021L197.553 68.8888C197.532 65.7801 196.561 62.4556 194.713 58.9312L192.942 59.8599ZM195.553 68.9021C195.571 71.585 194.766 74.0499 193.112 76.3228L194.729 77.4995C196.624 74.895 197.574 72.0161 197.553 68.8888L195.553 68.9021ZM193.119 76.3127C191.432 78.571 188.865 80.7036 185.36 82.6883L186.345 84.4287C190.007 82.3554 192.819 80.0563 194.721 77.5097L193.119 76.3127ZM185.36 82.6883L171.458 90.5585L172.444 92.2989L186.345 84.4287L185.36 82.6883ZM175.754 81.1745L182.108 77.5776L181.122 75.8372L174.769 79.4341L175.754 81.1745ZM182.108 77.5776C183.996 76.5085 185.458 75.3082 186.422 73.9508L184.791 72.7931C184.053 73.8334 182.854 74.8567 181.122 75.8372L182.108 77.5776ZM186.422 73.9508C187.408 72.5613 187.841 70.997 187.711 69.2981L185.717 69.4516C185.812 70.6844 185.507 71.7848 184.791 72.7931L186.422 73.9508ZM187.712 69.3112C187.602 67.5971 186.975 65.7414 185.903 63.7607L184.144 64.7125C185.132 66.5377 185.631 68.1075 185.716 69.4385L187.712 69.3112ZM185.91 63.7742C185.348 62.6962 184.828 61.7343 184.349 60.8895L182.609 61.8749C183.074 62.6953 183.583 63.6364 184.137 64.699L185.91 63.7742ZM184.37 60.9278C183.922 60.0489 183.436 59.191 182.913 58.3543L181.217 59.4143C181.709 60.2019 182.166 61.0093 182.588 61.8366L184.37 60.9278ZM182.935 58.3917C182.457 57.5467 181.91 56.6235 181.295 55.6223L179.591 56.6691C180.196 57.6542 180.73 58.5567 181.195 59.377L182.935 58.3917ZM181.3 55.63C179.618 52.8356 177.598 50.9981 175.184 50.4008L174.703 52.3423C176.402 52.7624 178.049 54.1077 179.586 56.6614L181.3 55.63ZM175.21 50.4078C172.811 49.7433 170.132 50.3652 167.262 51.9897L168.248 53.7301C170.881 52.2394 172.993 51.869 174.676 52.3353L175.21 50.4078ZM167.262 51.9897L161.181 55.4329L162.166 57.1734L168.248 53.7301L167.262 51.9897ZM160.803 56.7958L174.391 80.797L176.132 79.8116L162.543 55.8105L160.803 56.7958Z" fill="#19A467"/>
<path d="M216.733 66.7384L216.333 67.655L216.333 67.655L216.733 66.7384ZM201.096 26.8905L202.012 27.2904L202.012 27.2904L201.096 26.8905ZM209.751 23.494L209.351 24.4106L209.351 24.4106L209.751 23.494ZM225.388 63.3419L224.472 62.942L224.472 62.942L225.388 63.3419ZM217.573 65.8038C217.364 65.8859 217.24 65.8682 217.133 65.8219L216.333 67.655C216.982 67.938 217.661 67.9178 218.304 67.6656L217.573 65.8038ZM217.133 65.8219C217.027 65.7755 216.929 65.6962 216.847 65.4871L214.986 66.2177C215.238 66.8605 215.685 67.3719 216.333 67.655L217.133 65.8219ZM216.847 65.4871L202.03 27.7303L200.169 28.4609L214.986 66.2177L216.847 65.4871ZM202.03 27.7303C201.948 27.5212 201.966 27.3967 202.012 27.2904L200.179 26.4906C199.896 27.1392 199.916 27.8181 200.169 28.4609L202.03 27.7303ZM202.012 27.2904C202.059 27.1841 202.138 27.0865 202.347 27.0045L201.617 25.1427C200.974 25.3949 200.462 25.8419 200.179 26.4906L202.012 27.2904ZM202.347 27.0045L208.911 24.4286L208.18 22.5668L201.617 25.1427L202.347 27.0045ZM208.911 24.4286C209.12 24.3465 209.245 24.3642 209.351 24.4106L210.151 22.5775C209.502 22.2944 208.823 22.3146 208.18 22.5668L208.911 24.4286ZM209.351 24.4106C209.457 24.4569 209.555 24.5362 209.637 24.7453L211.499 24.0147C211.246 23.3719 210.799 22.8605 210.151 22.5775L209.351 24.4106ZM209.637 24.7453L224.454 62.5021L226.316 61.7715L211.499 24.0147L209.637 24.7453ZM224.454 62.5021C224.536 62.7112 224.518 62.8357 224.472 62.942L226.305 63.7418C226.588 63.0932 226.568 62.4143 226.316 61.7715L224.454 62.5021ZM224.472 62.942C224.425 63.0483 224.346 63.1459 224.137 63.228L224.868 65.0897C225.51 64.8375 226.022 64.3905 226.305 63.7418L224.472 62.942ZM224.137 63.228L217.573 65.8038L218.304 67.6656L224.868 65.0897L224.137 63.228Z" fill="#19A467"/>
<path d="M245.618 55.7556L245.449 56.7411L245.454 56.742L245.618 55.7556ZM238.651 52.7826L239.292 52.0153L239.292 52.0153L238.651 52.7826ZM235.096 47.4896L234.125 47.7291L234.129 47.7482L234.135 47.767L235.096 47.4896ZM235.25 46.5518L236.106 47.069L236.126 47.0361L236.143 47.0018L235.25 46.5518ZM243.838 44.369L243.388 45.2621L243.427 45.282L243.468 45.2983L243.838 44.369ZM244.82 44.9623L245.626 44.3712L245.551 44.2687L245.453 44.1882L244.82 44.9623ZM246.646 46.6328L246.101 47.4716L246.115 47.4804L246.129 47.4887L246.646 46.6328ZM249.654 47.626L249.51 48.6155L249.526 48.6178L249.542 48.6196L249.654 47.626ZM259.426 44.5086L258.702 43.818L258.693 43.8283L259.426 44.5086ZM258.855 38.2866L258.364 39.1578L258.376 39.1648L258.389 39.1714L258.855 38.2866ZM255.089 37.3517L254.994 38.3471L255.002 38.3478L255.089 37.3517ZM248.673 37.1348L248.669 36.1348L248.655 36.1349L248.641 36.1353L248.673 37.1348ZM240.306 36.5638L240.086 37.5393L240.097 37.5418L240.108 37.5441L240.306 36.5638ZM234.533 33.7459L233.842 34.4681L233.852 34.478L233.862 34.4876L234.533 33.7459ZM231.864 21.1004L232.792 21.4718L232.796 21.4623L231.864 21.1004ZM236.407 15.2879L237.013 16.0836L237.024 16.075L236.407 15.2879ZM252.085 10.8421L251.988 11.8374L251.994 11.8379L252.085 10.8421ZM257.998 12.4043L257.55 13.2984L257.556 13.3016L257.563 13.3047L257.998 12.4043ZM262.135 15.3684L261.397 16.0436L261.397 16.0436L262.135 15.3684ZM264.243 18.9618L265.214 18.7223L265.21 18.7067L265.205 18.6912L264.243 18.9618ZM264.103 19.9603L264.959 20.4775L264.979 20.4446L264.996 20.4103L264.103 19.9603ZM255.349 22.2484L255.569 21.2729L255.569 21.2729L255.349 22.2484ZM254.352 21.5945L253.46 22.0462L253.513 22.1524L253.59 22.243L254.352 21.5945ZM251.498 19.4063L251.144 20.3415L251.162 20.3484L251.181 20.3547L251.498 19.4063ZM242.138 21.5866L241.423 20.888L241.417 20.8937L241.412 20.8994L242.138 21.5866ZM242.725 27.6119L242.128 28.414L242.153 28.4332L242.18 28.4506L242.725 27.6119ZM246.127 28.6365L246.004 29.6289L246.021 29.6311L246.039 29.6326L246.127 28.6365ZM252.104 28.8974L252.089 29.8973L252.116 29.8977L252.144 29.8966L252.104 28.8974ZM261.41 29.3654L261.594 28.3824L261.594 28.3824L261.41 29.3654ZM267.289 32.0928L266.605 32.8228L266.614 32.8306L267.289 32.0928ZM269.76 45.2371L268.85 44.8222L268.845 44.8341L269.76 45.2371ZM264.626 51.2596L265.198 52.0799L265.205 52.0752L264.626 51.2596ZM255.551 54.0749C251.762 55.0098 248.514 55.2237 245.782 54.7692L245.454 56.742C248.531 57.2541 252.065 56.9949 256.03 56.0167L255.551 54.0749ZM245.788 54.7701C243.055 54.2993 240.908 53.3659 239.292 52.0153L238.009 53.5499C239.956 55.1768 242.454 56.2254 245.449 56.7411L245.788 54.7701ZM239.292 52.0153C237.649 50.642 236.585 49.0428 236.056 47.2123L234.135 47.767C234.784 50.0163 236.09 51.9458 238.009 53.5499L239.292 52.0153ZM236.066 47.2501C236.054 47.2013 236.051 47.1594 236.106 47.069L234.394 46.0346C234.083 46.5484 233.977 47.1317 234.125 47.7291L236.066 47.2501ZM236.143 47.0018C236.188 46.9127 236.221 46.8922 236.293 46.8744L235.814 44.9326C235.16 45.0941 234.657 45.5059 234.357 46.1018L236.143 47.0018ZM236.293 46.8744L242.776 45.2753L242.297 43.3335L235.814 44.9326L236.293 46.8744ZM242.776 45.2753C243.163 45.1798 243.331 45.2337 243.388 45.2621L244.288 43.476C243.659 43.1592 242.96 43.17 242.297 43.3335L242.776 45.2753ZM243.468 45.2983C243.692 45.387 243.931 45.5278 244.187 45.7365L245.453 44.1882C245.064 43.8703 244.649 43.6154 244.207 43.4398L243.468 45.2983ZM244.013 45.5535C244.549 46.2849 245.253 46.9213 246.101 47.4716L247.19 45.7941C246.507 45.3508 245.994 44.8735 245.626 44.3712L244.013 45.5535ZM246.129 47.4887C247.076 48.0612 248.214 48.4263 249.51 48.6155L249.799 46.6365C248.694 46.4751 247.827 46.1781 247.163 45.777L246.129 47.4887ZM249.542 48.6196C250.886 48.7719 252.413 48.6181 254.102 48.2014L253.623 46.2596C252.081 46.64 250.803 46.7498 249.767 46.6323L249.542 48.6196ZM254.102 48.2014C256.799 47.5361 258.879 46.5673 260.159 45.1889L258.693 43.8283C257.806 44.7839 256.177 45.6297 253.623 46.2596L254.102 48.2014ZM260.149 45.1991C261.484 43.8004 261.993 42.1415 261.544 40.3226L259.602 40.8016C259.871 41.8908 259.614 42.8629 258.702 43.8181L260.149 45.1991ZM261.544 40.3226C261.223 39.0201 260.482 38.0133 259.321 37.4019L258.389 39.1714C259.001 39.4937 259.405 40.004 259.602 40.8016L261.544 40.3226ZM259.346 37.4155C258.317 36.8355 256.895 36.5067 255.177 36.3555L255.002 38.3478C256.612 38.4895 257.701 38.784 258.364 39.1578L259.346 37.4155ZM255.185 36.3563C253.514 36.1953 251.338 36.1229 248.669 36.1348L248.678 38.1348C251.316 38.123 253.417 38.1952 254.994 38.347L255.185 36.3563ZM248.641 36.1353C245.508 36.2346 242.799 36.0462 240.503 35.5835L240.108 37.5441C242.592 38.0448 245.461 38.2371 248.705 38.1343L248.641 36.1353ZM240.526 35.5883C238.3 35.0864 236.542 34.2139 235.204 33.0042L233.862 34.4876C235.503 35.9711 237.593 36.9772 240.086 37.5393L240.526 35.5883ZM235.225 33.0237C233.932 31.7858 232.983 30.0587 232.419 27.776L230.478 28.255C231.11 30.819 232.217 32.9122 233.842 34.4681L235.225 33.0237ZM232.419 27.776C231.869 25.5428 232 23.4523 232.792 21.4718L230.935 20.7291C229.978 23.1219 229.833 25.6415 230.478 28.255L232.419 27.776ZM232.796 21.4623C233.585 19.43 234.974 17.6356 237.013 16.0836L235.801 14.4923C233.511 16.2361 231.872 18.3167 230.931 20.7385L232.796 21.4623ZM237.024 16.075C239.042 14.4937 241.657 13.2876 244.907 12.486L244.428 10.5442C240.973 11.3964 238.081 12.7056 235.79 14.5008L237.024 16.075ZM244.907 12.486C247.528 11.8394 249.885 11.6318 251.988 11.8374L252.182 9.84684C249.807 9.61465 247.218 9.85572 244.428 10.5442L244.907 12.486ZM251.994 11.8379C254.177 12.038 256.022 12.533 257.55 13.2984L258.445 11.5102C256.649 10.6105 254.552 10.064 252.176 9.84627L251.994 11.8379ZM257.563 13.3047C259.174 14.0833 260.443 15.001 261.397 16.0436L262.873 14.6933C261.715 13.4288 260.226 12.3704 258.433 11.5039L257.563 13.3047ZM261.397 16.0436C262.37 17.1059 262.981 18.1696 263.28 19.2325L265.205 18.6912C264.806 17.2699 264.012 15.938 262.873 14.6933L261.397 16.0436ZM263.272 19.2013C263.286 19.2578 263.293 19.3465 263.21 19.5103L264.996 20.4103C265.259 19.889 265.359 19.3121 265.214 18.7223L263.272 19.2013ZM263.247 19.4431C263.211 19.5034 263.168 19.5466 263.045 19.5771L263.524 21.5188C264.127 21.3699 264.631 21.0214 264.959 20.4775L263.247 19.4431ZM263.045 19.5771L256.259 21.2509L256.738 23.1927L263.524 21.5188L263.045 19.5771ZM256.259 21.2509C255.988 21.3178 255.763 21.3168 255.569 21.2729L255.129 23.2239C255.66 23.3438 256.202 23.325 256.738 23.1927L256.259 21.2509ZM255.569 21.2729C255.465 21.2495 255.31 21.1773 255.113 20.9461L253.59 22.243C253.997 22.72 254.507 23.0837 255.129 23.2239L255.569 21.2729ZM255.244 21.1429C254.588 19.8482 253.381 18.9814 251.815 18.4579L251.181 20.3547C252.418 20.7682 253.112 21.3602 253.46 22.0462L255.244 21.1429ZM251.852 18.471C250.238 17.86 248.386 17.8586 246.355 18.3595L246.834 20.3013C248.601 19.8656 250.017 19.9149 251.144 20.3415L251.852 18.471ZM246.355 18.3595C244.27 18.8739 242.59 19.6927 241.423 20.888L242.854 22.2852C243.671 21.4486 244.962 20.7633 246.834 20.3013L246.355 18.3595ZM241.412 20.8994C240.197 22.1836 239.854 23.7956 240.293 25.5767L242.235 25.0977C241.937 23.89 242.176 23.0016 242.865 22.2738L241.412 20.8994ZM240.293 25.5767C240.582 26.7496 241.19 27.7156 242.128 28.414L243.322 26.8098C242.79 26.4139 242.424 25.8635 242.235 25.0977L240.293 25.5767ZM242.18 28.4506C243.13 29.0671 244.438 29.4348 246.004 29.6289L246.25 27.6441C244.811 27.4657 243.85 27.1502 243.269 26.7731L242.18 28.4506ZM246.039 29.6326C247.606 29.7716 249.625 29.8591 252.089 29.8973L252.12 27.8975C249.68 27.8597 247.714 27.7734 246.215 27.6404L246.039 29.6326ZM252.144 29.8966C255.835 29.7485 258.856 29.9053 261.227 30.3484L261.594 28.3824C259.023 27.9019 255.84 27.7467 252.064 27.8982L252.144 29.8966ZM261.227 30.3484C263.559 30.7844 265.329 31.6271 266.605 32.8227L267.973 31.3629C266.352 29.8455 264.202 28.8699 261.594 28.3824L261.227 30.3484ZM266.614 32.8306C267.871 33.9807 268.809 35.6565 269.373 37.9416L271.315 37.4626C270.683 34.9009 269.584 32.8372 267.964 31.355L266.614 32.8306ZM269.373 37.9416C269.992 40.4509 269.804 42.7297 268.85 44.8223L270.67 45.652C271.829 43.11 272.031 40.3654 271.315 37.4626L269.373 37.9416ZM268.845 44.8341C267.913 46.9496 266.332 48.8229 264.047 50.4441L265.205 52.0752C267.733 50.281 269.575 48.1392 270.675 45.6402L268.845 44.8341ZM264.054 50.4394C261.8 52.0115 258.975 53.2305 255.551 54.0749L256.03 56.0167C259.635 55.1276 262.699 53.8225 265.198 52.0798L264.054 50.4394Z" fill="#19A467"/>
<path d="M245.618 55.7556L245.449 56.7411L245.454 56.742L245.618 55.7556ZM238.651 52.7826L239.292 52.0153L239.292 52.0153L238.651 52.7826ZM235.096 47.4896L234.125 47.7291L234.129 47.7482L234.135 47.767L235.096 47.4896ZM235.25 46.5518L236.106 47.069L236.126 47.0361L236.143 47.0018L235.25 46.5518ZM243.838 44.369L243.388 45.2621L243.427 45.282L243.468 45.2983L243.838 44.369ZM244.82 44.9623L245.626 44.3712L245.551 44.2687L245.453 44.1882L244.82 44.9623ZM246.646 46.6328L246.101 47.4716L246.115 47.4804L246.129 47.4887L246.646 46.6328ZM249.654 47.626L249.51 48.6155L249.526 48.6178L249.542 48.6196L249.654 47.626ZM259.426 44.5086L258.702 43.818L258.693 43.8283L259.426 44.5086ZM258.855 38.2866L258.364 39.1578L258.376 39.1648L258.389 39.1714L258.855 38.2866ZM255.089 37.3517L254.994 38.3471L255.002 38.3478L255.089 37.3517ZM248.673 37.1348L248.669 36.1348L248.655 36.1349L248.641 36.1353L248.673 37.1348ZM240.306 36.5638L240.086 37.5393L240.097 37.5418L240.108 37.5441L240.306 36.5638ZM234.533 33.7459L233.842 34.4681L233.852 34.478L233.862 34.4876L234.533 33.7459ZM231.864 21.1004L232.792 21.4718L232.796 21.4623L231.864 21.1004ZM236.407 15.2879L237.013 16.0836L237.024 16.075L236.407 15.2879ZM252.085 10.8421L251.988 11.8374L251.994 11.8379L252.085 10.8421ZM257.998 12.4043L257.55 13.2984L257.556 13.3016L257.563 13.3047L257.998 12.4043ZM262.135 15.3684L261.397 16.0436L261.397 16.0436L262.135 15.3684ZM264.243 18.9618L265.214 18.7223L265.21 18.7067L265.205 18.6912L264.243 18.9618ZM264.103 19.9603L264.959 20.4775L264.979 20.4446L264.996 20.4103L264.103 19.9603ZM255.349 22.2484L255.569 21.2729L255.569 21.2729L255.349 22.2484ZM254.352 21.5945L253.46 22.0462L253.513 22.1524L253.59 22.243L254.352 21.5945ZM251.498 19.4063L251.144 20.3415L251.162 20.3484L251.181 20.3547L251.498 19.4063ZM242.138 21.5866L241.423 20.888L241.417 20.8937L241.412 20.8994L242.138 21.5866ZM242.725 27.6119L242.128 28.414L242.153 28.4332L242.18 28.4506L242.725 27.6119ZM246.127 28.6365L246.004 29.6289L246.021 29.6311L246.039 29.6326L246.127 28.6365ZM252.104 28.8974L252.089 29.8973L252.116 29.8977L252.144 29.8966L252.104 28.8974ZM261.41 29.3654L261.594 28.3824L261.594 28.3824L261.41 29.3654ZM267.289 32.0928L266.605 32.8228L266.614 32.8306L267.289 32.0928ZM269.76 45.2371L268.85 44.8222L268.845 44.8341L269.76 45.2371ZM264.626 51.2596L265.198 52.0799L265.205 52.0752L264.626 51.2596ZM255.551 54.0749C251.762 55.0098 248.514 55.2237 245.782 54.7692L245.454 56.742C248.531 57.2541 252.065 56.9949 256.03 56.0167L255.551 54.0749ZM245.788 54.7701C243.055 54.2993 240.908 53.3659 239.292 52.0153L238.009 53.5499C239.956 55.1768 242.454 56.2254 245.449 56.7411L245.788 54.7701ZM239.292 52.0153C237.649 50.642 236.585 49.0428 236.056 47.2123L234.135 47.767C234.784 50.0163 236.09 51.9458 238.009 53.5499L239.292 52.0153ZM236.066 47.2501C236.054 47.2013 236.051 47.1594 236.106 47.069L234.394 46.0346C234.083 46.5484 233.977 47.1317 234.125 47.7291L236.066 47.2501ZM236.143 47.0018C236.188 46.9127 236.221 46.8922 236.293 46.8744L235.814 44.9326C235.16 45.0941 234.657 45.5059 234.357 46.1018L236.143 47.0018ZM236.293 46.8744L242.776 45.2753L242.297 43.3335L235.814 44.9326L236.293 46.8744ZM242.776 45.2753C243.163 45.1798 243.331 45.2337 243.388 45.2621L244.288 43.476C243.659 43.1592 242.96 43.17 242.297 43.3335L242.776 45.2753ZM243.468 45.2983C243.692 45.387 243.931 45.5278 244.187 45.7365L245.453 44.1882C245.064 43.8703 244.649 43.6154 244.207 43.4398L243.468 45.2983ZM244.013 45.5535C244.549 46.2849 245.253 46.9213 246.101 47.4716L247.19 45.7941C246.507 45.3508 245.994 44.8735 245.626 44.3712L244.013 45.5535ZM246.129 47.4887C247.076 48.0612 248.214 48.4263 249.51 48.6155L249.799 46.6365C248.694 46.4751 247.827 46.1781 247.163 45.777L246.129 47.4887ZM249.542 48.6196C250.886 48.7719 252.413 48.6181 254.102 48.2014L253.623 46.2596C252.081 46.64 250.803 46.7498 249.767 46.6323L249.542 48.6196ZM254.102 48.2014C256.799 47.5361 258.879 46.5673 260.159 45.1889L258.693 43.8283C257.806 44.7839 256.177 45.6297 253.623 46.2596L254.102 48.2014ZM260.149 45.1991C261.484 43.8004 261.993 42.1415 261.544 40.3226L259.602 40.8016C259.871 41.8908 259.614 42.8629 258.702 43.8181L260.149 45.1991ZM261.544 40.3226C261.223 39.0201 260.482 38.0133 259.321 37.4019L258.389 39.1714C259.001 39.4937 259.405 40.004 259.602 40.8016L261.544 40.3226ZM259.346 37.4155C258.317 36.8355 256.895 36.5067 255.177 36.3555L255.002 38.3478C256.612 38.4895 257.701 38.784 258.364 39.1578L259.346 37.4155ZM255.185 36.3563C253.514 36.1953 251.338 36.1229 248.669 36.1348L248.678 38.1348C251.316 38.123 253.417 38.1952 254.994 38.347L255.185 36.3563ZM248.641 36.1353C245.508 36.2346 242.799 36.0462 240.503 35.5835L240.108 37.5441C242.592 38.0448 245.461 38.2371 248.705 38.1343L248.641 36.1353ZM240.526 35.5883C238.3 35.0864 236.542 34.2139 235.204 33.0042L233.862 34.4876C235.503 35.9711 237.593 36.9772 240.086 37.5393L240.526 35.5883ZM235.225 33.0237C233.932 31.7858 232.983 30.0587 232.419 27.776L230.478 28.255C231.11 30.819 232.217 32.9122 233.842 34.4681L235.225 33.0237ZM232.419 27.776C231.869 25.5428 232 23.4523 232.792 21.4718L230.935 20.7291C229.978 23.1219 229.833 25.6415 230.478 28.255L232.419 27.776ZM232.796 21.4623C233.585 19.43 234.974 17.6356 237.013 16.0836L235.801 14.4923C233.511 16.2361 231.872 18.3167 230.931 20.7385L232.796 21.4623ZM237.024 16.075C239.042 14.4937 241.657 13.2876 244.907 12.486L244.428 10.5442C240.973 11.3964 238.081 12.7056 235.79 14.5008L237.024 16.075ZM244.907 12.486C247.528 11.8394 249.885 11.6318 251.988 11.8374L252.182 9.84684C249.807 9.61465 247.218 9.85572 244.428 10.5442L244.907 12.486ZM251.994 11.8379C254.177 12.038 256.022 12.533 257.55 13.2984L258.445 11.5102C256.649 10.6105 254.552 10.064 252.176 9.84627L251.994 11.8379ZM257.563 13.3047C259.174 14.0833 260.443 15.001 261.397 16.0436L262.873 14.6933C261.715 13.4288 260.226 12.3704 258.433 11.5039L257.563 13.3047ZM261.397 16.0436C262.37 17.1059 262.981 18.1696 263.28 19.2325L265.205 18.6912C264.806 17.2699 264.012 15.938 262.873 14.6933L261.397 16.0436ZM263.272 19.2013C263.286 19.2578 263.293 19.3465 263.21 19.5103L264.996 20.4103C265.259 19.889 265.359 19.3121 265.214 18.7223L263.272 19.2013ZM263.247 19.4431C263.211 19.5034 263.168 19.5466 263.045 19.5771L263.524 21.5188C264.127 21.3699 264.631 21.0214 264.959 20.4775L263.247 19.4431ZM263.045 19.5771L256.259 21.2509L256.738 23.1927L263.524 21.5188L263.045 19.5771ZM256.259 21.2509C255.988 21.3178 255.763 21.3168 255.569 21.2729L255.129 23.2239C255.66 23.3438 256.202 23.325 256.738 23.1927L256.259 21.2509ZM255.569 21.2729C255.465 21.2495 255.31 21.1773 255.113 20.9461L253.59 22.243C253.997 22.72 254.507 23.0837 255.129 23.2239L255.569 21.2729ZM255.244 21.1429C254.588 19.8482 253.381 18.9814 251.815 18.4579L251.181 20.3547C252.418 20.7682 253.112 21.3602 253.46 22.0462L255.244 21.1429ZM251.852 18.471C250.238 17.86 248.386 17.8586 246.355 18.3595L246.834 20.3013C248.601 19.8656 250.017 19.9149 251.144 20.3415L251.852 18.471ZM246.355 18.3595C244.27 18.8739 242.59 19.6927 241.423 20.888L242.854 22.2852C243.671 21.4486 244.962 20.7633 246.834 20.3013L246.355 18.3595ZM241.412 20.8994C240.197 22.1836 239.854 23.7956 240.293 25.5767L242.235 25.0977C241.937 23.89 242.176 23.0016 242.865 22.2738L241.412 20.8994ZM240.293 25.5767C240.582 26.7496 241.19 27.7156 242.128 28.414L243.322 26.8098C242.79 26.4139 242.424 25.8635 242.235 25.0977L240.293 25.5767ZM242.18 28.4506C243.13 29.0671 244.438 29.4348 246.004 29.6289L246.25 27.6441C244.811 27.4657 243.85 27.1502 243.269 26.7731L242.18 28.4506ZM246.039 29.6326C247.606 29.7716 249.625 29.8591 252.089 29.8973L252.12 27.8975C249.68 27.8597 247.714 27.7734 246.215 27.6404L246.039 29.6326ZM252.144 29.8966C255.835 29.7485 258.856 29.9053 261.227 30.3484L261.594 28.3824C259.023 27.9019 255.84 27.7467 252.064 27.8982L252.144 29.8966ZM261.227 30.3484C263.559 30.7844 265.329 31.6271 266.605 32.8227L267.973 31.3629C266.352 29.8455 264.202 28.8699 261.594 28.3824L261.227 30.3484ZM266.614 32.8306C267.871 33.9807 268.809 35.6565 269.373 37.9416L271.315 37.4626C270.683 34.9009 269.584 32.8372 267.964 31.355L266.614 32.8306ZM269.373 37.9416C269.992 40.4509 269.804 42.7297 268.85 44.8223L270.67 45.652C271.829 43.11 272.031 40.3654 271.315 37.4626L269.373 37.9416ZM268.845 44.8341C267.913 46.9496 266.332 48.8229 264.047 50.4441L265.205 52.0752C267.733 50.281 269.575 48.1392 270.675 45.6402L268.845 44.8341ZM264.054 50.4394C261.8 52.0115 258.975 53.2305 255.551 54.0749L256.03 56.0167C259.635 55.1276 262.699 53.8225 265.198 52.0798L264.054 50.4394Z" fill="#19A467"/>
</svg>
