<svg width="572" height="570" viewBox="0 0 572 570" fill="none" xmlns="http://www.w3.org/2000/svg">
<path d="M199.583 546.048L198.643 545.707L198.303 546.647L199.243 546.988L199.583 546.048ZM209.668 550.11L210.574 549.686L210.574 549.686L209.668 550.11ZM207.343 556.526L206.919 555.62L206.919 555.62L207.343 556.526ZM178.648 546.126L179.554 545.702L179.554 545.702L178.648 546.126ZM191.319 543.053L190.978 543.993L191.918 544.334L192.259 543.393L191.319 543.053ZM208.396 517.725C208.554 517.782 208.598 517.845 208.625 517.903L210.437 517.056C210.158 516.461 209.673 516.061 209.078 515.845L208.396 517.725ZM208.625 517.903C208.652 517.962 208.672 518.035 208.615 518.193L210.495 518.874C210.711 518.279 210.715 517.65 210.437 517.056L208.625 517.903ZM208.615 518.193L198.643 545.707L200.524 546.389L210.495 518.874L208.615 518.193ZM199.243 546.988L208.585 550.374L209.267 548.494L199.924 545.108L199.243 546.988ZM208.585 550.374C208.681 550.409 208.724 550.45 208.763 550.533L210.574 549.686C210.308 549.116 209.855 548.707 209.267 548.494L208.585 550.374ZM208.763 550.533C208.802 550.617 208.806 550.676 208.771 550.772L210.652 551.453C210.865 550.864 210.841 550.255 210.574 549.686L208.763 550.533ZM208.771 550.772L207.097 555.392L208.977 556.073L210.652 551.453L208.771 550.772ZM207.097 555.392C207.04 555.549 206.977 555.593 206.919 555.62L207.767 557.432C208.361 557.154 208.761 556.669 208.977 556.073L207.097 555.392ZM206.919 555.62C206.836 555.659 206.776 555.664 206.681 555.629L205.999 557.509C206.588 557.723 207.197 557.698 207.767 557.432L206.919 555.62ZM206.681 555.629L179.782 545.88L179.101 547.761L205.999 557.509L206.681 555.629ZM179.782 545.88C179.625 545.823 179.581 545.761 179.554 545.702L177.742 546.55C178.02 547.145 178.506 547.545 179.101 547.761L179.782 545.88ZM179.554 545.702C179.526 545.644 179.507 545.57 179.564 545.413L177.683 544.731C177.468 545.327 177.464 545.956 177.742 546.55L179.554 545.702ZM179.564 545.413L181.238 540.793L179.358 540.111L177.683 544.731L179.564 545.413ZM181.238 540.793C181.273 540.697 181.314 540.655 181.397 540.615L180.55 538.804C179.98 539.07 179.571 539.523 179.358 540.111L181.238 540.793ZM181.397 540.615C181.456 540.588 181.529 540.568 181.687 540.625L182.368 538.745C181.773 538.529 181.144 538.526 180.55 538.804L181.397 540.615ZM181.687 540.625L190.978 543.993L191.66 542.113L182.368 538.745L181.687 540.625ZM192.259 543.393L202.231 515.879L200.351 515.198L190.379 542.712L192.259 543.393ZM202.231 515.879C202.288 515.722 202.35 515.678 202.409 515.65L201.561 513.839C200.967 514.117 200.566 514.602 200.351 515.198L202.231 515.879ZM202.409 515.65C202.467 515.623 202.541 515.603 202.698 515.66L203.38 513.78C202.785 513.564 202.155 513.561 201.561 513.839L202.409 515.65ZM202.698 515.66L208.396 517.725L209.078 515.845L203.38 513.78L202.698 515.66Z" fill="#19A467"/>
<path d="M184.412 508.242L185.393 508.046L185.385 508.008L185.375 507.971L184.412 508.242ZM184.009 509.518L184.657 510.28L184.699 510.245L184.736 510.205L184.009 509.518ZM155.493 533.773L154.845 533.011L154.812 533.039L154.781 533.071L155.493 533.773ZM145.876 528.374L146.846 528.617L146.856 528.574L146.863 528.531L145.876 528.374ZM151.728 491.399L150.763 491.136L150.749 491.188L150.74 491.243L151.728 491.399ZM152.607 490.39L152.337 489.427L152.3 489.437L152.264 489.451L152.607 490.39ZM159.294 494.206L160.257 493.935L160.257 493.935L159.294 494.206ZM159.375 495.065L158.393 494.877L158.389 494.899L158.385 494.921L159.375 495.065ZM158.429 501.547L157.44 501.402L157.34 502.083L157.94 502.419L158.429 501.547ZM171.856 509.083L171.366 509.955L171.966 510.292L172.494 509.853L171.856 509.083ZM176.896 504.9L177.535 505.669L177.552 505.655L177.569 505.64L176.896 504.9ZM166.647 514.236L167.301 514.993L168.378 514.062L167.136 513.364L166.647 514.236ZM156.791 508.704L157.28 507.832L156.042 507.138L155.805 508.537L156.791 508.704ZM153.998 525.169L153.012 525.002L152.547 527.746L154.652 525.926L153.998 525.169ZM183.369 508.427C183.414 508.452 183.429 508.47 183.433 508.475C183.436 508.479 183.443 508.487 183.45 508.512L185.375 507.971C185.215 507.402 184.849 506.965 184.348 506.683L183.369 508.427ZM183.432 508.438C183.458 508.571 183.433 508.613 183.425 508.627L185.169 509.606C185.446 509.113 185.498 508.571 185.393 508.046L183.432 508.438ZM183.425 508.627C183.368 508.729 183.318 508.793 183.282 508.832L184.736 510.205C184.906 510.025 185.048 509.821 185.169 509.606L183.425 508.627ZM183.361 508.757L154.845 533.011L156.141 534.534L184.657 510.28L183.361 508.757ZM154.781 533.071C154.633 533.221 154.45 533.325 154.201 533.38L154.628 535.333C155.234 535.201 155.771 534.916 156.206 534.474L154.781 533.071ZM154.201 533.38C154.081 533.406 153.865 533.403 153.499 533.197L152.521 534.941C153.171 535.306 153.891 535.495 154.628 535.333L154.201 533.38ZM153.499 533.197L147.405 529.777L146.426 531.521L152.521 534.941L153.499 533.197ZM147.405 529.777C147.039 529.571 146.924 529.389 146.884 529.273L144.994 529.926C145.24 530.639 145.776 531.156 146.426 531.521L147.405 529.777ZM146.884 529.273C146.801 529.031 146.795 528.821 146.846 528.617L144.905 528.131C144.755 528.733 144.791 529.339 144.994 529.926L146.884 529.273ZM146.863 528.531L152.715 491.555L150.74 491.243L144.888 528.218L146.863 528.531ZM152.692 491.662C152.706 491.611 152.735 491.535 152.793 491.433L151.049 490.454C150.928 490.67 150.828 490.897 150.763 491.136L152.692 491.662ZM152.793 491.433C152.801 491.419 152.824 491.375 152.951 491.329L152.264 489.451C151.761 489.635 151.326 489.961 151.049 490.454L152.793 491.433ZM152.878 491.353C152.903 491.346 152.914 491.347 152.918 491.347C152.924 491.348 152.948 491.352 152.992 491.377L153.971 489.633C153.47 489.352 152.906 489.267 152.337 489.427L152.878 491.353ZM152.992 491.377L157.944 494.156L158.923 492.412L153.971 489.633L152.992 491.377ZM157.944 494.156C158.118 494.254 158.219 494.338 158.275 494.398C158.302 494.427 158.316 494.447 158.323 494.46C158.327 494.466 158.329 494.47 158.33 494.472C158.331 494.475 158.331 494.476 158.331 494.476L160.257 493.935C160.058 493.227 159.513 492.744 158.923 492.412L157.944 494.156ZM158.331 494.476C158.368 494.606 158.385 494.704 158.392 494.775C158.395 494.809 158.395 494.835 158.395 494.852C158.394 494.87 158.393 494.877 158.393 494.877L160.357 495.254C160.442 494.813 160.375 494.355 160.257 493.935L158.331 494.476ZM158.385 494.921L157.44 501.402L159.419 501.691L160.364 495.21L158.385 494.921ZM157.94 502.419L171.366 509.955L172.345 508.211L158.919 500.675L157.94 502.419ZM172.494 509.853L177.535 505.669L176.258 504.13L171.217 508.314L172.494 509.853ZM177.569 505.64C177.568 505.64 177.574 505.635 177.589 505.626C177.603 505.616 177.625 505.603 177.656 505.588C177.72 505.557 177.813 505.52 177.943 505.484L177.402 503.559C176.981 503.677 176.556 503.858 176.224 504.16L177.569 505.64ZM177.943 505.484C177.943 505.484 177.944 505.484 177.947 505.483C177.949 505.483 177.954 505.482 177.961 505.482C177.975 505.482 178 505.483 178.039 505.491C178.119 505.508 178.244 505.551 178.417 505.648L179.396 503.904C178.806 503.573 178.109 503.36 177.402 503.559L177.943 505.484ZM178.417 505.648L183.369 508.427L184.348 506.683L179.396 503.904L178.417 505.648ZM167.136 513.364L157.28 507.832L156.301 509.576L166.157 515.108L167.136 513.364ZM155.805 508.537L153.012 525.002L154.984 525.337L157.777 508.872L155.805 508.537ZM154.652 525.926L167.301 514.993L165.993 513.48L153.344 524.413L154.652 525.926Z" fill="#19A467"/>
<path d="M144.441 484.903L145.436 484.809L145.436 484.809L144.441 484.903ZM120.574 513.77L120.479 512.774L120.479 512.774L120.574 513.77ZM115.061 509.212L116.057 509.118L116.057 509.118L115.061 509.212ZM115.065 508.436L116.04 508.661L116.052 508.61L116.058 508.557L115.065 508.436ZM118.338 481.599L119.331 481.72L119.744 478.329L117.568 480.962L118.338 481.599ZM103.153 499.366L103.058 498.37L103.058 498.37L103.153 499.366ZM97.3879 494.599L98.3835 494.505L98.3835 494.505L97.3879 494.599ZM121.255 465.733L121.161 464.737L121.127 464.74L121.095 464.746L121.255 465.733ZM126.81 470.325L127.808 470.373L127.812 470.302L127.805 470.231L126.81 470.325ZM126.806 471.101L127.8 471.21L127.811 471.108L127.801 471.007L126.806 471.101ZM123.943 497.356L122.949 497.248L122.587 500.565L124.714 497.993L123.943 497.356ZM143.29 484.753C143.419 484.86 143.439 484.933 143.445 484.997L145.436 484.809C145.375 484.155 145.052 483.615 144.564 483.212L143.29 484.753ZM143.445 484.997C143.451 485.062 143.445 485.138 143.339 485.267L144.88 486.541C145.283 486.053 145.498 485.462 145.436 484.809L143.445 484.997ZM143.339 485.267L120.724 512.619L122.265 513.893L144.88 486.541L143.339 485.267ZM120.724 512.619C120.617 512.748 120.544 512.768 120.479 512.774L120.668 514.765C121.322 514.703 121.862 514.381 122.265 513.893L120.724 512.619ZM120.479 512.774C120.415 512.78 120.339 512.774 120.21 512.667L118.936 514.209C119.424 514.612 120.015 514.827 120.668 514.765L120.479 512.774ZM120.21 512.667L116.381 509.501L115.106 511.043L118.936 514.209L120.21 512.667ZM116.381 509.501C116.227 509.374 116.143 509.274 116.098 509.205C116.077 509.172 116.067 509.149 116.062 509.135C116.059 509.129 116.058 509.124 116.058 509.122C116.057 509.119 116.057 509.118 116.057 509.118L114.066 509.306C114.135 510.038 114.585 510.611 115.106 511.043L116.381 509.501ZM116.057 509.118C116.042 508.96 116.036 508.84 116.037 508.754C116.037 508.661 116.045 508.639 116.04 508.661L114.091 508.211C114.015 508.539 114.031 508.938 114.066 509.306L116.057 509.118ZM116.058 508.557L119.331 481.72L117.346 481.478L114.073 508.315L116.058 508.557ZM117.568 480.962L103.303 498.215L104.844 499.489L119.109 482.237L117.568 480.962ZM103.303 498.215C103.196 498.344 103.123 498.364 103.058 498.37L103.247 500.361C103.901 500.3 104.441 499.977 104.844 499.489L103.303 498.215ZM103.058 498.37C102.967 498.379 102.91 498.363 102.831 498.298L101.557 499.84C102.039 500.239 102.621 500.421 103.247 500.361L103.058 498.37ZM102.831 498.298L98.539 494.75L97.2646 496.291L101.557 499.84L102.831 498.298ZM98.539 494.75C98.41 494.643 98.3896 494.569 98.3835 494.505L96.3924 494.694C96.4543 495.347 96.7765 495.887 97.2646 496.291L98.539 494.75ZM98.3835 494.505C98.3774 494.441 98.3836 494.365 98.4903 494.236L96.9489 492.961C96.5454 493.449 96.3305 494.041 96.3924 494.694L98.3835 494.505ZM98.4903 494.236L121.105 466.884L119.564 465.61L96.9489 492.961L98.4903 494.236ZM121.105 466.884C121.172 466.802 121.256 466.746 121.415 466.72L121.095 464.746C120.49 464.844 119.96 465.13 119.564 465.61L121.105 466.884ZM121.349 466.728C121.414 466.722 121.49 466.728 121.619 466.835L122.893 465.294C122.405 464.89 121.814 464.675 121.161 464.737L121.349 466.728ZM121.619 466.835L125.49 470.036L126.765 468.495L122.893 465.294L121.619 466.835ZM125.49 470.036C125.644 470.163 125.728 470.264 125.773 470.332C125.794 470.366 125.804 470.389 125.809 470.402C125.811 470.409 125.813 470.413 125.813 470.416C125.814 470.418 125.814 470.419 125.814 470.42L127.805 470.231C127.736 469.499 127.286 468.926 126.765 468.495L125.49 470.036ZM125.811 470.278C125.793 470.643 125.788 470.964 125.81 471.196L127.801 471.007C127.794 470.931 127.791 470.735 127.808 470.373L125.811 470.278ZM125.811 470.993L122.949 497.248L124.937 497.465L127.8 471.21L125.811 470.993ZM124.714 497.993L138.526 481.288L136.985 480.013L123.172 496.719L124.714 497.993ZM138.526 481.288C138.633 481.159 138.706 481.138 138.77 481.132L138.582 479.141C137.928 479.203 137.388 479.525 136.985 480.013L138.526 481.288ZM138.77 481.132C138.835 481.126 138.911 481.132 139.04 481.239L140.314 479.698C139.826 479.294 139.235 479.079 138.582 479.141L138.77 481.132ZM139.04 481.239L143.29 484.753L144.564 483.212L140.314 479.698L139.04 481.239Z" fill="#19A467"/>
<path d="M110.216 455.417L111.211 455.508L111.211 455.508L110.216 455.417ZM81.4359 479.389L81.5267 478.393L81.5267 478.393L81.4359 479.389ZM76.8582 473.893L77.8541 473.984L77.8541 473.984L76.8582 473.893ZM77.0052 473.131L77.9212 473.532L77.9425 473.484L77.9585 473.433L77.0052 473.131ZM85.1693 447.358L86.1226 447.66L87.1542 444.403L84.5293 446.59L85.1693 447.358ZM66.9689 462.021L67.0596 461.025L67.0596 461.025L66.9689 462.021ZM62.1815 456.273L63.1773 456.364L63.1773 456.364L62.1815 456.273ZM90.9611 432.301L91.0518 431.305L91.0187 431.302L90.9854 431.301L90.9611 432.301ZM95.5737 437.839L96.5468 438.07L96.5632 438L96.5696 437.93L95.5737 437.839ZM95.4268 438.601L96.3839 438.891L96.4134 438.793L96.4226 438.692L95.4268 438.601ZM87.7731 463.878L86.816 463.588L85.8489 466.782L88.4131 464.646L87.7731 463.878ZM109.112 455.057C109.219 455.186 109.226 455.262 109.22 455.326L111.211 455.508C111.271 454.854 111.054 454.264 110.649 453.777L109.112 455.057ZM109.22 455.326C109.214 455.391 109.194 455.464 109.065 455.571L110.345 457.108C110.832 456.703 111.152 456.161 111.211 455.508L109.22 455.326ZM109.065 455.571L81.7957 478.285L83.0757 479.822L110.345 457.108L109.065 455.571ZM81.7957 478.285C81.667 478.393 81.5909 478.399 81.5267 478.393L81.3452 480.385C81.9987 480.445 82.5891 480.227 83.0757 479.822L81.7957 478.285ZM81.5267 478.393C81.4625 478.387 81.3888 478.367 81.2816 478.239L79.7449 479.519C80.1502 480.005 80.6917 480.325 81.3452 480.385L81.5267 478.393ZM81.2816 478.239L78.1017 474.421L76.5649 475.701L79.7449 479.519L81.2816 478.239ZM78.1017 474.421C77.9742 474.268 77.9095 474.153 77.8787 474.077C77.8638 474.041 77.858 474.016 77.8557 474.002C77.8545 473.996 77.8542 473.991 77.854 473.988C77.8539 473.986 77.854 473.984 77.8541 473.984L75.8623 473.803C75.7956 474.535 76.1318 475.181 76.5649 475.701L78.1017 474.421ZM77.8541 473.984C77.8685 473.826 77.8851 473.708 77.9014 473.623C77.919 473.532 77.9304 473.511 77.9212 473.532L76.0891 472.73C75.9538 473.039 75.8959 473.434 75.8623 473.803L77.8541 473.984ZM77.9585 473.433L86.1226 447.66L84.216 447.056L76.0519 472.829L77.9585 473.433ZM84.5293 446.59L67.3286 460.917L68.6086 462.454L85.8093 448.126L84.5293 446.59ZM67.3286 460.917C67.1999 461.024 67.1239 461.031 67.0596 461.025L66.8781 463.017C67.5316 463.076 68.122 462.859 68.6086 462.454L67.3286 460.917ZM67.0596 461.025C66.9679 461.016 66.9147 460.99 66.8495 460.912L65.3128 462.192C65.7136 462.673 66.2521 462.959 66.8781 463.017L67.0596 461.025ZM66.8495 460.912L63.2852 456.633L61.7484 457.913L65.3128 462.192L66.8495 460.912ZM63.2852 456.633C63.178 456.504 63.1715 456.428 63.1773 456.364L61.1856 456.182C61.126 456.836 61.3431 457.426 61.7484 457.913L63.2852 456.633ZM63.1773 456.364C63.1832 456.3 63.2033 456.226 63.332 456.119L62.052 454.582C61.5654 454.987 61.2451 455.529 61.1856 456.182L63.1773 456.364ZM63.332 456.119L90.6013 433.405L89.3213 431.868L62.052 454.582L63.332 456.119ZM90.6013 433.405C90.6825 433.337 90.7755 433.297 90.9367 433.301L90.9854 431.301C90.373 431.287 89.7995 431.47 89.3213 431.868L90.6013 433.405ZM90.8703 433.297C90.9345 433.303 91.0082 433.323 91.1154 433.452L92.6521 432.172C92.2468 431.685 91.7053 431.365 91.0518 431.305L90.8703 433.297ZM91.1154 433.452L94.3303 437.311L95.867 436.031L92.6521 432.172L91.1154 433.452ZM94.3303 437.311C94.4577 437.464 94.5225 437.579 94.5532 437.655C94.5681 437.691 94.5739 437.716 94.5763 437.73C94.5774 437.737 94.5778 437.741 94.5779 437.744C94.578 437.747 94.5779 437.748 94.5779 437.748L96.5696 437.93C96.6363 437.198 96.3001 436.551 95.867 436.031L94.3303 437.311ZM94.6007 437.608C94.5165 437.964 94.452 438.279 94.4309 438.51L96.4226 438.692C96.4296 438.615 96.4631 438.423 96.5468 438.07L94.6007 437.608ZM94.4697 438.311L86.816 463.588L88.7302 464.168L96.3839 438.891L94.4697 438.311ZM88.4131 464.646L105.068 450.773L103.788 449.237L87.1331 463.11L88.4131 464.646ZM105.068 450.773C105.197 450.666 105.273 450.66 105.337 450.665L105.519 448.674C104.865 448.614 104.275 448.831 103.788 449.237L105.068 450.773ZM105.337 450.665C105.402 450.671 105.475 450.691 105.582 450.82L107.119 449.54C106.714 449.053 106.172 448.733 105.519 448.674L105.337 450.665ZM105.582 450.82L109.112 455.057L110.649 453.777L107.119 449.54L105.582 450.82Z" fill="#19A467"/>
<path d="M82.2927 420.345L83.2583 420.605L83.2583 420.605L82.2927 420.345ZM49.8353 439.039L50.0951 438.073L50.0951 438.073L49.8353 439.039ZM36.5102 415.902L35.5445 415.642L36.5102 415.902ZM41.9513 412.768L42.2111 411.803L42.2111 411.803L41.9513 412.768ZM51.6019 428.759L50.7353 429.258L51.2344 430.125L52.101 429.625L51.6019 428.759ZM59.0302 424.481L59.5292 425.347L60.3958 424.848L59.8967 423.982L59.0302 424.481ZM50.6415 409.149L49.6758 408.89L49.6758 408.89L50.6415 409.149ZM55.7987 406.179L56.0585 405.214L56.0585 405.214L55.7987 406.179ZM64.8498 421.129L63.9832 421.628L64.4823 422.495L65.3489 421.996L64.8498 421.129ZM72.5147 416.715L73.0137 417.581L73.8803 417.082L73.3812 416.215L72.5147 416.715ZM63.3084 399.964L64.2741 400.224L64.2741 400.224L63.3084 399.964ZM68.7496 396.83L68.4897 397.796L68.4897 397.796L68.7496 396.83ZM81.2668 419.802C81.3504 419.947 81.3438 420.023 81.327 420.085L83.2583 420.605C83.4288 419.971 83.316 419.353 82.9999 418.804L81.2668 419.802ZM81.327 420.085C81.3103 420.148 81.2778 420.217 81.1327 420.3L82.1308 422.033C82.6796 421.717 83.0878 421.239 83.2583 420.605L81.327 420.085ZM81.1327 420.3L50.3786 438.013L51.3768 439.746L82.1308 422.033L81.1327 420.3ZM50.3786 438.013C50.2335 438.096 50.1574 438.09 50.0951 438.073L49.5754 440.004C50.2091 440.175 50.828 440.062 51.3768 439.746L50.3786 438.013ZM50.0951 438.073C50.0329 438.056 49.9637 438.024 49.8801 437.879L48.147 438.877C48.4631 439.426 48.9418 439.834 49.5754 440.004L50.0951 438.073ZM49.8801 437.879L37.536 416.445L35.8029 417.443L48.147 438.877L49.8801 437.879ZM37.536 416.445C37.4524 416.3 37.4591 416.224 37.4758 416.162L35.5445 415.642C35.374 416.276 35.4868 416.895 35.8029 417.443L37.536 416.445ZM37.4758 416.162C37.4926 416.1 37.525 416.03 37.6701 415.947L36.672 414.214C36.1232 414.53 35.715 415.008 35.5445 415.642L37.4758 416.162ZM37.6701 415.947L41.4553 413.767L40.4571 412.034L36.672 414.214L37.6701 415.947ZM41.4553 413.767C41.5435 413.716 41.6025 413.71 41.6914 413.734L42.2111 411.803C41.6041 411.639 40.9997 411.721 40.4571 412.034L41.4553 413.767ZM41.6914 413.734C41.7537 413.751 41.8228 413.783 41.9064 413.928L43.6395 412.93C43.3234 412.381 42.8448 411.973 42.2111 411.803L41.6914 413.734ZM41.9064 413.928L50.7353 429.258L52.4684 428.26L43.6395 412.93L41.9064 413.928ZM52.101 429.625L59.5292 425.347L58.5311 423.614L51.1028 427.892L52.101 429.625ZM59.8967 423.982L51.6673 409.693L49.9342 410.691L58.1636 424.98L59.8967 423.982ZM51.6673 409.693C51.5837 409.548 51.5903 409.472 51.6071 409.409L49.6758 408.89C49.5053 409.523 49.6181 410.142 49.9342 410.691L51.6673 409.693ZM51.6071 409.409C51.6239 409.347 51.6563 409.278 51.8014 409.194L50.8033 407.461C50.2545 407.777 49.8463 408.256 49.6758 408.89L51.6071 409.409ZM51.8014 409.194L55.3027 407.178L54.3045 405.445L50.8033 407.461L51.8014 409.194ZM55.3027 407.178C55.3909 407.127 55.4499 407.121 55.5388 407.145L56.0585 405.214C55.4515 405.05 54.8471 405.132 54.3045 405.445L55.3027 407.178ZM55.5388 407.145C55.6011 407.162 55.6702 407.194 55.7538 407.339L57.4869 406.341C57.1708 405.792 56.6922 405.384 56.0585 405.214L55.5388 407.145ZM55.7538 407.339L63.9832 421.628L65.7163 420.63L57.4869 406.341L55.7538 407.339ZM65.3489 421.996L73.0137 417.581L72.0156 415.848L64.3507 420.262L65.3489 421.996ZM73.3812 416.215L64.3343 400.507L62.6012 401.505L71.6481 417.214L73.3812 416.215ZM64.3343 400.507C64.2507 400.362 64.2573 400.286 64.2741 400.224L62.3428 399.704C62.1723 400.338 62.2851 400.957 62.6012 401.505L64.3343 400.507ZM64.2741 400.224C64.2909 400.161 64.3233 400.092 64.4684 400.009L63.4703 398.276C62.9215 398.592 62.5133 399.07 62.3428 399.704L64.2741 400.224ZM64.4684 400.009L68.2062 397.856L67.2081 396.123L63.4703 398.276L64.4684 400.009ZM68.2062 397.856C68.3514 397.772 68.4274 397.779 68.4897 397.796L69.0094 395.865C68.3757 395.694 67.7569 395.807 67.2081 396.123L68.2062 397.856ZM68.4897 397.796C68.552 397.813 68.6211 397.845 68.7047 397.99L70.4378 396.992C70.1217 396.443 69.6431 396.035 69.0094 395.865L68.4897 397.796ZM68.7047 397.99L81.2668 419.802L82.9999 418.804L70.4378 396.992L68.7047 397.99Z" fill="#19A467"/>
<path d="M62.816 385.167L63.7233 385.587L63.7233 385.587L62.816 385.167ZM27.65 398.062L28.0705 397.154L28.0705 397.154L27.65 398.062ZM21.2418 372.497L22.189 372.818L22.1916 372.81L21.2418 372.497ZM35.2587 365.206L35.5242 364.242L35.5242 364.242L35.2587 365.206ZM40.7677 368.652L40.0278 369.325L40.7919 370.165L41.5288 369.301L40.7677 368.652ZM50.933 356.725L50.2052 356.039L50.188 356.057L50.1719 356.076L50.933 356.725ZM52.3222 356.39L52.7426 355.483L52.7078 355.466L52.6718 355.453L52.3222 356.39ZM55.0443 364.289L55.9283 364.757L55.9406 364.734L55.9516 364.71L55.0443 364.289ZM54.366 365.294L53.6382 364.608L53.6293 364.618L53.6207 364.627L54.366 365.294ZM44.9201 375.853L44.1748 375.186L43.7746 375.633L43.9812 376.197L44.9201 375.853ZM47.1945 382.056L46.2557 382.4L46.5999 383.339L47.5388 382.994L47.1945 382.056ZM40.6842 384.443L41.0285 385.382L41.9673 385.037L41.6231 384.098L40.6842 384.443ZM35.4741 374.199L35.0191 375.089L35.0275 375.094L35.0359 375.098L35.4741 374.199ZM30.8418 388.052L29.903 388.396L30.2472 389.335L31.1861 388.991L30.8418 388.052ZM61.8976 384.457C61.9553 384.614 61.9358 384.688 61.9087 384.746L63.7233 385.587C63.9992 384.992 63.9934 384.363 63.7754 383.768L61.8976 384.457ZM61.9087 384.746C61.8816 384.805 61.8378 384.868 61.6806 384.925L62.3691 386.803C62.9637 386.585 63.4474 386.183 63.7233 385.587L61.9087 384.746ZM61.6806 384.925L28.36 397.143L29.0486 399.021L62.3691 386.803L61.6806 384.925ZM28.36 397.143C28.2028 397.201 28.129 397.181 28.0705 397.154L27.2296 398.969C27.8249 399.245 28.454 399.239 29.0486 399.021L28.36 397.143ZM28.0705 397.154C28.0119 397.127 27.9494 397.084 27.8917 396.926L26.0139 397.615C26.232 398.209 26.6342 398.693 27.2296 398.969L28.0705 397.154ZM27.8917 396.926L22.9105 383.342L21.0327 384.03L26.0139 397.615L27.8917 396.926ZM22.9105 383.342C21.3951 379.209 21.2044 375.724 22.189 372.818L20.2947 372.176C19.1195 375.645 19.4153 379.619 21.0327 384.03L22.9105 383.342ZM22.1916 372.81C23.1244 369.978 25.2304 367.912 28.691 366.644L28.0025 364.766C24.0813 366.204 21.4507 368.666 20.292 372.184L22.1916 372.81ZM28.691 366.644C31.0324 365.785 33.1204 365.654 34.9931 366.17L35.5242 364.242C33.1706 363.593 30.6506 363.795 28.0025 364.766L28.691 366.644ZM34.9931 366.17C36.913 366.699 38.5879 367.741 40.0278 369.325L41.5077 367.979C39.8285 366.132 37.8307 364.877 35.5242 364.242L34.9931 366.17ZM41.5288 369.301L51.694 357.374L50.1719 356.076L40.0066 368.003L41.5288 369.301ZM51.6607 357.411C51.7564 357.309 51.8006 357.297 51.7847 357.303L51.0962 355.425C50.7385 355.557 50.4444 355.785 50.2052 356.039L51.6607 357.411ZM51.7847 357.303C51.8003 357.297 51.8457 357.279 51.9725 357.327L52.6718 355.453C52.1698 355.266 51.6274 355.231 51.0962 355.425L51.7847 357.303ZM51.9017 357.297C51.9253 357.308 51.9327 357.316 51.9359 357.32C51.9399 357.324 51.9552 357.342 51.9728 357.39L53.8506 356.702C53.6526 356.162 53.2792 355.731 52.7426 355.483L51.9017 357.297ZM51.9728 357.39L54.0593 363.08L55.937 362.392L53.8506 356.702L51.9728 357.39ZM54.0593 363.08C54.2318 363.551 54.181 363.774 54.137 363.869L55.9516 364.71C56.2973 363.964 56.2157 363.152 55.937 362.392L54.0593 363.08ZM54.1604 363.822C53.9545 364.211 53.7772 364.461 53.6382 364.608L55.0938 365.98C55.4013 365.654 55.6762 365.234 55.9283 364.757L54.1604 363.822ZM53.6207 364.627L44.1748 375.186L45.6654 376.52L55.1112 365.961L53.6207 364.627ZM43.9812 376.197L46.2557 382.4L48.1334 381.711L45.859 375.508L43.9812 376.197ZM47.5388 382.994L59.3804 378.652L58.6919 376.775L46.8503 381.117L47.5388 382.994ZM59.3804 378.652C59.5377 378.595 59.6115 378.614 59.67 378.641L60.5109 376.827C59.9155 376.551 59.2865 376.557 58.6919 376.775L59.3804 378.652ZM59.67 378.641C59.7285 378.668 59.7911 378.712 59.8488 378.869L61.7265 378.181C61.5085 377.586 61.1063 377.102 60.5109 376.827L59.67 378.641ZM59.8488 378.869L61.8976 384.457L63.7754 383.768L61.7265 378.181L59.8488 378.869ZM41.6231 384.098L39.2171 377.537L37.3393 378.225L39.7453 384.787L41.6231 384.098ZM39.2171 377.537C38.4844 375.539 37.4213 374.036 35.9122 373.3L35.0359 375.098C35.8872 375.513 36.6935 376.464 37.3393 378.225L39.2171 377.537ZM35.9291 373.308C34.4344 372.545 32.7705 372.555 31.0339 373.192L31.7225 375.069C33.0616 374.578 34.1283 374.634 35.0191 375.089L35.9291 373.308ZM31.0339 373.192C29.3063 373.825 28.0182 374.871 27.32 376.377L29.1346 377.218C29.5618 376.296 30.3743 375.564 31.7225 375.069L31.0339 373.192ZM27.32 376.377C26.5992 377.933 26.7508 379.8 27.4969 381.834L29.3747 381.146C28.7173 379.353 28.7299 378.092 29.1346 377.218L27.32 376.377ZM27.4969 381.834L29.903 388.396L31.7807 387.707L29.3747 381.146L27.4969 381.834ZM31.1861 388.991L41.0285 385.382L40.3399 383.504L30.4976 387.113L31.1861 388.991Z" fill="#19A467"/>
<path d="M14.0584 320.624L13.9545 319.629L12.9599 319.733L13.0638 320.727L14.0584 320.624ZM14.8073 331.47L15.584 332.1L15.584 332.1L14.8073 331.47ZM8.0192 332.179L8.64901 331.402L8.64901 331.402L8.0192 332.179ZM4.84785 301.823L5.6246 302.453L5.6246 302.453L4.84785 301.823ZM13.145 311.881L12.1504 311.984L12.2543 312.979L13.2489 312.875L13.145 311.881ZM43.3868 316.187C43.4042 316.354 43.3672 316.421 43.3266 316.471L44.8801 317.73C45.2934 317.221 45.4418 316.609 45.376 315.979L43.3868 316.187ZM43.3266 316.471C43.286 316.521 43.2283 316.571 43.0617 316.588L43.2695 318.577C43.8994 318.511 44.4668 318.24 44.8801 317.73L43.3266 316.471ZM43.0617 316.588L13.9545 319.629L14.1623 321.618L43.2695 318.577L43.0617 316.588ZM13.0638 320.727L14.0964 330.611L16.0855 330.403L15.053 320.52L13.0638 320.727ZM14.0964 330.611C14.1069 330.712 14.0885 330.768 14.0305 330.84L15.584 332.1C15.9799 331.611 16.1506 331.026 16.0855 330.403L14.0964 330.611ZM14.0305 330.84C13.9725 330.912 13.9211 330.941 13.8199 330.952L14.0277 332.941C14.6505 332.876 15.1881 332.588 15.584 332.1L14.0305 330.84ZM13.8199 330.952L8.93249 331.462L9.1403 333.452L14.0277 332.941L13.8199 330.952ZM8.93249 331.462C8.76591 331.48 8.6991 331.443 8.64901 331.402L7.3894 332.956C7.8991 333.369 8.51041 333.517 9.1403 333.452L8.93249 331.462ZM8.64901 331.402C8.57746 331.344 8.54779 331.293 8.53721 331.192L6.54804 331.399C6.6131 332.022 6.90115 332.56 7.3894 332.956L8.64901 331.402ZM8.53721 331.192L5.56442 302.736L3.57524 302.944L6.54804 331.399L8.53721 331.192ZM5.56442 302.736C5.54702 302.57 5.58398 302.503 5.6246 302.453L4.0711 301.193C3.65782 301.703 3.50944 302.314 3.57524 302.944L5.56442 302.736ZM5.6246 302.453C5.66521 302.403 5.72294 302.353 5.88952 302.335L5.68171 300.346C5.05182 300.412 4.48437 300.683 4.07109 301.193L5.6246 302.453ZM5.88952 302.335L10.7769 301.825L10.5691 299.835L5.68171 300.346L5.88952 302.335ZM10.7769 301.825C10.8782 301.814 10.9345 301.832 11.0061 301.89L12.2657 300.337C11.7775 299.941 11.1919 299.77 10.5691 299.835L10.7769 301.825ZM11.0061 301.89C11.0562 301.931 11.1062 301.989 11.1236 302.155L13.1127 301.948C13.0469 301.318 12.7754 300.75 12.2657 300.337L11.0061 301.89ZM11.1236 302.155L12.1504 311.984L14.1396 311.777L13.1127 301.948L11.1236 302.155ZM13.2489 312.875L42.3561 309.834L42.1483 307.845L13.0411 310.886L13.2489 312.875ZM42.3561 309.834C42.5227 309.817 42.5895 309.854 42.6396 309.894L43.8992 308.341C43.3895 307.928 42.7782 307.779 42.1483 307.845L42.3561 309.834ZM42.6396 309.894C42.6897 309.935 42.7397 309.993 42.7571 310.159L44.7462 309.952C44.6804 309.322 44.4089 308.754 43.8992 308.341L42.6396 309.894ZM42.7571 310.159L43.3868 316.187L45.376 315.979L44.7462 309.952L42.7571 310.159Z" fill="#19A467"/>
<path d="M41.4006 286.439L42.0569 287.194L42.0569 287.194L41.4006 286.439ZM4.03524 283.84L4.78971 283.184L4.7897 283.184L4.03524 283.84ZM4.58456 275.943L5.2409 276.697L5.2409 276.697L4.58456 275.943ZM19.2086 276.577L19.1392 277.574L20.1368 277.643L20.2062 276.646L19.2086 276.577ZM20.2353 261.816L21.2329 261.885L21.3022 260.887L20.3046 260.818L20.2353 261.816ZM5.66425 260.419L6.41872 259.763L6.41871 259.763L5.66425 260.419ZM6.21357 252.521L6.8699 253.276L6.86991 253.276L6.21357 252.521ZM43.5789 255.12L42.8244 255.776L42.8244 255.776L43.5789 255.12ZM43.0296 263.018L42.3732 262.263L42.3732 262.263L43.0296 263.018ZM27.9698 262.354L28.0392 261.356L27.0416 261.287L26.9722 262.284L27.9698 262.354ZM26.9431 277.114L25.9455 277.045L25.8761 278.043L26.8737 278.112L26.9431 277.114ZM40.8525 285.416C40.8408 285.583 40.7929 285.642 40.7442 285.685L42.0569 287.194C42.552 286.763 42.8037 286.187 42.8476 285.555L40.8525 285.416ZM40.7442 285.685C40.6956 285.727 40.6301 285.766 40.463 285.755L40.3242 287.75C40.956 287.794 41.5618 287.624 42.0569 287.194L40.7442 285.685ZM40.463 285.755L5.05854 283.292L4.91977 285.287L40.3242 287.75L40.463 285.755ZM5.05854 283.292C4.89146 283.281 4.83203 283.233 4.78971 283.184L3.28077 284.497C3.71146 284.992 4.28798 285.244 4.91977 285.287L5.05854 283.292ZM4.7897 283.184C4.74738 283.135 4.70812 283.07 4.71974 282.903L2.72456 282.764C2.68062 283.396 2.85008 284.002 3.28078 284.497L4.7897 283.184ZM4.71974 282.903L5.13267 276.966L3.13749 276.827L2.72456 282.764L4.71974 282.903ZM5.13267 276.966C5.1443 276.799 5.19224 276.739 5.2409 276.697L3.92822 275.188C3.43314 275.619 3.18144 276.195 3.13749 276.827L5.13267 276.966ZM5.2409 276.697C5.28955 276.655 5.35504 276.615 5.52212 276.627L5.66089 274.632C5.0291 274.588 4.42329 274.757 3.92821 275.188L5.2409 276.697ZM5.52212 276.627L19.1392 277.574L19.278 275.579L5.66089 274.632L5.52212 276.627ZM20.2062 276.646L21.2329 261.885L19.2377 261.746L18.211 276.507L20.2062 276.646ZM20.3046 260.818L6.68755 259.871L6.54878 261.866L20.1659 262.813L20.3046 260.818ZM6.68755 259.871C6.52047 259.859 6.46104 259.811 6.41872 259.763L4.90978 261.075C5.34047 261.57 5.91698 261.822 6.54878 261.866L6.68755 259.871ZM6.41871 259.763C6.37639 259.714 6.33713 259.649 6.34875 259.481L4.35357 259.343C4.30963 259.974 4.47909 260.58 4.90979 261.075L6.41871 259.763ZM6.34875 259.481L6.76168 253.544L4.7665 253.406L4.35357 259.343L6.34875 259.481ZM6.76168 253.544C6.7733 253.377 6.82125 253.318 6.8699 253.276L5.55723 251.767C5.06214 252.197 4.81045 252.774 4.7665 253.406L6.76168 253.544ZM6.86991 253.276C6.91856 253.233 6.98405 253.194 7.15113 253.206L7.2899 251.21C6.65811 251.166 6.0523 251.336 5.55722 251.767L6.86991 253.276ZM7.15113 253.206L42.5556 255.668L42.6944 253.673L7.2899 251.21L7.15113 253.206ZM42.5556 255.668C42.7227 255.68 42.7821 255.728 42.8244 255.776L44.3334 254.464C43.9027 253.969 43.3262 253.717 42.6944 253.673L42.5556 255.668ZM42.8244 255.776C42.8668 255.825 42.906 255.89 42.8944 256.057L44.8896 256.196C44.9335 255.564 44.7641 254.959 44.3334 254.464L42.8244 255.776ZM42.8944 256.057L42.4815 261.995L44.4766 262.133L44.8896 256.196L42.8944 256.057ZM42.4815 261.995C42.4698 262.162 42.4219 262.221 42.3732 262.263L43.6859 263.772C44.181 263.342 44.4327 262.765 44.4766 262.133L42.4815 261.995ZM42.3732 262.263C42.3246 262.306 42.2591 262.345 42.092 262.333L41.9532 264.329C42.585 264.372 43.1908 264.203 43.6859 263.772L42.3732 262.263ZM42.092 262.333L28.0392 261.356L27.9004 263.351L41.9532 264.329L42.092 262.333ZM26.9722 262.284L25.9455 277.045L27.9407 277.184L28.9674 262.423L26.9722 262.284ZM26.8737 278.112L40.9266 279.089L41.0654 277.094L27.0125 276.117L26.8737 278.112ZM40.9266 279.089C41.0937 279.101 41.1531 279.149 41.1954 279.198L42.7044 277.885C42.2737 277.39 41.6972 277.138 41.0654 277.094L40.9266 279.089ZM41.1954 279.198C41.2377 279.246 41.277 279.312 41.2654 279.479L43.2606 279.618C43.3045 278.986 43.135 278.38 42.7044 277.885L41.1954 279.198ZM41.2654 279.479L40.8525 285.416L42.8476 285.555L43.2606 279.618L41.2654 279.479Z" fill="#19A467"/>
<path d="M45.6188 240.503L46.1327 241.361L46.1327 241.361L45.6188 240.503ZM9.28765 231.394L10.1455 230.88L10.1455 230.88L9.28765 231.394ZM15.7806 205.496L15.2667 204.639L15.7806 205.496ZM21.8711 207.023L22.729 206.51L22.729 206.51L21.8711 207.023ZM17.7008 225.229L16.7308 224.986L16.4876 225.956L17.4576 226.199L17.7008 225.229ZM26.0156 227.314L25.7724 228.284L26.7424 228.527L26.9856 227.557L26.0156 227.314ZM30.6353 210.459L30.1214 209.601L30.1214 209.601L30.6353 210.459ZM36.4081 211.906L37.2659 211.393L37.2659 211.393L36.4081 211.906ZM32.5298 228.947L31.5598 228.704L31.3166 229.674L32.2866 229.917L32.5298 228.947ZM41.1095 231.098L40.8663 232.068L41.8362 232.311L42.0794 231.341L41.1095 231.098ZM46.1275 212.655L46.6414 213.512L46.6414 213.512L46.1275 212.655ZM52.218 214.182L51.3602 214.696L51.3602 214.696L52.218 214.182ZM45.2586 239.4C45.2178 239.562 45.1602 239.612 45.1049 239.645L46.1327 241.361C46.6956 241.024 47.0445 240.5 47.1985 239.886L45.2586 239.4ZM45.1049 239.645C45.0496 239.678 44.9782 239.706 44.8157 239.665L44.3294 241.605C44.9437 241.759 45.5698 241.698 46.1327 241.361L45.1049 239.645ZM44.8157 239.665L10.3912 231.034L9.90481 232.974L44.3294 241.605L44.8157 239.665ZM10.3912 231.034C10.2287 230.993 10.1786 230.936 10.1455 230.88L8.42981 231.908C8.76705 232.471 9.29051 232.82 9.90481 232.974L10.3912 231.034ZM10.1455 230.88C10.1124 230.825 10.0852 230.754 10.1259 230.591L8.18595 230.105C8.03194 230.719 8.09258 231.345 8.42981 231.908L10.1455 230.88ZM10.1259 230.591L16.1409 206.6L14.2009 206.114L8.18595 230.105L10.1259 230.591ZM16.1409 206.6C16.1816 206.438 16.2392 206.387 16.2946 206.354L15.2667 204.639C14.7038 204.976 14.355 205.499 14.2009 206.114L16.1409 206.6ZM16.2946 206.354C16.3499 206.321 16.4212 206.294 16.5837 206.335L17.0701 204.395C16.4558 204.241 15.8296 204.301 15.2667 204.639L16.2946 206.354ZM16.5837 206.335L20.8206 207.397L21.3069 205.457L17.0701 204.395L16.5837 206.335ZM20.8206 207.397C20.9193 207.422 20.966 207.458 21.0133 207.537L22.729 206.51C22.4059 205.97 21.9143 205.609 21.3069 205.457L20.8206 207.397ZM21.0133 207.537C21.0464 207.593 21.0736 207.664 21.0329 207.827L22.9728 208.313C23.1269 207.699 23.0662 207.072 22.729 206.51L21.0133 207.537ZM21.0329 207.827L16.7308 224.986L18.6707 225.472L22.9728 208.313L21.0329 207.827ZM17.4576 226.199L25.7724 228.284L26.2588 226.344L17.9439 224.259L17.4576 226.199ZM26.9856 227.557L30.9956 211.563L29.0556 211.076L25.0456 227.071L26.9856 227.557ZM30.9956 211.563C31.0363 211.4 31.0939 211.35 31.1493 211.317L30.1214 209.601C29.5585 209.939 29.2096 210.462 29.0556 211.076L30.9956 211.563ZM31.1493 211.317C31.2046 211.284 31.2759 211.257 31.4384 211.297L31.9248 209.357C31.3105 209.203 30.6843 209.264 30.1214 209.601L31.1493 211.317ZM31.4384 211.297L35.3575 212.28L35.8439 210.34L31.9248 209.357L31.4384 211.297ZM35.3575 212.28C35.4562 212.305 35.5029 212.341 35.5502 212.42L37.2659 211.393C36.9429 210.853 36.4513 210.492 35.8439 210.34L35.3575 212.28ZM35.5502 212.42C35.5834 212.476 35.6105 212.547 35.5698 212.71L37.5098 213.196C37.6638 212.582 37.6031 211.955 37.2659 211.393L35.5502 212.42ZM35.5698 212.71L31.5598 228.704L33.4998 229.19L37.5098 213.196L35.5698 212.71ZM32.2866 229.917L40.8663 232.068L41.3526 230.128L32.773 227.977L32.2866 229.917ZM42.0794 231.341L46.4878 213.758L44.5478 213.272L40.1395 230.855L42.0794 231.341ZM46.4878 213.758C46.5285 213.596 46.5861 213.546 46.6414 213.512L45.6136 211.797C45.0507 212.134 44.7018 212.657 44.5478 213.272L46.4878 213.758ZM46.6414 213.512C46.6968 213.479 46.7681 213.452 46.9306 213.493L47.417 211.553C46.8026 211.399 46.1765 211.46 45.6136 211.797L46.6414 213.512ZM46.9306 213.493L51.1145 214.542L51.6009 212.602L47.417 211.553L46.9306 213.493ZM51.1145 214.542C51.2769 214.583 51.327 214.64 51.3602 214.696L53.0759 213.668C52.7386 213.105 52.2152 212.756 51.6009 212.602L51.1145 214.542ZM51.3602 214.696C51.3933 214.751 51.4205 214.822 51.3798 214.985L53.3197 215.471C53.4737 214.857 53.4131 214.231 53.0759 213.668L51.3602 214.696ZM51.3798 214.985L45.2586 239.4L47.1985 239.886L53.3197 215.471L51.3798 214.985Z" fill="#19A467"/>
<path d="M63.4569 182.68L63.7238 183.644L63.7559 183.635L63.7873 183.624L63.4569 182.68ZM30.8626 164.227L29.8832 164.429L29.89 164.462L29.8988 164.494L30.8626 164.227ZM34.4878 157.935L34.6901 158.914L34.7227 158.907L34.7548 158.898L34.4878 157.935ZM35.3539 157.735L35.3717 156.735L35.2985 156.734L35.2259 156.743L35.3539 157.735ZM56.4106 158.111L56.3927 159.111L58.2249 159.144L57.2611 157.585L56.4106 158.111ZM45.3069 140.155L46.1575 139.629L46.1474 139.612L46.1368 139.597L45.3069 140.155ZM44.9789 139.404L44.0152 139.671L44.024 139.703L44.035 139.735L44.9789 139.404ZM48.536 133.011L48.8029 133.974L48.8029 133.974L48.536 133.011ZM77.445 157.973L77.7119 158.937L77.7119 158.937L77.445 157.973ZM57.2059 146.954L57.6986 146.084L56.3616 147.49L57.2059 146.954ZM65.0978 159.391L65.9511 158.869L65.9467 158.862L65.9422 158.855L65.0978 159.391ZM65.5084 160.439L66.4877 160.236L66.4877 160.236L65.5084 160.439ZM63.1142 164.667L63.4447 165.611L63.4447 165.611L63.1142 164.667ZM62.0043 164.855L61.9793 165.854L61.9878 165.855L61.9963 165.855L62.0043 164.855ZM47.2798 164.487L47.3048 163.487L46.7871 165.357L47.2798 164.487ZM63.4035 181.521C63.3514 181.613 63.2786 181.683 63.1264 181.737L63.7873 183.624C64.3655 183.422 64.8373 183.048 65.1439 182.506L63.4035 181.521ZM63.1899 181.717C63.1278 181.734 63.0517 181.741 62.906 181.659L61.9206 183.399C62.4718 183.711 63.0914 183.819 63.7238 183.644L63.1899 181.717ZM62.906 181.659L32.0222 164.174L31.0368 165.914L61.9206 183.399L62.906 181.659ZM32.0222 164.174C31.8764 164.091 31.8435 164.022 31.8263 163.96L29.8988 164.494C30.074 165.126 30.4857 165.602 31.0368 165.914L32.0222 164.174ZM31.8419 164.025C31.8093 163.867 31.8323 163.768 31.8844 163.676L30.144 162.691C29.8373 163.232 29.7593 163.829 29.8832 164.429L31.8419 164.025ZM31.8844 163.676L34.3861 159.257L32.6457 158.272L30.144 162.691L31.8844 163.676ZM34.3861 159.257C34.4786 159.094 34.5577 159.006 34.6101 158.961C34.6571 158.921 34.682 158.916 34.6901 158.914L34.2855 156.955C33.523 157.113 32.9964 157.653 32.6457 158.272L34.3861 159.257ZM34.7548 158.898C35.1483 158.789 35.3777 158.74 35.4818 158.726L35.2259 156.743C34.969 156.776 34.621 156.86 34.2208 156.971L34.7548 158.898ZM35.336 158.735L56.3927 159.111L56.4285 157.112L35.3717 156.735L35.336 158.735ZM57.2611 157.585L46.1575 139.629L44.4564 140.681L55.5601 158.637L57.2611 157.585ZM46.1368 139.597C46.1397 139.601 46.1175 139.567 46.0731 139.465C46.0316 139.37 45.9814 139.242 45.9227 139.074L44.035 139.735C44.1631 140.101 44.3075 140.461 44.4771 140.713L46.1368 139.597ZM45.9426 139.137C45.9242 139.071 45.9053 138.911 46.0877 138.589L44.3472 137.604C43.9917 138.232 43.8137 138.944 44.0152 139.671L45.9426 139.137ZM46.0877 138.589L48.5894 134.17L46.849 133.185L44.3472 137.604L46.0877 138.589ZM48.5894 134.17C48.6719 134.024 48.7408 133.991 48.8029 133.974L48.269 132.047C47.6366 132.222 47.161 132.634 46.849 133.185L48.5894 134.17ZM48.8029 133.974C48.8651 133.957 48.9411 133.95 49.0868 134.032L50.0722 132.292C49.5211 131.98 48.9014 131.872 48.269 132.047L48.8029 133.974ZM49.0868 134.032L79.9707 151.517L80.956 149.777L50.0722 132.292L49.0868 134.032ZM79.9707 151.517C80.1164 151.6 80.1494 151.669 80.1666 151.731L82.094 151.197C81.9188 150.565 81.5071 150.089 80.956 149.777L79.9707 151.517ZM80.1666 151.731C80.1838 151.793 80.191 151.869 80.1085 152.015L81.8489 153C82.1609 152.449 82.2692 151.829 82.094 151.197L80.1666 151.731ZM80.1085 152.015L77.3647 156.861L79.1051 157.847L81.8489 153L80.1085 152.015ZM77.3647 156.861C77.3145 156.95 77.2668 156.985 77.178 157.01L77.7119 158.937C78.3177 158.769 78.7966 158.392 79.1051 157.847L77.3647 156.861ZM77.178 157.01C77.1159 157.027 77.0398 157.034 76.8941 156.952L75.9087 158.692C76.4599 159.004 77.0795 159.112 77.7119 158.937L77.178 157.01ZM76.8941 156.952L57.6986 146.084L56.7133 147.824L75.9087 158.692L76.8941 156.952ZM56.3616 147.49L64.2535 159.926L65.9422 158.855L58.0503 146.418L56.3616 147.49ZM64.2446 159.912C64.3779 160.13 64.4733 160.371 64.529 160.641L66.4877 160.236C66.3869 159.748 66.2086 159.29 65.9511 158.869L64.2446 159.912ZM64.529 160.641C64.548 160.733 64.5474 160.882 64.4058 161.132L66.1463 162.117C66.471 161.544 66.6252 160.902 66.4877 160.236L64.529 160.641ZM64.4058 161.132L63.1415 163.365L64.882 164.351L66.1463 162.117L64.4058 161.132ZM63.1415 163.365C63 163.615 62.8723 163.693 62.7838 163.724L63.4447 165.611C64.0866 165.386 64.5572 164.924 64.882 164.351L63.1415 163.365ZM62.7838 163.724C62.5238 163.815 62.2682 163.857 62.0124 163.855L61.9963 165.855C62.49 165.859 62.9743 165.776 63.4447 165.611L62.7838 163.724ZM62.0293 163.855L47.3048 163.487L47.2548 165.486L61.9793 165.854L62.0293 163.855ZM46.7871 165.357L65.9826 176.225L66.9679 174.484L47.7724 163.616L46.7871 165.357ZM65.9826 176.225C66.1283 176.307 66.1613 176.376 66.1785 176.438L68.1059 175.904C67.9307 175.272 67.5191 174.796 66.9679 174.484L65.9826 176.225ZM66.1785 176.438C66.2031 176.527 66.1974 176.586 66.1473 176.674L67.8877 177.66C68.1962 177.115 68.2737 176.51 68.1059 175.904L66.1785 176.438ZM66.1473 176.674L63.4035 181.521L65.1439 182.506L67.8877 177.66L66.1473 176.674Z" fill="#19A467"/>
<path d="M87.2229 141.945L87.226 142.945L87.2645 142.945L87.3027 142.942L87.2229 141.945ZM86.0482 141.303L85.1759 141.792L85.2027 141.84L85.2345 141.885L86.0482 141.303ZM67.7448 108.647L68.6171 108.159L68.5955 108.12L68.5706 108.084L67.7448 108.647ZM74.8957 100.251L74.4705 101.156L74.5105 101.174L74.5519 101.19L74.8957 100.251ZM110.05 113.12L110.494 112.224L110.445 112.2L110.394 112.181L110.05 113.12ZM110.87 114.177L111.867 114.097L111.864 114.059L111.858 114.021L110.87 114.177ZM105.837 120.003L105.917 121L105.917 121L105.837 120.003ZM104.978 119.917L105.353 118.99L105.332 118.981L105.311 118.974L104.978 119.917ZM98.8004 117.74L99.1328 116.796L98.4847 116.568L98.0391 117.091L98.8004 117.74ZM88.8175 129.462L88.0562 128.814L87.6106 129.337L87.9393 129.94L88.8175 129.462ZM91.951 135.214L91.0728 135.693L91.0835 135.712L91.0951 135.731L91.951 135.214ZM84.7649 123.357L83.8965 123.853L84.6028 125.09L85.5263 124.006L84.7649 123.357ZM92.0928 114.752L92.8542 115.401L93.7746 114.32L92.447 113.817L92.0928 114.752ZM76.4748 108.839L76.8289 107.903L74.2266 106.918L75.6064 109.335L76.4748 108.839ZM87.2419 140.886C87.2088 140.925 87.1881 140.936 87.1828 140.939C87.1785 140.941 87.1689 140.946 87.143 140.948L87.3027 142.942C87.8923 142.895 88.3918 142.62 88.7646 142.182L87.2419 140.886ZM87.2197 140.945C87.0842 140.946 87.0479 140.913 87.0353 140.902L85.7386 142.425C86.1693 142.792 86.6903 142.947 87.226 142.945L87.2197 140.945ZM87.0353 140.902C86.9463 140.826 86.8928 140.765 86.8619 140.722L85.2345 141.885C85.3781 142.086 85.5504 142.265 85.7386 142.425L87.0353 140.902ZM86.9205 140.814L68.6171 108.159L66.8725 109.136L85.1759 141.792L86.9205 140.814ZM68.5706 108.084C68.4523 107.91 68.385 107.711 68.3796 107.455L66.38 107.497C66.3932 108.118 66.5693 108.699 66.919 109.211L68.5706 108.084ZM68.3796 107.455C68.377 107.332 68.4217 107.121 68.6936 106.802L67.1709 105.505C66.6876 106.073 66.364 106.743 66.38 107.497L68.3796 107.455ZM68.6936 106.802L73.2249 101.481L71.7022 100.184L67.1709 105.505L68.6936 106.802ZM73.2249 101.481C73.4967 101.162 73.6982 101.084 73.8194 101.067L73.5428 99.0864C72.7958 99.1907 72.1855 99.6169 71.7022 100.184L73.2249 101.481ZM73.8194 101.067C74.0727 101.032 74.2805 101.066 74.4705 101.156L75.3209 99.3455C74.7596 99.0818 74.1577 99.0005 73.5428 99.0864L73.8194 101.067ZM74.5519 101.19L109.706 114.059L110.394 112.181L75.2395 99.3115L74.5519 101.19ZM109.605 114.016C109.653 114.039 109.722 114.082 109.811 114.158L111.108 112.635C110.92 112.475 110.715 112.334 110.494 112.224L109.605 114.016ZM109.811 114.158C109.824 114.169 109.862 114.2 109.883 114.333L111.858 114.021C111.775 113.492 111.538 113.002 111.108 112.635L109.811 114.158ZM109.874 114.257C109.876 114.283 109.872 114.293 109.871 114.298C109.869 114.304 109.861 114.326 109.827 114.365L111.35 115.661C111.723 115.224 111.914 114.687 111.867 114.097L109.874 114.257ZM109.827 114.365L106.146 118.688L107.668 119.985L111.35 115.661L109.827 114.365ZM106.146 118.688C106.017 118.84 105.915 118.923 105.845 118.966C105.812 118.987 105.789 118.997 105.775 119.001C105.769 119.004 105.764 119.005 105.762 119.006C105.759 119.006 105.758 119.006 105.757 119.006L105.917 121C106.65 120.941 107.23 120.5 107.668 119.985L106.146 118.688ZM105.757 119.006C105.623 119.017 105.524 119.015 105.453 119.008C105.418 119.005 105.393 119 105.376 118.996C105.359 118.992 105.352 118.989 105.353 118.99L104.604 120.844C105.02 121.012 105.482 121.035 105.917 121L105.757 119.006ZM105.311 118.974L99.1328 116.796L98.468 118.683L104.646 120.86L105.311 118.974ZM98.0391 117.091L88.0562 128.814L89.5788 130.11L99.5618 118.388L98.0391 117.091ZM87.9393 129.94L91.0728 135.693L92.8291 134.736L89.6957 128.984L87.9393 129.94ZM91.0951 135.731C91.0948 135.731 91.0988 135.737 91.1053 135.754C91.1119 135.77 91.1203 135.794 91.1293 135.827C91.1476 135.896 91.1652 135.994 91.176 136.128L93.1696 135.969C93.1347 135.533 93.0389 135.081 92.8068 134.697L91.0951 135.731ZM91.176 136.128C91.176 136.129 91.1761 136.13 91.1759 136.133C91.1758 136.135 91.1754 136.14 91.1741 136.147C91.1717 136.161 91.1656 136.185 91.1503 136.222C91.1187 136.297 91.0527 136.411 90.9236 136.562L92.4463 137.859C92.885 137.344 93.2283 136.701 93.1696 135.969L91.176 136.128ZM90.9236 136.562L87.2419 140.886L88.7646 142.182L92.4463 137.859L90.9236 136.562ZM85.5263 124.006L92.8542 115.401L91.3315 114.104L84.0036 122.709L85.5263 124.006ZM92.447 113.817L76.8289 107.903L76.1207 109.774L91.7387 115.688L92.447 113.817ZM75.6064 109.335L83.8965 123.853L85.6333 122.861L77.3432 108.343L75.6064 109.335Z" fill="#19A467"/>
<path d="M117.96 106.99L117.866 107.986L117.866 107.986L117.96 106.99ZM94.0929 78.1235L95.0884 78.2178L95.0884 78.2178L94.0929 78.1235ZM116.066 63.5695L116.078 64.5695L116.087 64.5693L116.066 63.5695ZM127.608 74.3591L128.605 74.2885L128.605 74.2885L127.608 74.3591ZM126.192 80.7013L125.311 80.2275L124.773 81.228L125.834 81.635L126.192 80.7013ZM140.823 86.3156L141.228 85.401L141.205 85.3909L141.181 85.382L140.823 86.3156ZM141.601 87.5141L142.597 87.6085L142.601 87.5702L142.601 87.5318L141.601 87.5141ZM135.059 92.711L134.912 93.7002L134.938 93.704L134.965 93.7065L135.059 92.711ZM133.886 92.4058L134.29 91.4912L134.278 91.486L134.266 91.4811L133.886 92.4058ZM120.785 87.0142L121.165 86.0894L120.61 85.8609L120.147 86.2435L120.785 87.0142ZM115.693 91.2239L115.056 90.4533L114.285 91.0905L114.922 91.8612L115.693 91.2239ZM111.274 85.8798L110.504 86.517L111.141 87.2877L111.912 86.6505L111.274 85.8798ZM119.199 77.5564L118.208 77.4238L118.207 77.4331L118.206 77.4425L119.199 77.5564ZM104.594 77.8005L103.957 77.0298L103.187 77.667L103.824 78.4377L104.594 77.8005ZM118.324 105.888C118.195 105.994 118.119 106.001 118.054 105.995L117.866 107.986C118.519 108.048 119.11 107.833 119.598 107.429L118.324 105.888ZM118.054 105.995C117.99 105.989 117.917 105.968 117.81 105.839L116.268 107.113C116.672 107.602 117.212 107.924 117.866 107.986L118.054 105.995ZM117.81 105.839L95.1953 78.4872L93.6539 79.7616L116.268 107.113L117.81 105.839ZM95.1953 78.4872C95.0886 78.3581 95.0824 78.282 95.0884 78.2178L93.0974 78.0291C93.0354 78.6823 93.2503 79.2736 93.6539 79.7616L95.1953 78.4872ZM95.0884 78.2178C95.0945 78.1536 95.1149 78.0801 95.244 77.9733L93.9696 76.432C93.4815 76.8355 93.1593 77.3758 93.0974 78.0291L95.0884 78.2178ZM95.244 77.9733L106.395 68.7535L105.121 67.2122L93.9696 76.432L95.244 77.9733ZM106.395 68.7535C109.788 65.9486 113.01 64.6086 116.078 64.5694L116.053 62.5696C112.391 62.6163 108.742 64.2185 105.121 67.2122L106.395 68.7535ZM116.087 64.5693C119.068 64.506 121.717 65.8042 124.065 68.6449L125.607 67.3705C122.945 64.1517 119.747 62.4911 116.044 62.5697L116.087 64.5693ZM124.065 68.6449C125.654 70.5669 126.473 72.492 126.61 74.4297L128.605 74.2885C128.433 71.8534 127.404 69.5442 125.607 67.3705L124.065 68.6449ZM126.61 74.4297C126.751 76.4161 126.326 78.3424 125.311 80.2275L127.073 81.1751C128.255 78.9767 128.774 76.6749 128.605 74.2885L126.61 74.4297ZM125.834 81.635L140.465 87.2493L141.181 85.382L126.55 79.7677L125.834 81.635ZM140.419 87.2302C140.546 87.2866 140.572 87.3244 140.561 87.3113L142.103 86.0369C141.86 85.7433 141.547 85.5421 141.228 85.401L140.419 87.2302ZM140.561 87.3113C140.572 87.3241 140.604 87.3609 140.602 87.4963L142.601 87.5318C142.611 86.9962 142.463 86.473 142.103 86.0369L140.561 87.3113ZM140.606 87.4197C140.603 87.4455 140.598 87.4552 140.596 87.4594C140.593 87.4647 140.581 87.4852 140.542 87.5177L141.816 89.0591C142.259 88.6927 142.541 88.1972 142.597 87.6085L140.606 87.4197ZM140.542 87.5177L135.871 91.3796L137.145 92.921L141.816 89.0591L140.542 87.5177ZM135.871 91.3796C135.485 91.6989 135.257 91.7253 135.153 91.7154L134.965 93.7065C135.783 93.7841 136.522 93.4367 137.145 92.921L135.871 91.3796ZM135.205 91.7218C134.77 91.6572 134.475 91.5732 134.29 91.4912L133.481 93.3204C133.891 93.5017 134.379 93.6211 134.912 93.7002L135.205 91.7218ZM134.266 91.4811L121.165 86.0894L120.404 87.9389L133.505 93.3306L134.266 91.4811ZM120.147 86.2435L115.056 90.4533L116.33 91.9946L121.422 87.7848L120.147 86.2435ZM114.922 91.8612L122.959 101.582L124.501 100.307L116.464 90.5867L114.922 91.8612ZM122.959 101.582C123.066 101.711 123.072 101.787 123.066 101.851L125.057 102.04C125.119 101.386 124.904 100.795 124.501 100.307L122.959 101.582ZM123.066 101.851C123.06 101.915 123.04 101.989 122.91 102.095L124.185 103.637C124.673 103.233 124.995 102.693 125.057 102.04L123.066 101.851ZM122.91 102.095L118.324 105.888L119.598 107.429L124.185 103.637L122.91 102.095ZM111.912 86.6505L117.298 82.1972L116.023 80.6558L110.637 85.1091L111.912 86.6505ZM117.298 82.1972C118.938 80.8412 120.002 79.3382 120.193 77.6703L118.206 77.4425C118.098 78.3833 117.469 79.4604 116.023 80.6558L117.298 82.1972ZM120.19 77.689C120.413 76.0253 119.849 74.4597 118.671 73.0342L117.129 74.3086C118.038 75.4079 118.341 76.4323 118.208 77.4238L120.19 77.689ZM118.671 73.0342C117.498 71.6161 116.083 70.7496 114.43 70.5928L114.241 72.5839C115.253 72.6798 116.214 73.202 117.129 74.3086L118.671 73.0342ZM114.43 70.5928C112.723 70.431 111.014 71.1954 109.343 72.5765L110.618 74.1179C112.089 72.9012 113.283 72.493 114.241 72.5839L114.43 70.5928ZM109.343 72.5765L103.957 77.0298L105.232 78.5712L110.618 74.1179L109.343 72.5765ZM103.824 78.4377L110.504 86.517L112.045 85.2426L105.365 77.1633L103.824 78.4377Z" fill="#19A467"/>
<path d="M150.225 80.9629L149.958 81.9266L149.958 81.9266L150.225 80.9629ZM131.771 48.3686L132.735 48.6356L132.735 48.6356L131.771 48.3686ZM153.16 37.828L153.229 38.8256L153.241 38.8246L153.16 37.828ZM160.481 39.4554L159.971 40.3158L159.98 40.3208L159.988 40.3256L160.481 39.4554ZM166.295 45.5127L165.436 46.0248L165.436 46.0251L166.295 45.5127ZM170.41 52.7823L171.296 52.3179L171.292 52.31L170.41 52.7823ZM172.795 61.0947L171.795 61.1014L171.795 61.1014L172.795 61.0947ZM170.491 68.1085L171.293 68.707L171.3 68.6968L170.491 68.1085ZM154.165 71.0774L153.295 71.5701L153.788 72.4403L154.658 71.9477L154.165 71.0774ZM163.217 65.0116L162.401 64.4328L163.217 65.0116ZM164.186 61.5142L163.188 61.5778L163.189 61.5909L164.186 61.5142ZM162.707 57.0182L161.82 57.4806L161.824 57.4874L161.827 57.4941L162.707 57.0182ZM161.356 54.5206L160.465 54.975L160.475 54.9944L160.485 55.0133L161.356 54.5206ZM160.118 52.335L159.248 52.8277L159.259 52.8466L159.27 52.865L160.118 52.335ZM158.699 49.9387L157.842 50.4544L157.847 50.4621L158.699 49.9387ZM153.887 45.7613L153.62 46.725L153.633 46.7287L153.647 46.732L153.887 45.7613ZM142.275 50.0764L141.783 49.2062L140.912 49.6989L141.405 50.5691L142.275 50.0764ZM150.776 79.9411C150.63 80.0236 150.554 80.0164 150.492 79.9992L149.958 81.9266C150.59 82.1018 151.21 81.9936 151.761 81.6815L150.776 79.9411ZM150.492 79.9992C150.43 79.982 150.361 79.9491 150.278 79.8033L148.538 80.7887C148.85 81.3398 149.325 81.7515 149.958 81.9266L150.492 79.9992ZM150.278 79.8033L132.793 48.9195L131.053 49.9048L148.538 80.7887L150.278 79.8033ZM132.793 48.9195C132.711 48.7737 132.718 48.6977 132.735 48.6356L130.808 48.1017C130.632 48.734 130.741 49.3537 131.053 49.9048L132.793 48.9195ZM132.735 48.6356C132.752 48.5734 132.785 48.5045 132.931 48.422L131.946 46.6816C131.394 46.9936 130.983 47.4693 130.808 48.1017L132.735 48.6356ZM132.931 48.422L144.857 41.6701L143.871 39.9297L131.946 46.6816L132.931 48.422ZM144.857 41.6701C147.937 39.926 150.724 39.0002 153.229 38.8256L153.09 36.8304C150.203 37.0316 147.126 38.087 143.871 39.9297L144.857 41.6701ZM153.241 38.8246C155.724 38.6211 157.956 39.1223 159.971 40.3158L160.991 38.595C158.601 37.1794 155.952 36.5957 153.078 36.8313L153.241 38.8246ZM159.988 40.3256C162.018 41.4747 163.841 43.3508 165.436 46.0248L167.153 45.0006C165.429 42.1081 163.377 39.946 160.974 38.5852L159.988 40.3256ZM165.436 46.0251C166.254 47.3963 166.956 48.6001 167.543 49.637L169.284 48.6517C168.687 47.5981 167.977 46.3807 167.153 45.0004L165.436 46.0251ZM167.543 49.637C168.13 50.6739 168.792 51.8795 169.529 53.2546L171.292 52.31C170.55 50.9251 169.88 49.7054 169.284 48.6517L167.543 49.637ZM169.525 53.2467C171.047 56.15 171.779 58.763 171.795 61.1014L173.795 61.088C173.777 58.3425 172.919 55.4138 171.296 52.3179L169.525 53.2467ZM171.795 61.1014C171.81 63.4211 171.115 65.552 169.683 67.5201L171.3 68.6968C172.973 66.3972 173.813 63.8522 173.795 61.088L171.795 61.1014ZM169.69 67.51C168.228 69.468 165.997 71.3236 162.939 73.0547L163.925 74.7951C167.139 72.9753 169.614 70.9533 171.293 68.707L169.69 67.51ZM162.939 73.0547L150.776 79.9411L151.761 81.6815L163.925 74.7951L162.939 73.0547ZM154.658 71.9477L160.217 68.8003L159.231 67.0599L153.672 70.2072L154.658 71.9477ZM160.217 68.8003C161.879 67.8593 163.175 66.798 164.032 65.5904L162.401 64.4328C161.769 65.3232 160.737 66.2076 159.231 67.0599L160.217 68.8003ZM164.032 65.5904C164.912 64.3508 165.299 62.9531 165.183 61.4374L163.189 61.5909C163.269 62.6405 163.011 63.5744 162.401 64.4328L164.032 65.5904ZM165.184 61.4505C165.086 59.9267 164.529 58.2852 163.586 56.5424L161.827 57.4941C162.686 59.0814 163.115 60.4372 163.188 61.5778L165.184 61.4505ZM163.593 56.5558C163.101 55.6116 162.645 54.7686 162.226 54.0279L160.485 55.0133C160.891 55.7296 161.336 56.5518 161.82 57.4806L163.593 56.5558ZM162.246 54.0662C161.852 53.2939 161.426 52.5401 160.966 51.805L159.27 52.865C159.699 53.551 160.097 54.2543 160.465 54.975L162.246 54.0662ZM160.988 51.8423C160.569 51.1015 160.09 50.2923 159.551 49.4153L157.847 50.4621C158.375 51.323 158.842 52.1114 159.248 52.8277L160.988 51.8423ZM159.555 49.423C158.075 46.9628 156.285 45.3242 154.127 44.7905L153.647 46.732C155.088 47.0886 156.506 48.2349 157.842 50.4544L159.555 49.423ZM154.154 44.7976C152.01 44.2037 149.63 44.7636 147.104 46.1934L148.089 47.9338C150.379 46.6378 152.192 46.3294 153.62 46.725L154.154 44.7976ZM147.104 46.1934L141.783 49.2062L142.768 50.9467L148.089 47.9338L147.104 46.1934ZM141.405 50.5691L153.295 71.5701L155.035 70.5848L143.145 49.5838L141.405 50.5691Z" fill="#19A467"/>
<path d="M190.497 59.7194L190.098 60.636L190.098 60.636L190.497 59.7194ZM176.815 24.8525L177.731 25.2524L177.731 25.2524L176.815 24.8525ZM184.388 21.8806L183.988 22.7971L183.988 22.7971L184.388 21.8806ZM198.071 56.7475L197.154 56.3476L197.154 56.3476L198.071 56.7475ZM191.187 58.7853C191.031 58.8465 190.956 58.8286 190.897 58.8029L190.098 60.636C190.699 60.8984 191.328 60.8784 191.917 60.6471L191.187 58.7853ZM190.897 58.8029C190.838 58.7771 190.775 58.7347 190.714 58.5788L188.852 59.3095C189.083 59.899 189.496 60.3735 190.098 60.636L190.897 58.8029ZM190.714 58.5788L177.749 25.5417L175.887 26.2723L188.852 59.3095L190.714 58.5788ZM177.749 25.5417C177.688 25.3858 177.705 25.3115 177.731 25.2524L175.898 24.4526C175.636 25.054 175.656 25.6827 175.887 26.2723L177.749 25.5417ZM177.731 25.2524C177.757 25.1933 177.799 25.1297 177.955 25.0686L177.225 23.2068C176.635 23.4381 176.16 23.8511 175.898 24.4526L177.731 25.2524ZM177.955 25.0686L183.699 22.8147L182.968 20.9529L177.225 23.2068L177.955 25.0686ZM183.699 22.8147C183.854 22.7535 183.929 22.7713 183.988 22.7971L184.788 20.964C184.186 20.7016 183.557 20.7216 182.968 20.9529L183.699 22.8147ZM183.988 22.7971C184.047 22.8229 184.11 22.8652 184.172 23.0211L186.033 22.2905C185.802 21.701 185.389 21.2264 184.788 20.964L183.988 22.7971ZM184.172 23.0211L197.136 56.0583L198.998 55.3277L186.033 22.2905L184.172 23.0211ZM197.136 56.0583C197.198 56.2142 197.18 56.2884 197.154 56.3476L198.987 57.1474C199.25 56.546 199.23 55.9172 198.998 55.3277L197.136 56.0583ZM197.154 56.3476C197.128 56.4067 197.086 56.4702 196.93 56.5314L197.661 58.3932C198.25 58.1618 198.725 57.7488 198.987 57.1474L197.154 56.3476ZM196.93 56.5314L191.187 58.7853L191.917 60.6471L197.661 58.3932L196.93 56.5314Z" fill="#19A467"/>
<path d="M216.025 49.5906L215.855 50.5761L215.861 50.5771L216.025 49.5906ZM209.928 46.9893L210.569 46.222L210.569 46.222L209.928 46.9893ZM206.817 42.3579L205.846 42.5974L205.851 42.6164L205.857 42.6353L206.817 42.3579ZM206.952 41.5373L207.808 42.0545L207.828 42.0216L207.845 41.9873L206.952 41.5373ZM214.467 39.6274L214.017 40.5204L214.056 40.5403L214.097 40.5567L214.467 39.6274ZM215.326 40.1465L216.133 39.5554L216.057 39.4529L215.959 39.3724L215.326 40.1465ZM216.924 41.6082L216.379 42.447L216.393 42.4558L216.407 42.4641L216.924 41.6082ZM219.556 42.4772L219.412 43.4667L219.428 43.469L219.444 43.4709L219.556 42.4772ZM228.106 39.7495L227.383 39.0589L227.373 39.0692L228.106 39.7495ZM227.607 34.3053L227.116 35.1764L227.128 35.1834L227.141 35.1901L227.607 34.3053ZM224.312 33.4872L224.216 34.4826L224.224 34.4833L224.312 33.4872ZM218.698 33.2975L218.693 32.2975L218.68 32.2975L218.666 32.298L218.698 33.2975ZM211.376 32.7978L211.156 33.7733L211.167 33.7759L211.179 33.7781L211.376 32.7978ZM206.325 30.3322L205.634 31.0544L205.644 31.0643L205.655 31.0739L206.325 30.3322ZM203.989 19.2674L204.918 19.6387L204.922 19.6293L203.989 19.2674ZM207.965 14.1814L208.571 14.9771L208.582 14.9685L207.965 14.1814ZM221.683 10.2913L221.586 11.2866L221.592 11.2872L221.683 10.2913ZM226.857 11.6583L226.409 12.5524L226.415 12.5556L226.422 12.5587L226.857 11.6583ZM230.477 14.2519L229.739 14.927L229.739 14.927L230.477 14.2519ZM232.321 17.3961L233.292 17.1566L233.288 17.141L233.284 17.1254L232.321 17.3961ZM232.199 18.2697L233.055 18.7869L233.075 18.754L233.092 18.7197L232.199 18.2697ZM224.539 20.2719L224.759 19.2964L224.759 19.2964L224.539 20.2719ZM223.666 19.6997L222.774 20.1514L222.828 20.2576L222.905 20.3481L223.666 19.6997ZM221.17 17.785L220.816 18.7202L220.834 18.7271L220.852 18.7334L221.17 17.785ZM212.98 19.6928L212.264 18.9942L212.259 18.9998L212.253 19.0056L212.98 19.6928ZM213.493 24.9649L212.896 25.767L212.922 25.7862L212.948 25.8037L213.493 24.9649ZM216.47 25.8615L216.347 26.8539L216.364 26.856L216.381 26.8575L216.47 25.8615ZM221.7 26.0897L221.684 27.0896L221.712 27.09L221.74 27.0889L221.7 26.0897ZM229.843 26.4992L230.026 25.5162L230.026 25.5162L229.843 26.4992ZM234.987 28.8857L234.303 29.6157L234.312 29.6235L234.987 28.8857ZM237.149 40.387L236.239 39.9721L236.234 39.9839L237.149 40.387ZM232.656 45.6567L233.228 46.4769L233.235 46.4722L232.656 45.6567ZM224.686 47.9987C221.381 48.814 218.557 48.9983 216.189 48.6042L215.861 50.5771C218.575 51.0287 221.685 50.7991 225.165 49.9405L224.686 47.9987ZM216.194 48.6052C213.819 48.196 211.963 47.3865 210.569 46.222L209.287 47.7566C211.011 49.1974 213.219 50.1221 215.855 50.5761L216.194 48.6052ZM210.569 46.222C209.149 45.0347 208.233 43.6561 207.778 42.0806L205.857 42.6353C206.432 44.6296 207.59 46.3386 209.287 47.7566L210.569 46.222ZM207.788 42.1184C207.786 42.1087 207.786 42.104 207.786 42.1031C207.786 42.1026 207.786 42.1025 207.786 42.1028C207.786 42.103 207.785 42.1031 207.786 42.103C207.786 42.1029 207.786 42.1022 207.786 42.1007C207.786 42.0992 207.787 42.0967 207.789 42.093C207.791 42.0858 207.797 42.0729 207.808 42.0545L206.096 41.0201C205.809 41.4962 205.709 42.0404 205.846 42.5974L207.788 42.1184ZM207.845 41.9873C207.855 41.9677 207.863 41.9571 207.866 41.9526C207.87 41.9484 207.871 41.948 207.869 41.9493C207.867 41.9506 207.867 41.9507 207.869 41.9497C207.871 41.9486 207.879 41.945 207.895 41.941L207.416 39.9992C206.807 40.1495 206.338 40.5342 206.059 41.0873L207.845 41.9873ZM207.895 41.941L213.568 40.5418L213.089 38.6L207.416 39.9992L207.895 41.941ZM213.568 40.5418C213.889 40.4624 214.003 40.5136 214.017 40.5204L214.917 38.7344C214.331 38.4392 213.686 38.4527 213.089 38.6L213.568 40.5418ZM214.097 40.5567C214.279 40.6289 214.478 40.7449 214.693 40.9207L215.959 39.3724C215.61 39.0874 215.237 38.8573 214.836 38.6981L214.097 40.5567ZM214.519 40.7377C214.999 41.392 215.627 41.9587 216.379 42.447L217.468 40.7695C216.881 40.3883 216.444 39.9806 216.133 39.5554L214.519 40.7377ZM216.407 42.4641C217.253 42.9758 218.266 43.2994 219.412 43.4667L219.701 41.4877C218.746 41.3483 218.004 41.0926 217.441 40.7523L216.407 42.4641ZM219.444 43.4709C220.639 43.6063 221.991 43.4689 223.478 43.1021L222.999 41.1603C221.659 41.4909 220.556 41.5842 219.669 41.4836L219.444 43.4709ZM223.478 43.1021C225.847 42.5178 227.695 41.6623 228.839 40.4298L227.373 39.0692C226.622 39.879 225.225 40.6113 222.999 41.1603L223.478 43.1021ZM228.83 40.4401C230.024 39.1885 230.485 37.694 230.081 36.0569L228.139 36.5359C228.363 37.4433 228.154 38.2509 227.383 39.059L228.83 40.4401ZM230.081 36.0569C229.792 34.8855 229.123 33.9736 228.073 33.4205L227.141 35.1901C227.642 35.454 227.975 35.8695 228.139 36.5359L230.081 36.0569ZM228.098 33.4341C227.175 32.9138 225.91 32.6239 224.4 32.491L224.224 34.4833C225.627 34.6067 226.558 34.8623 227.116 35.1764L228.098 33.4341ZM224.408 32.4918C222.939 32.3504 221.031 32.287 218.693 32.2975L218.702 34.2975C221.008 34.2871 222.843 34.3503 224.216 34.4826L224.408 32.4918ZM218.666 32.298C215.931 32.3846 213.57 32.22 211.574 31.8176L211.179 33.7781C213.364 34.2186 215.885 34.3871 218.729 34.297L218.666 32.298ZM211.596 31.8223C209.665 31.3869 208.148 30.6318 206.996 29.5905L205.655 31.0739C207.109 32.389 208.958 33.2777 211.156 33.7733L211.596 31.8223ZM207.017 29.61C205.907 28.5467 205.085 27.0583 204.597 25.0786L202.655 25.5576C203.213 27.8187 204.191 29.6731 205.634 31.0544L207.017 29.61ZM204.597 25.0786C204.121 23.1483 204.235 21.3459 204.918 19.6387L203.061 18.896C202.213 21.0155 202.085 23.247 202.655 25.5576L204.597 25.0786ZM204.922 19.6293C205.603 17.8753 206.803 16.3231 208.571 14.9771L207.359 13.3858C205.339 14.9236 203.889 16.762 203.057 18.9055L204.922 19.6293ZM208.582 14.9685C210.33 13.5982 212.601 12.5493 215.432 11.8511L214.953 9.90928C211.917 10.6582 209.37 11.8101 207.348 13.3943L208.582 14.9685ZM215.432 11.8511C217.715 11.2879 219.763 11.1084 221.586 11.2866L221.78 9.29607C219.685 9.09124 217.405 9.30427 214.953 9.90928L215.432 11.8511ZM221.592 11.2872C223.49 11.4611 225.088 11.891 226.409 12.5524L227.304 10.7641C225.716 9.96856 223.865 9.48714 221.774 9.2955L221.592 11.2872ZM226.422 12.5587C227.82 13.2345 228.917 14.0287 229.739 14.927L231.215 13.5767C230.189 12.4564 228.872 11.5215 227.292 10.7578L226.422 12.5587ZM229.739 14.927C230.58 15.8451 231.103 16.7591 231.358 17.6668L233.284 17.1254C232.928 15.8594 232.222 14.6773 231.215 13.5767L229.739 14.927ZM231.35 17.6356C231.354 17.6517 231.367 17.6988 231.306 17.8197L233.092 18.7197C233.333 18.2413 233.427 17.706 233.292 17.1566L231.35 17.6356ZM231.343 17.7526C231.33 17.7748 231.321 17.7812 231.317 17.784C231.312 17.7876 231.293 17.8008 231.243 17.8131L231.722 19.7548C232.28 19.6171 232.749 19.2931 233.055 18.7869L231.343 17.7526ZM231.243 17.8131L225.306 19.2776L225.785 21.2194L231.722 19.7548L231.243 17.8131ZM225.306 19.2776C225.085 19.3321 224.908 19.33 224.759 19.2964L224.319 21.2474C224.805 21.357 225.299 21.3394 225.785 21.2194L225.306 19.2776ZM224.759 19.2964C224.7 19.2832 224.587 19.2382 224.428 19.0513L222.905 20.3481C223.274 20.7809 223.742 21.1174 224.319 21.2474L224.759 19.2964ZM224.559 19.248C223.966 18.0772 222.877 17.3015 221.487 16.8366L220.852 18.7334C221.914 19.0883 222.49 19.5892 222.774 20.1514L224.559 19.248ZM221.524 16.8498C220.081 16.3035 218.433 16.3054 216.64 16.7477L217.119 18.6895C218.648 18.3124 219.86 18.3585 220.816 18.7202L221.524 16.8498ZM216.64 16.7477C214.802 17.2011 213.307 17.9259 212.264 18.9942L213.695 20.3914C214.388 19.6818 215.493 19.0904 217.119 18.6895L216.64 16.7477ZM212.253 19.0056C211.158 20.164 210.851 21.6197 211.244 23.214L213.186 22.735C212.934 21.7141 213.137 20.982 213.706 20.38L212.253 19.0056ZM211.244 23.214C211.503 24.2657 212.05 25.137 212.896 25.767L214.09 24.1628C213.65 23.8353 213.345 23.3797 213.186 22.735L211.244 23.214ZM212.948 25.8037C213.802 26.358 214.968 26.683 216.347 26.8539L216.593 24.8691C215.341 24.7139 214.523 24.4411 214.037 24.1261L212.948 25.8037ZM216.381 26.8575C217.757 26.9795 219.527 27.0562 221.684 27.0896L221.715 25.0898C219.582 25.0568 217.866 24.9813 216.558 24.8654L216.381 26.8575ZM221.74 27.0889C224.964 26.9596 227.597 27.0968 229.659 27.4822L230.026 25.5162C227.765 25.0935 224.969 24.9578 221.66 25.0905L221.74 27.0889ZM229.659 27.4822C231.683 27.8605 233.207 28.5895 234.303 29.6156L235.67 28.1558C234.231 26.8079 232.326 25.946 230.026 25.5162L229.659 27.4822ZM234.312 29.6235C235.389 30.6091 236.2 32.0512 236.689 34.0333L238.63 33.5543C238.073 31.2955 237.102 29.4656 235.662 28.1479L234.312 29.6235ZM236.689 34.0333C237.224 36.2043 237.061 38.1692 236.239 39.9721L238.059 40.8018C239.086 38.5495 239.263 36.1189 238.63 33.5543L236.689 34.0333ZM236.234 39.9839C235.429 41.8111 234.062 43.4334 232.078 44.8411L233.235 46.4722C235.463 44.8915 237.09 43.0007 238.064 40.79L236.234 39.9839ZM232.084 44.8365C230.127 46.2014 227.67 47.2626 224.686 47.9987L225.165 49.9405C228.33 49.1597 231.027 48.0123 233.228 46.4769L232.084 44.8365Z" fill="#19A467"/>
<path d="M216.025 49.5905L215.855 50.576L215.861 50.577L216.025 49.5905ZM209.928 46.9892L210.569 46.2219L210.569 46.2219L209.928 46.9892ZM206.817 42.3578L205.846 42.5973L205.851 42.6163L205.857 42.6351L206.817 42.3578ZM206.952 41.5372L207.808 42.0544L207.828 42.0215L207.845 41.9872L206.952 41.5372ZM214.467 39.6273L214.017 40.5203L214.056 40.5402L214.097 40.5565L214.467 39.6273ZM215.326 40.1464L216.133 39.5553L216.057 39.4528L215.959 39.3723L215.326 40.1464ZM216.924 41.6081L216.379 42.4469L216.393 42.4556L216.407 42.464L216.924 41.6081ZM219.556 42.4771L219.412 43.4666L219.428 43.4689L219.444 43.4707L219.556 42.4771ZM228.106 39.7494L227.383 39.0588L227.373 39.0691L228.106 39.7494ZM227.607 34.3052L227.116 35.1763L227.128 35.1833L227.141 35.1899L227.607 34.3052ZM224.312 33.4871L224.216 34.4825L224.224 34.4832L224.312 33.4871ZM218.698 33.2974L218.693 32.2974L218.68 32.2974L218.666 32.2979L218.698 33.2974ZM211.376 32.7977L211.156 33.7732L211.167 33.7757L211.179 33.778L211.376 32.7977ZM206.325 30.332L205.634 31.0543L205.644 31.0642L205.655 31.0737L206.325 30.332ZM203.989 19.2672L204.918 19.6386L204.922 19.6291L203.989 19.2672ZM207.965 14.1813L208.571 14.977L208.582 14.9684L207.965 14.1813ZM221.683 10.2912L221.586 11.2865L221.592 11.287L221.683 10.2912ZM226.857 11.6581L226.409 12.5522L226.415 12.5554L226.422 12.5585L226.857 11.6581ZM230.477 14.2517L229.739 14.9269L229.739 14.9269L230.477 14.2517ZM232.321 17.396L233.292 17.1565L233.288 17.1408L233.284 17.1253L232.321 17.396ZM232.199 18.2696L233.055 18.7868L233.075 18.7539L233.092 18.7196L232.199 18.2696ZM224.539 20.2718L224.759 19.2962L224.759 19.2962L224.539 20.2718ZM223.666 19.6996L222.774 20.1513L222.828 20.2574L222.905 20.348L223.666 19.6996ZM221.17 17.7849L220.816 18.7201L220.834 18.727L220.852 18.7332L221.17 17.7849ZM212.98 19.6926L212.264 18.994L212.259 18.9997L212.253 19.0055L212.98 19.6926ZM213.493 24.9648L212.896 25.7669L212.922 25.786L212.948 25.8035L213.493 24.9648ZM216.47 25.8613L216.347 26.8537L216.364 26.8559L216.381 26.8574L216.47 25.8613ZM221.7 26.0896L221.684 27.0895L221.712 27.0899L221.74 27.0888L221.7 26.0896ZM229.843 26.4991L230.026 25.5161L230.026 25.5161L229.843 26.4991ZM234.987 28.8856L234.303 29.6156L234.312 29.6234L234.987 28.8856ZM237.149 40.3868L236.239 39.972L236.234 39.9838L237.149 40.3868ZM232.656 45.6566L233.228 46.4768L233.235 46.4721L232.656 45.6566ZM224.686 47.9986C221.381 48.8138 218.557 48.9982 216.189 48.6041L215.861 50.577C218.575 51.0286 221.685 50.7989 225.165 49.9404L224.686 47.9986ZM216.194 48.605C213.819 48.1959 211.963 47.3864 210.569 46.2219L209.287 47.7564C211.011 49.1972 213.219 50.1219 215.855 50.576L216.194 48.605ZM210.569 46.2219C209.149 45.0346 208.233 43.656 207.778 42.0804L205.857 42.6351C206.432 44.6294 207.59 46.3384 209.287 47.7564L210.569 46.2219ZM207.788 42.1183C207.786 42.1086 207.786 42.1038 207.786 42.103C207.786 42.1025 207.786 42.1024 207.786 42.1026C207.786 42.1029 207.785 42.103 207.786 42.1029C207.786 42.1028 207.786 42.1021 207.786 42.1006C207.786 42.0991 207.787 42.0966 207.789 42.0929C207.791 42.0856 207.797 42.0728 207.808 42.0544L206.096 41.02C205.809 41.4961 205.709 42.0402 205.846 42.5973L207.788 42.1183ZM207.845 41.9872C207.855 41.9676 207.863 41.957 207.866 41.9525C207.87 41.9482 207.871 41.9479 207.869 41.9491C207.867 41.9504 207.867 41.9506 207.869 41.9496C207.871 41.9485 207.879 41.9449 207.895 41.9408L207.416 39.9991C206.807 40.1494 206.338 40.5341 206.059 41.0872L207.845 41.9872ZM207.895 41.9408L213.568 40.5416L213.089 38.5998L207.416 39.9991L207.895 41.9408ZM213.568 40.5416C213.889 40.4623 214.003 40.5135 214.017 40.5203L214.917 38.7343C214.331 38.439 213.686 38.4526 213.089 38.5998L213.568 40.5416ZM214.097 40.5565C214.279 40.6288 214.478 40.7448 214.693 40.9206L215.959 39.3723C215.61 39.0873 215.237 38.8572 214.836 38.698L214.097 40.5565ZM214.519 40.7376C214.999 41.3919 215.627 41.9586 216.379 42.4469L217.468 40.7693C216.881 40.3882 216.444 39.9805 216.133 39.5553L214.519 40.7376ZM216.407 42.464C217.253 42.9756 218.266 43.2993 219.412 43.4666L219.701 41.4876C218.746 41.3482 218.004 41.0925 217.441 40.7522L216.407 42.464ZM219.444 43.4707C220.639 43.6062 221.991 43.4688 223.478 43.102L222.999 41.1602C221.659 41.4907 220.556 41.584 219.669 41.4835L219.444 43.4707ZM223.478 43.102C225.847 42.5176 227.695 41.6622 228.839 40.4297L227.373 39.0691C226.622 39.8788 225.225 40.6112 222.999 41.1602L223.478 43.102ZM228.83 40.4399C230.024 39.1883 230.485 37.6939 230.081 36.0567L228.139 36.5357C228.363 37.4431 228.154 38.2508 227.383 39.0589L228.83 40.4399ZM230.081 36.0567C229.792 34.8854 229.123 33.9735 228.073 33.4204L227.141 35.1899C227.642 35.4539 227.975 35.8694 228.139 36.5357L230.081 36.0567ZM228.098 33.434C227.175 32.9137 225.91 32.6238 224.4 32.4909L224.224 34.4832C225.627 34.6066 226.558 34.8622 227.116 35.1763L228.098 33.434ZM224.408 32.4917C222.939 32.3502 221.031 32.2869 218.693 32.2974L218.702 34.2973C221.008 34.287 222.843 34.3502 224.216 34.4825L224.408 32.4917ZM218.666 32.2979C215.931 32.3845 213.57 32.2199 211.574 31.8174L211.179 33.778C213.364 34.2185 215.885 34.387 218.729 34.2969L218.666 32.2979ZM211.596 31.8222C209.665 31.3868 208.148 30.6317 206.996 29.5904L205.655 31.0737C207.109 32.3889 208.958 33.2776 211.156 33.7732L211.596 31.8222ZM207.017 29.6098C205.907 28.5466 205.085 27.0582 204.597 25.0784L202.655 25.5574C203.213 27.8186 204.191 29.6729 205.634 31.0543L207.017 29.6098ZM204.597 25.0784C204.121 23.1482 204.235 21.3458 204.918 19.6386L203.061 18.8959C202.213 21.0154 202.085 23.2468 202.655 25.5574L204.597 25.0784ZM204.922 19.6291C205.603 17.8752 206.803 16.323 208.571 14.9769L207.359 13.3857C205.339 14.9235 203.889 16.7619 203.057 18.9054L204.922 19.6291ZM208.582 14.9684C210.33 13.5981 212.601 12.5492 215.432 11.851L214.953 9.90916C211.917 10.658 209.37 11.81 207.348 13.3942L208.582 14.9684ZM215.432 11.851C217.715 11.2878 219.763 11.1082 221.586 11.2865L221.78 9.29595C219.685 9.09112 217.405 9.30415 214.953 9.90916L215.432 11.851ZM221.592 11.287C223.49 11.461 225.088 11.8909 226.409 12.5522L227.304 10.764C225.716 9.96844 223.865 9.48702 221.774 9.29538L221.592 11.287ZM226.422 12.5585C227.82 13.2343 228.917 14.0285 229.739 14.9269L231.215 13.5766C230.189 12.4563 228.872 11.5214 227.292 10.7577L226.422 12.5585ZM229.739 14.9269C230.58 15.845 231.103 16.759 231.358 17.6667L233.284 17.1253C232.928 15.8593 232.222 14.6771 231.215 13.5766L229.739 14.9269ZM231.35 17.6355C231.354 17.6516 231.367 17.6987 231.306 17.8196L233.092 18.7196C233.333 18.2412 233.427 17.7058 233.292 17.1565L231.35 17.6355ZM231.343 17.7524C231.33 17.7747 231.321 17.7811 231.317 17.7839C231.312 17.7875 231.293 17.8007 231.243 17.8129L231.722 19.7547C232.28 19.617 232.749 19.293 233.055 18.7868L231.343 17.7524ZM231.243 17.8129L225.306 19.2775L225.785 21.2193L231.722 19.7547L231.243 17.8129ZM225.306 19.2775C225.085 19.332 224.908 19.3299 224.759 19.2962L224.319 21.2473C224.805 21.3569 225.299 21.3392 225.785 21.2193L225.306 19.2775ZM224.759 19.2962C224.7 19.283 224.587 19.2381 224.428 19.0512L222.905 20.348C223.274 20.7807 223.742 21.1172 224.319 21.2473L224.759 19.2962ZM224.559 19.2479C223.966 18.0771 222.877 17.3014 221.487 16.8365L220.852 18.7332C221.914 19.0882 222.49 19.589 222.774 20.1513L224.559 19.2479ZM221.524 16.8496C220.081 16.3034 218.433 16.3052 216.64 16.7476L217.119 18.6894C218.648 18.3122 219.86 18.3583 220.816 18.7201L221.524 16.8496ZM216.64 16.7476C214.802 17.201 213.307 17.9257 212.264 18.994L213.695 20.3913C214.388 19.6817 215.493 19.0903 217.119 18.6894L216.64 16.7476ZM212.253 19.0055C211.158 20.1639 210.851 21.6196 211.244 23.2139L213.186 22.7349C212.934 21.714 213.137 20.9819 213.706 20.3798L212.253 19.0055ZM211.244 23.2139C211.503 24.2656 212.05 25.1368 212.896 25.7669L214.09 24.1627C213.65 23.8352 213.345 23.3795 213.186 22.7349L211.244 23.2139ZM212.948 25.8035C213.802 26.3579 214.968 26.6829 216.347 26.8537L216.593 24.8689C215.341 24.7138 214.523 24.441 214.037 24.126L212.948 25.8035ZM216.381 26.8574C217.757 26.9794 219.527 27.0561 221.684 27.0895L221.715 25.0897C219.582 25.0567 217.866 24.9812 216.558 24.8652L216.381 26.8574ZM221.74 27.0888C224.964 26.9594 227.597 27.0967 229.659 27.4821L230.026 25.5161C227.765 25.0934 224.969 24.9576 221.66 25.0904L221.74 27.0888ZM229.659 27.4821C231.683 27.8603 233.207 28.5894 234.303 29.6155L235.67 28.1556C234.231 26.8078 232.326 25.9459 230.026 25.5161L229.659 27.4821ZM234.312 29.6234C235.389 30.609 236.2 32.0511 236.689 34.0332L238.63 33.5542C238.073 31.2954 237.102 29.4654 235.662 28.1478L234.312 29.6234ZM236.689 34.0332C237.224 36.2042 237.061 38.1691 236.239 39.972L238.059 40.8017C239.086 38.5494 239.263 36.1188 238.63 33.5542L236.689 34.0332ZM236.234 39.9838C235.429 41.811 234.062 43.4333 232.078 44.841L233.235 46.4721C235.463 44.8913 237.09 43.0006 238.064 40.7899L236.234 39.9838ZM232.084 44.8363C230.127 46.2012 227.67 47.2625 224.686 47.9986L225.165 49.9404C228.33 49.1596 231.027 48.0122 233.228 46.4768L232.084 44.8363Z" fill="#19A467"/>
</svg>
