<svg width="27" height="26" viewBox="0 0 27 26" fill="none" xmlns="http://www.w3.org/2000/svg">
<path d="M13.2061 2.99976C7.69202 2.99976 3.20605 7.48572 3.20605 12.9998C3.20605 18.5138 7.69202 22.9998 13.2061 22.9998C18.7201 22.9998 23.2061 18.5138 23.2061 12.9998C23.2061 7.48572 18.7201 2.99976 13.2061 2.99976ZM19.8177 7.61129C21.0074 9.06476 21.7278 10.916 21.7466 12.9321C21.465 12.8725 18.641 12.2997 15.7989 12.6571C15.567 12.091 15.3481 11.5929 15.0482 10.9792C18.2063 9.68976 19.6377 7.85488 19.8177 7.61129ZM18.8682 6.62355C18.7146 6.84238 17.4288 8.57056 14.3915 9.70899C12.9919 7.13738 11.4405 5.0248 11.2044 4.70867C13.9132 4.05572 16.7676 4.75988 18.8682 6.62355ZM9.57464 5.28282C9.79984 5.59165 11.3262 7.70685 12.7415 10.2227C8.74601 11.2837 5.22694 11.2684 4.84493 11.2634C5.3988 8.61286 7.18501 6.40996 9.57464 5.28282ZM4.66452 13.0128C4.66452 12.9254 4.66626 12.8385 4.66888 12.7518C5.04259 12.7594 9.18178 12.8128 13.4473 11.5362C13.6919 12.0148 13.9254 12.5005 14.1398 12.9858C11.0512 13.8557 8.24493 16.3538 6.86037 18.7239C5.49614 17.2096 4.66452 15.2066 4.66452 13.0128ZM7.96319 19.7512C8.85541 17.9273 11.2768 15.5729 14.7204 14.3981C15.9196 17.5144 16.4155 20.1261 16.5425 20.8755C13.7961 22.0454 10.4936 21.7244 7.96319 19.7512ZM17.9785 20.0935C17.891 19.5739 17.4363 17.0735 16.3192 14.0035C18.9958 13.575 21.3474 14.2764 21.6396 14.3686C21.2589 16.7452 19.8947 18.7978 17.9785 20.0935Z" fill="#B0D16A"/>
</svg>
