<svg width="32" height="32" viewBox="0 0 32 32" fill="none" xmlns="http://www.w3.org/2000/svg">
<path d="M8 2C6.875 2 6 2.9375 6 4V10H4V4C4 1.8125 5.75 0 8 0H22.25C23.3125 0 24.3125 0.4375 25.0625 1.1875L26.8125 2.9375C27.5625 3.6875 28 4.6875 28 5.75V10H26V5.75C26 5.25 25.75 4.75 25.375 4.375L23.625 2.625C23.25 2.25 22.75 2 22.25 2H8ZM2 14V18H4H28H30V14H22.8125L22 14.875C21.25 15.625 20.1875 16 19.125 16H12.8125C11.75 16 10.6875 15.625 9.9375 14.875L11.375 13.4375C11.75 13.8125 12.25 14.0625 12.8125 14.0625H19.125C19.6875 14.0625 20.1875 13.8125 20.5625 13.4375L21.375 12.625C21.75 12.25 22.25 12 22.8125 12H30C31.0625 12 32 12.9375 32 14V18C32 19.125 31.0625 20 30 20V28C30 30.25 28.1875 32 26 32H6C3.75 32 2 30.25 2 28V20C0.875 20 0 19.125 0 18V14C0 12.9375 0.875 12 2 12H9.125C9.6875 12 10.1875 12.25 10.5625 12.625L11.375 13.4375L10 14.875L9.125 14H2ZM4 20V28C4 29.125 4.875 30 6 30H26C27.0625 30 28 29.125 28 28V20H4ZM10 26H22C22.5 26 23 26.5 23 27C23 27.5625 22.5 28 22 28H10C9.4375 28 9 27.5625 9 27C9 26.5 9.4375 26 10 26ZM9 23C9 23.5625 8.5 24 8 24C7.4375 24 7 23.5625 7 23C7 22.5 7.4375 22 8 22C8.5 22 9 22.5 9 23ZM12 24C11.4375 24 11 23.5625 11 23C11 22.5 11.4375 22 12 22C12.5 22 13 22.5 13 23C13 23.5625 12.5 24 12 24ZM17 23C17 23.5625 16.5 24 16 24C15.4375 24 15 23.5625 15 23C15 22.5 15.4375 22 16 22C16.5 22 17 22.5 17 23ZM20 24C19.4375 24 19 23.5625 19 23C19 22.5 19.4375 22 20 22C20.5 22 21 22.5 21 23C21 23.5625 20.5 24 20 24ZM25 23C25 23.5625 24.5 24 24 24C23.4375 24 23 23.5625 23 23C23 22.5 23.4375 22 24 22C24.5 22 25 22.5 25 23Z" fill="#ABCF6F"/>
</svg>
