<svg width="32" height="32" viewBox="0 0 32 32" fill="none" xmlns="http://www.w3.org/2000/svg">
<path d="M11.9375 2H20C21.3125 2 22.4375 2.875 22.875 4.0625L23.5 6H28C30.1875 6 32 7.8125 32 10V26C32 28.25 30.1875 30 28 30H4C1.75 30 0 28.25 0 26V10C0 7.8125 1.75 6 4 6H8.4375L9.0625 4.0625C9.5 2.875 10.625 2 11.9375 2ZM10.9375 4.6875L10.0625 7.375C9.9375 7.75 9.5625 8 9.125 8H4C2.875 8 2 8.9375 2 10V26C2 27.125 2.875 28 4 28H28C29.0625 28 30 27.125 30 26V10C30 8.9375 29.0625 8 28 8H22.8125C22.375 8 22 7.75 21.875 7.3125L21 4.6875C20.875 4.3125 20.4375 4 20.0625 4H11.9375C11.5 4 11.125 4.3125 10.9375 4.6875ZM16 25C13.4375 25 11.1875 23.6875 9.9375 21.5C8.625 19.375 8.625 16.6875 9.9375 14.5C11.1875 12.375 13.4375 11 16 11C18.5 11 20.75 12.375 22 14.5C23.3125 16.6875 23.3125 19.375 22 21.5C20.75 23.6875 18.5 25 16 25ZM11 18C11 19.8125 11.9375 21.4375 13.5 22.375C15 23.25 16.9375 23.25 18.5 22.375C20 21.4375 21 19.8125 21 18C21 16.25 20 14.625 18.5 13.6875C16.9375 12.8125 15 12.8125 13.5 13.6875C11.9375 14.625 11 16.25 11 18Z" fill="#ABCF6F"/>
</svg>
