<svg width="32" height="32" viewBox="0 0 32 32" fill="none" xmlns="http://www.w3.org/2000/svg">
<path d="M5 0C5.5 0 6 0.5 6 1C6 2.0625 6.375 3 7.0625 3.75L8.25 4.9375C9.375 6 10 7.5 10 9C10 9.5625 9.5 10 9 10C8.4375 10 8 9.5625 8 9C8 8 7.5625 7.0625 6.875 6.3125L5.6875 5.125C4.5625 4.0625 4 2.5625 4 1C4 0.5 4.4375 0 5 0ZM2 14V26C2 28.25 3.75 30 6 30H18C20.1875 30 22 28.25 22 26V14H21H2ZM24 14V24H25C27.75 24 30 21.8125 30 19C30 16.25 27.75 14 25 14H24ZM24 26C24 29.3125 21.3125 32 18 32H6C2.6875 32 0 29.3125 0 26V14C0 12.9375 0.875 12 2 12H21H22H25C28.8125 12 32 15.1875 32 19C32 22.875 28.8125 26 25 26H24ZM14 1C14 2.0625 14.375 3 15.0625 3.75L16.25 4.9375C17.375 6 18 7.5 18 9C18 9.5625 17.5 10 17 10C16.4375 10 16 9.5625 16 9C16 8 15.5625 7.0625 14.875 6.3125L13.6875 5.125C12.5625 4.0625 12 2.5625 12 1C12 0.5 12.4375 0 13 0C13.5 0 14 0.5 14 1Z" fill="#ABCF6F"/>
</svg>
