<svg width="32" height="32" viewBox="0 0 32 32" fill="none" xmlns="http://www.w3.org/2000/svg">
<path d="M6 0H27C28.625 0 30 1.375 30 3V23C30 24.3125 29.125 25.4375 28 25.875V30H29C29.5 30 30 30.5 30 31C30 31.5625 29.5 32 29 32H6C3.75 32 2 30.25 2 28V4C2 1.8125 3.75 0 6 0ZM26 26H6C4.875 26 4 26.9375 4 28C4 29.125 4.875 30 6 30H26V26ZM6 24H8V2H6C4.875 2 4 2.9375 4 4V24.5625C4.5625 24.25 5.25 24 6 24ZM10 24H27C27.5 24 28 23.5625 28 23V3C28 2.5 27.5 2 27 2H10V24ZM13 9C13 8.5 13.4375 8 14 8H24C24.5 8 25 8.5 25 9C25 9.5625 24.5 10 24 10H14C13.4375 10 13 9.5625 13 9ZM13 15C13 14.5 13.4375 14 14 14H24C24.5 14 25 14.5 25 15C25 15.5625 24.5 16 24 16H14C13.4375 16 13 15.5625 13 15Z" fill="#ABCF6F"/>
</svg>
