<svg width="166" height="200" viewBox="0 0 166 200" fill="none" xmlns="http://www.w3.org/2000/svg">
<path d="M5.11127 74.6775L5.11134 74.6775C15.2926 70.2512 56.9703 52.1209 83.4205 40.5254C99.2255 33.5969 114.257 27.0622 125.091 22.3523C132.562 19.1044 138.037 16.7243 140.393 15.6813C143.281 14.4026 145.097 13.8751 146.498 14.0047C147.878 14.1324 148.89 14.9027 150.159 16.3501C150.792 17.0724 151.167 17.6542 151.349 18.1312C151.528 18.6029 151.516 18.9628 151.387 19.2597C151.255 19.5636 150.989 19.8302 150.603 20.0864C150.217 20.3423 149.732 20.5755 149.185 20.8215L149.264 20.996L149.185 20.8216C144.658 22.8586 140.062 24.9757 133.225 28.1244C130.255 29.4926 126.861 31.0556 122.867 32.8913C109.384 39.088 89.5617 48.8846 79.2009 66.1079C69.3083 82.552 67.6542 98.4377 65.8149 116.103C65.7622 116.609 65.7093 117.117 65.656 117.627C63.7505 135.868 62.1624 173.966 61.6197 188.192C61.5277 190.6 61.6665 192.42 62.0914 193.71C62.5198 195.011 63.2475 195.793 64.3302 196.073C65.3909 196.348 66.7556 196.131 68.4407 195.541C70.1315 194.949 72.1762 193.969 74.6117 192.683C79.1068 190.309 81.5728 188.685 82.9263 186.803C84.2879 184.909 84.5076 182.777 84.6003 179.462C84.6564 177.459 84.6955 175.448 84.7381 173.264C84.8684 166.572 85.0304 158.246 85.8107 143.479C86.8461 123.908 88.0079 103.348 91.4556 88.4116C94.9461 73.2971 100.847 61.7722 110.167 52.7212C114.367 48.6422 119.964 45.2552 127.034 41.7432C131.79 39.3806 137.203 36.9658 143.298 34.2469C146.265 32.9233 149.393 31.5277 152.686 30.0309L152.607 29.8567L152.686 30.0309C155.136 28.9173 157.265 27.8478 158.949 26.7211C160.632 25.5952 161.889 24.4014 162.573 23.0322C163.957 20.2646 162.958 16.9008 158.857 12.1826C154.765 7.47493 151.987 5.01181 149.217 4.15986C146.434 3.30383 143.699 4.08554 139.746 5.72058C137.291 6.73602 119.391 14.5594 97.5368 24.111C91.89 26.579 85.9791 29.1624 80.0025 31.7736C55.1028 42.6505 23.5215 56.4316 10.0831 62.2958C8.72809 62.887 7.55756 63.3978 6.59692 63.817C4.65569 64.6626 3.33324 66.5111 3.14761 68.6317L3.1476 68.6318C3.02454 70.0448 2.89353 71.5311 2.7663 72.9704C2.70981 73.6096 2.97968 74.1469 3.45736 74.4938C3.93803 74.8451 4.56689 74.9139 5.11127 74.6775Z" fill="#ABCF6F" stroke="#050807" stroke-width="0.382602"/>
</svg>
