<svg width="330" height="330" viewBox="0 0 330 330" fill="none" xmlns="http://www.w3.org/2000/svg">
<path d="M30.8418 121.159L30.8431 121.16C31.4201 121.582 32.1745 121.665 32.8283 121.381C50.0623 113.888 120.609 83.1996 165.381 63.5723C192.141 51.8413 217.584 40.7804 235.92 32.8091C248.563 27.3128 257.827 23.2853 261.815 21.5197C266.524 19.4345 269.775 18.4521 272.423 18.6724C275.124 18.897 277.106 20.36 279.3 22.8621L279.3 22.8622C280.4 24.1179 281.106 25.1883 281.464 26.1265C281.826 27.0784 281.837 27.9162 281.515 28.6584C281.201 29.3822 280.6 29.9428 279.887 30.416C279.173 30.8902 278.296 31.3088 277.37 31.7252C269.71 35.172 261.933 38.7539 250.362 44.0834C245.334 46.3993 239.589 49.0451 232.827 52.1531C209.618 62.8208 176.665 79.1461 159.275 108.055C142.625 135.731 139.842 162.458 136.724 192.395C136.637 193.235 136.549 194.078 136.461 194.923C133.239 225.767 130.551 290.225 129.632 314.315C129.477 318.366 129.718 321.327 130.39 323.366C131.053 325.378 132.112 326.44 133.604 326.827C135.152 327.228 137.266 326.932 140.083 325.945C142.884 324.964 146.3 323.33 150.416 321.157C157.875 317.216 161.877 314.545 164.082 311.515C166.265 308.513 166.728 305.098 166.885 299.483C166.98 296.098 167.046 292.7 167.118 289.005C167.338 277.676 167.613 263.565 168.935 238.553C170.686 205.449 172.654 170.567 178.51 145.199C184.445 119.499 194.497 99.8357 210.411 84.3798C217.614 77.385 227.179 71.6065 239.169 65.6504C247.235 61.6435 256.424 57.5445 266.751 52.9375C271.77 50.6985 277.058 48.3395 282.617 45.8127C286.757 43.9308 290.331 42.1651 293.15 40.3237C295.973 38.4799 297.993 36.5897 299.077 34.4794C301.206 30.3382 299.858 25.034 292.781 16.8912C285.842 8.90828 281.278 4.92228 276.843 3.55803C272.442 2.20445 268.067 3.40315 261.368 6.17372C257.221 7.88921 226.935 21.1262 189.943 37.2938C180.383 41.4721 170.376 45.8461 160.255 50.2676L160.055 49.8094L160.255 50.2676C118.168 68.6526 64.8026 91.9396 42 101.89C39.6648 102.909 37.6501 103.788 36.0009 104.508L36.0006 104.508C32.9939 105.818 30.9416 108.683 30.6534 111.974L30.8418 121.159ZM30.8418 121.159C30.2642 120.74 29.9446 120.04 30.0079 119.319M30.8418 121.159L30.0079 119.319M30.0079 119.319C30.0747 118.559 30.147 117.738 30.2217 116.891M30.0079 119.319L30.2217 116.891M30.2217 116.891C30.3648 115.267 30.5165 113.546 30.6534 111.975L30.2217 116.891Z" stroke="#19A467"/>
</svg>
