<svg width="534" height="534" viewBox="0 0 534 534" fill="none" xmlns="http://www.w3.org/2000/svg">
<path d="M53.8991 197.499L53.8993 197.499C81.7457 185.393 195.737 135.805 268.08 104.09C311.309 85.1404 352.421 67.2673 382.053 54.3855C402.486 45.5025 417.46 38.9929 423.903 36.1401C431.514 32.7697 436.492 31.3214 440.405 31.6469C444.266 31.968 447.18 34.0273 450.641 37.9755C452.373 39.9517 453.401 41.5456 453.9 42.8538C454.393 44.1483 454.361 45.1392 454.005 45.9578C453.642 46.7948 452.908 47.5273 451.851 48.2291C450.795 48.9301 449.466 49.5687 447.97 50.2416L448.112 50.5562L447.97 50.2416C435.589 55.813 423.016 61.6038 404.318 70.216C396.193 73.9579 386.913 78.2325 375.988 83.2532C338.519 100.476 284.902 126.994 256.569 174.094C229.514 219.065 224.991 262.509 219.96 310.826C219.816 312.211 219.671 313.599 219.526 314.992C214.314 364.883 209.97 469.081 208.486 507.991C208.235 514.576 208.614 519.551 209.775 523.076C210.945 526.628 212.931 528.759 215.882 529.524C218.776 530.274 222.503 529.682 227.111 528.068C231.734 526.449 237.325 523.771 243.986 520.253C256.012 513.899 262.749 509.462 266.514 504.286C270.301 499.08 271.039 493.189 271.293 484.112C271.447 478.633 271.554 473.135 271.67 467.161C272.026 448.858 272.47 426.085 274.604 385.695C277.436 332.168 280.613 275.934 290.044 235.079C299.591 193.736 315.733 162.21 341.227 137.452C352.718 126.293 368.027 117.028 387.364 107.422C400.373 100.96 415.179 94.3547 431.849 86.9182C439.964 83.2982 448.52 79.4811 457.527 75.3875C464.224 72.3428 470.076 69.4558 474.72 66.4227C479.36 63.3919 482.842 60.1858 484.745 56.4822C488.593 48.9953 485.862 39.8009 474.396 26.6075C463.204 13.7313 455.609 6.99969 448.04 4.67173C440.437 2.3331 432.964 4.46761 422.152 8.93966C415.437 11.717 366.476 33.1164 306.699 59.2427C291.257 65.9916 275.094 73.0561 258.75 80.1964C190.709 109.919 104.425 147.571 67.6143 163.634C63.8667 165.269 60.6319 166.681 57.9813 167.837C52.6796 170.147 49.0677 175.195 48.5607 180.987L48.5607 180.987C48.3396 183.526 48.0947 186.305 47.8635 188.928C47.7427 190.298 47.6257 191.625 47.5178 192.854C47.3757 194.473 48.0918 196.05 49.3985 196.999C50.7065 197.955 52.4177 198.142 53.8991 197.499Z" fill="#B0D16A" stroke="#040807"/>
</svg>
