<svg width="937" height="534" viewBox="0 0 937 534" fill="none" xmlns="http://www.w3.org/2000/svg">
<path d="M448.899 197.286L448.899 197.286C476.745 185.18 590.737 135.593 663.08 103.878C706.309 84.9275 747.423 67.0541 777.054 54.1722C797.486 45.2896 812.459 38.7803 818.903 35.9276C826.514 32.5571 831.491 31.1089 835.405 31.4344C839.266 31.7555 842.18 33.8148 845.641 37.7629C847.373 39.7392 848.401 41.333 848.899 42.6412C849.393 43.9358 849.36 44.9267 849.005 45.7453C848.641 46.5823 847.908 47.3147 846.85 48.0166C845.795 48.7176 844.465 49.3562 842.97 50.029C830.588 55.6009 818.014 61.392 799.314 70.0052C791.19 73.7467 781.911 78.0208 770.988 83.0407C733.518 100.263 679.902 126.781 651.568 173.881C624.514 218.853 619.991 262.296 614.96 310.613C614.816 311.998 614.671 313.387 614.525 314.78C609.314 364.671 604.97 468.869 603.486 507.779C603.234 514.364 603.614 519.339 604.775 522.863C605.945 526.415 607.93 528.546 610.882 529.311C613.776 530.062 617.503 529.469 622.111 527.855C626.734 526.236 632.325 523.559 638.986 520.04L638.752 519.598L638.986 520.04C651.011 513.687 657.748 509.25 661.514 504.074C665.3 498.868 666.039 492.976 666.293 483.9C666.446 478.421 666.553 472.923 666.67 466.949C667.026 448.645 667.469 425.872 669.604 385.483C672.435 331.955 675.613 275.721 685.043 234.866C694.591 193.524 710.733 161.998 736.227 137.239C747.718 126.08 763.027 116.815 782.364 107.209C795.373 100.747 810.179 94.1421 826.849 86.7056C834.964 83.0856 843.52 79.2685 852.526 75.1749C859.224 72.1302 865.075 69.2433 869.72 66.2101C874.36 63.1794 877.842 59.9733 879.745 56.2697C883.592 48.7828 880.862 39.5883 869.396 26.395C858.204 13.5188 850.609 6.78716 843.04 4.45921C835.437 2.12058 827.964 4.25509 817.152 8.72713C810.437 11.5044 761.477 32.903 701.702 59.0286C686.259 65.778 670.095 72.843 653.75 79.9838C585.7 109.71 499.404 147.367 462.601 163.427C458.859 165.06 455.629 166.469 452.981 167.625C447.679 169.934 444.067 174.982 443.56 180.774L443.56 180.774C443.339 183.313 443.094 186.092 442.863 188.715C442.742 190.085 442.625 191.412 442.518 192.641C442.375 194.26 443.092 195.837 444.398 196.787C445.706 197.742 447.417 197.93 448.899 197.286Z" fill="#A2D060" stroke="#040807"/>
</svg>
