<svg width="534" height="535" viewBox="0 0 534 535" fill="none" xmlns="http://www.w3.org/2000/svg">
<path fill-rule="evenodd" clip-rule="evenodd" d="M267.88 104.42C195.537 136.134 81.5464 185.722 53.6999 197.828C52.381 198.401 50.8579 198.234 49.6935 197.383C48.5291 196.538 47.889 195.131 48.0159 193.685C48.3304 190.104 48.7222 185.683 49.0588 181.818C49.55 176.207 53.0487 171.319 58.181 169.083C86.8663 156.566 183.981 114.191 258.951 81.4423C338.566 46.6583 413.9 13.6817 422.343 10.1894C443.976 1.24179 451.619 1.95362 474.019 27.7232C496.926 54.0823 484.096 63.547 457.32 75.72C402.339 100.711 363.974 115.453 340.879 137.881C315.3 162.722 299.12 194.341 289.556 235.754C280.114 276.661 276.935 332.943 274.104 386.457C271.273 440.037 271.417 462.631 270.793 484.886C270.286 503.037 267.824 507.881 243.753 520.599C217.126 534.662 207.981 535.079 208.986 508.798C210.47 469.882 214.813 365.703 220.023 315.832C225.249 265.822 229.233 221.29 256.997 175.139C285.241 128.188 338.715 101.723 376.197 84.4952C412.266 67.918 430.417 59.4764 448.175 51.4853C454.158 48.7938 458.015 46.4192 451.017 38.4337C444.031 30.4648 438.921 29.7307 423.701 36.4706C407.912 43.4608 340.923 72.4001 267.88 104.42Z" fill="#B0D16A"/>
</svg>
