<svg width="26" height="27" viewBox="0 0 26 27" fill="none" xmlns="http://www.w3.org/2000/svg">
<path d="M6.1751 3.26624C5.63479 3.26624 5.2001 3.70092 5.2001 4.24124C5.2001 5.82155 6.15072 6.65436 6.78853 7.21092L6.83322 7.25155C7.49541 7.82842 7.8001 8.13717 7.8001 8.79124C7.8001 9.33155 8.23478 9.76624 8.7751 9.76624C9.31541 9.76624 9.7501 9.33155 9.7501 8.79124C9.7501 7.21092 8.79947 6.37811 8.16166 5.82155L8.11697 5.78092C7.45479 5.20405 7.1501 4.8953 7.1501 4.24124C7.1501 3.70092 6.71541 3.26624 6.1751 3.26624ZM3.9001 11.0662C3.18104 11.0662 2.6001 11.6472 2.6001 12.3662V20.1662C2.6001 22.3194 4.34697 24.0662 6.5001 24.0662H14.3001C16.4532 24.0662 18.2001 22.3194 18.2001 20.1662H18.8501C21.3648 20.1662 23.4001 18.1309 23.4001 15.6162C23.4001 13.1015 21.3648 11.0662 18.8501 11.0662H16.9001H3.9001ZM18.2001 13.6662H18.8501C19.9267 13.6662 20.8001 14.5397 20.8001 15.6162C20.8001 16.6928 19.9267 17.5662 18.8501 17.5662H18.2001V13.6662ZM11.7001 4.24124C11.7001 3.70092 11.2654 3.26624 10.7251 3.26624C10.1848 3.26624 9.7501 3.70092 9.7501 4.24124C9.7501 5.82155 10.7007 6.65436 11.3385 7.21092L11.3832 7.25155C12.0454 7.82842 12.3501 8.13717 12.3501 8.79124C12.3501 9.33155 12.7848 9.76624 13.3251 9.76624C13.8654 9.76624 14.3001 9.33155 14.3001 8.79124C14.3001 7.21092 13.3495 6.37811 12.7117 5.82155L12.667 5.78092C12.0048 5.20405 11.7001 4.8953 11.7001 4.24124Z" fill="#B0D16A"/>
</svg>
