<svg width="27" height="27" viewBox="0 0 27 27" fill="none" xmlns="http://www.w3.org/2000/svg">
<path d="M17.6596 3.9571C16.5018 3.51023 15.2465 3.26648 13.9303 3.26648C8.1859 3.26648 3.53027 7.9221 3.53027 13.6665C3.53027 19.4109 8.1859 24.0665 13.9303 24.0665C14.6493 24.0665 15.2303 23.4855 15.2303 22.7665C15.2303 22.0474 14.6493 21.4665 13.9303 21.4665C9.62402 21.4665 6.13027 17.9727 6.13027 13.6665C6.13027 9.36023 9.62402 5.86648 13.9303 5.86648C14.5031 5.86648 15.0596 5.92742 15.5959 6.04523L17.6596 3.9571ZM16.1484 17.4609C15.929 17.6762 15.6853 17.859 15.4253 18.0134C15.3562 18.123 15.3034 18.2449 15.2709 18.379C15.0921 19.0737 15.5106 19.7846 16.2053 19.9634C16.7253 20.0974 17.2696 20.1665 17.8303 20.1665C21.4215 20.1665 24.3303 17.2577 24.3303 13.6665C24.3303 12.3584 24.0906 11.1071 23.6478 9.95742L21.5596 12.0455C21.6693 12.5696 21.7303 13.1099 21.7303 13.6665C21.7303 15.8196 19.9834 17.5665 17.8303 17.5665C17.4931 17.5665 17.164 17.5218 16.8553 17.4446C16.6156 17.3837 16.3718 17.3918 16.1484 17.4609ZM22.7825 3.91648C22.0187 3.15273 20.7837 3.15679 20.024 3.91648L18.4153 5.52929L22.0431 9.1571L23.66 7.57679C24.4359 6.8171 24.44 5.56992 23.6762 4.80617L22.7825 3.91648ZM11.6756 12.2771C11.3912 12.5615 11.1759 12.9109 11.05 13.2927L10.0831 16.1893C9.96527 16.5387 10.0587 16.9246 10.3187 17.1887C10.5787 17.4527 10.9646 17.5421 11.3181 17.4243L14.2228 16.4534C14.5965 16.3274 14.9378 16.1202 15.2181 15.844L21.1128 10.0712L17.4931 6.45148L11.6756 12.2771Z" fill="#B0D16A"/>
</svg>
