<svg width="26" height="26" viewBox="0 0 26 26" fill="none" xmlns="http://www.w3.org/2000/svg">
<path d="M13.0239 24.9995C6.28358 24.9995 1.0481 19.3769 1.25133 12.7043C1.38681 8.87209 3.34165 5.33983 6.88842 3.00758C6.90294 3.00758 6.98036 2.97854 6.94165 3.04629C6.661 3.31241 1.55617 9.32693 6.25939 14.0011C8.66907 16.3963 10.6142 14.1221 10.6142 14.1221C12.4771 11.6979 10.5852 8.03016 10.5852 8.03016C10.1013 6.82532 8.37391 6.08983 8.37391 6.08983L9.76746 4.55112C10.9481 5.05919 11.8578 6.42371 11.8578 6.42371C11.8965 4.99145 10.7981 3.45274 10.7981 3.45274L12.9562 0.999512L15.0997 3.42371C14.1078 4.81725 14.04 6.45274 14.04 6.45274C14.7078 5.33983 16.1449 4.55112 16.1449 4.55112L17.5239 6.08983C16.1981 6.52048 15.3271 8.02048 15.3271 8.02048C14.5626 9.39951 14.0158 12.3463 15.3562 14.1802C16.9239 16.3382 19.5997 14.0447 19.5997 14.0447C24.5691 9.5979 19.0916 3.15758 19.0916 3.15758C18.7965 2.89145 19.1304 3.02209 19.1304 3.02209C21.5546 4.78822 24.6755 7.10596 24.7529 12.9318C24.8497 19.9769 19.9191 24.9995 13.0239 24.9995Z" fill="#B0D16A"/>
</svg>
