<svg width="365" height="822" viewBox="0 0 365 822" fill="none" xmlns="http://www.w3.org/2000/svg">
<path d="M299.168 787.791L298.228 787.45L297.887 788.39L298.827 788.731L299.168 787.791ZM313.575 793.593L314.481 793.169L314.481 793.169L313.575 793.593ZM310.253 802.76L309.829 801.854L309.829 801.854L310.253 802.76ZM269.26 787.903L270.166 787.479L270.166 787.479L269.26 787.903ZM287.361 783.512L287.021 784.452L287.961 784.793L288.302 783.853L287.361 783.512ZM302.599 743.072L303.023 743.978L302.599 743.072ZM311.904 746.927C312.223 747.043 312.38 747.204 312.473 747.403L314.284 746.555C313.941 745.821 313.342 745.321 312.585 745.047L311.904 746.927ZM312.473 747.403C312.566 747.601 312.589 747.825 312.473 748.144L314.354 748.826C314.628 748.069 314.628 747.289 314.284 746.555L312.473 747.403ZM312.473 748.144L298.228 787.45L300.108 788.132L314.354 748.826L312.473 748.144ZM298.827 788.731L312.174 793.568L312.855 791.688L299.509 786.851L298.827 788.731ZM312.174 793.568C312.416 793.656 312.565 793.794 312.669 794.017L314.481 793.169C314.149 792.46 313.591 791.954 312.855 791.688L312.174 793.568ZM312.669 794.017C312.774 794.24 312.784 794.443 312.696 794.685L314.577 795.367C314.843 794.631 314.813 793.879 314.481 793.169L312.669 794.017ZM312.696 794.685L310.304 801.285L312.185 801.967L314.577 795.367L312.696 794.685ZM310.304 801.285C310.189 801.604 310.027 801.761 309.829 801.854L310.677 803.666C311.411 803.322 311.91 802.723 312.185 801.967L310.304 801.285ZM309.829 801.854C309.606 801.959 309.403 801.969 309.161 801.881L308.479 803.761C309.215 804.028 309.967 803.997 310.677 803.666L309.829 801.854ZM309.161 801.881L270.735 787.955L270.053 789.835L308.479 803.761L309.161 801.881ZM270.735 787.955C270.416 787.839 270.259 787.677 270.166 787.479L268.354 788.327C268.698 789.061 269.296 789.561 270.053 789.835L270.735 787.955ZM270.166 787.479C270.073 787.281 270.05 787.056 270.165 786.738L268.285 786.056C268.011 786.813 268.011 787.593 268.354 788.327L270.166 787.479ZM270.165 786.738L272.557 780.138L270.677 779.456L268.285 786.056L270.165 786.738ZM272.557 780.138C272.645 779.895 272.783 779.747 273.006 779.642L272.158 777.831C271.449 778.163 270.943 778.721 270.677 779.456L272.557 780.138ZM273.006 779.642C273.204 779.549 273.429 779.526 273.747 779.642L274.429 777.761C273.672 777.487 272.893 777.487 272.158 777.831L273.006 779.642ZM273.747 779.642L287.021 784.452L287.702 782.572L274.429 777.761L273.747 779.642ZM288.302 783.853L302.547 744.547L300.667 743.865L286.421 783.171L288.302 783.853ZM302.547 744.547C302.663 744.228 302.824 744.07 303.023 743.978L302.175 742.166C301.441 742.51 300.941 743.108 300.667 743.865L302.547 744.547ZM303.023 743.978C303.221 743.885 303.445 743.862 303.764 743.977L304.445 742.097C303.689 741.823 302.909 741.823 302.175 742.166L303.023 743.978ZM303.764 743.977L311.904 746.927L312.585 745.047L304.445 742.097L303.764 743.977Z" fill="#19A467"/>
<path d="M277.516 733.792L278.497 733.596L278.489 733.559L278.479 733.522L277.516 733.792ZM276.94 735.616L277.588 736.377L277.63 736.342L277.667 736.302L276.94 735.616ZM236.203 770.265L235.555 769.503L235.522 769.531L235.491 769.563L236.203 770.265ZM222.464 762.553L223.434 762.795L223.444 762.752L223.451 762.709L222.464 762.553ZM230.824 709.731L229.859 709.467L229.845 709.52L229.836 709.574L230.824 709.731ZM232.08 708.289L231.81 707.326L231.773 707.337L231.737 707.35L232.08 708.289ZM241.633 713.74L242.595 713.47L242.595 713.47L241.633 713.74ZM241.749 714.968L240.767 714.78L240.762 714.802L240.759 714.824L241.749 714.968ZM240.397 724.228L239.408 724.083L239.309 724.763L239.908 725.1L240.397 724.228ZM259.578 734.994L259.089 735.866L259.688 736.202L260.217 735.764L259.578 734.994ZM266.779 729.018L267.418 729.787L267.435 729.773L267.452 729.758L266.779 729.018ZM267.888 728.477L268.158 729.44L267.888 728.477ZM252.137 742.356L252.791 743.112L253.868 742.181L252.626 741.484L252.137 742.356ZM238.057 734.453L238.547 733.581L237.309 732.886L237.071 734.286L238.057 734.453ZM234.068 757.974L233.082 757.807L232.616 760.551L234.721 758.731L234.068 757.974ZM276.236 733.683C276.428 733.791 276.511 733.91 276.554 734.063L278.479 733.522C278.283 732.825 277.838 732.29 277.215 731.939L276.236 733.683ZM276.536 733.988C276.59 734.262 276.549 734.429 276.48 734.552L278.224 735.531C278.562 734.929 278.63 734.263 278.497 733.596L276.536 733.988ZM276.48 734.552C276.384 734.722 276.293 734.844 276.213 734.929L277.667 736.302C277.881 736.075 278.065 735.815 278.224 735.531L276.48 734.552ZM276.292 734.854L235.555 769.503L236.851 771.026L277.588 736.377L276.292 734.854ZM235.491 769.563C235.219 769.839 234.882 770.027 234.448 770.122L234.875 772.076C235.665 771.903 236.356 771.535 236.916 770.966L235.491 769.563ZM234.448 770.122C234.145 770.188 233.729 770.144 233.145 769.816L232.166 771.56C233.034 772.048 233.955 772.277 234.875 772.076L234.448 770.122ZM233.145 769.816L224.439 764.93L223.46 766.674L232.166 771.56L233.145 769.816ZM224.439 764.93C223.856 764.602 223.601 764.27 223.5 763.976L221.609 764.63C221.917 765.52 222.592 766.187 223.46 766.674L224.439 764.93ZM223.5 763.976C223.355 763.557 223.34 763.172 223.434 762.795L221.494 762.31C221.3 763.084 221.345 763.865 221.609 764.63L223.5 763.976ZM223.451 762.709L231.812 709.887L229.836 709.574L221.476 762.396L223.451 762.709ZM231.789 709.994C231.82 709.881 231.876 709.74 231.972 709.57L230.228 708.591C230.068 708.874 229.941 709.167 229.859 709.467L231.789 709.994ZM231.972 709.57C232.041 709.447 232.162 709.324 232.424 709.228L231.737 707.35C231.099 707.583 230.566 707.989 230.228 708.591L231.972 709.57ZM232.351 709.252C232.504 709.209 232.648 709.218 232.84 709.326L233.819 707.582C233.195 707.232 232.507 707.131 231.81 707.326L232.351 709.252ZM232.84 709.326L239.914 713.296L240.893 711.552L233.819 707.582L232.84 709.326ZM239.914 713.296C240.48 713.614 240.632 713.876 240.67 714.011L242.595 713.47C242.355 712.613 241.687 711.998 240.893 711.552L239.914 713.296ZM240.67 714.011C240.789 714.433 240.787 714.671 240.767 714.78L242.731 715.157C242.834 714.619 242.755 714.039 242.595 713.47L240.67 714.011ZM240.759 714.824L239.408 724.083L241.387 724.372L242.738 715.113L240.759 714.824ZM239.908 725.1L259.089 735.866L260.068 734.122L240.887 723.356L239.908 725.1ZM260.217 735.764L267.418 729.787L266.14 728.248L258.94 734.225L260.217 735.764ZM267.452 729.758C267.533 729.684 267.736 729.558 268.158 729.44L267.617 727.514C267.048 727.674 266.512 727.909 266.107 728.278L267.452 729.758ZM268.158 729.44C268.293 729.402 268.596 729.395 269.162 729.713L270.141 727.969C269.347 727.523 268.473 727.274 267.617 727.514L268.158 729.44ZM269.162 729.713L276.236 733.683L277.215 731.939L270.141 727.969L269.162 729.713ZM252.626 741.484L238.547 733.581L237.568 735.325L251.647 743.228L252.626 741.484ZM237.071 734.286L233.082 757.807L235.053 758.142L239.043 734.62L237.071 734.286ZM234.721 758.731L252.791 743.112L251.483 741.599L233.414 757.218L234.721 758.731Z" fill="#19A467"/>
<path d="M220.435 700.465L221.431 700.371L221.431 700.371L220.435 700.465ZM186.34 741.703L186.245 740.708L186.245 740.708L186.34 741.703ZM178.465 735.192L179.46 735.098L179.46 735.098L178.465 735.192ZM178.47 734.084L179.445 734.309L179.457 734.257L179.463 734.205L178.47 734.084ZM183.146 695.746L184.139 695.867L184.552 692.476L182.375 695.108L183.146 695.746ZM161.452 721.127L161.358 720.131L161.358 720.131L161.452 721.127ZM153.217 714.317L154.212 714.223L154.212 714.223L153.217 714.317ZM187.313 673.079L187.218 672.084L187.185 672.087L187.152 672.092L187.313 673.079ZM195.248 679.64L196.247 679.687L196.25 679.616L196.243 679.546L195.248 679.64ZM195.242 680.748L196.236 680.857L196.247 680.756L196.238 680.654L195.242 680.748ZM191.153 718.255L190.158 718.147L189.797 721.464L191.923 718.893L191.153 718.255ZM212.2 693.656L212.294 694.652L212.2 693.656ZM219.064 699.92C219.325 700.137 219.419 700.342 219.44 700.56L221.431 700.371C221.354 699.564 220.959 698.892 220.339 698.379L219.064 699.92ZM219.44 700.56C219.461 700.778 219.407 700.997 219.191 701.258L220.732 702.532C221.245 701.912 221.507 701.178 221.431 700.371L219.44 700.56ZM219.191 701.258L186.884 740.332L188.426 741.606L220.732 702.532L219.191 701.258ZM186.884 740.332C186.668 740.593 186.463 740.687 186.245 740.708L186.434 742.699C187.241 742.622 187.913 742.227 188.426 741.606L186.884 740.332ZM186.245 740.708C186.027 740.728 185.808 740.675 185.547 740.459L184.272 742C184.893 742.513 185.627 742.775 186.434 742.699L186.245 740.708ZM185.547 740.459L180.076 735.936L178.802 737.477L184.272 742L185.547 740.459ZM180.076 735.936C179.576 735.522 179.473 735.237 179.46 735.098L177.469 735.287C177.553 736.172 178.1 736.897 178.802 737.477L180.076 735.936ZM179.46 735.098C179.438 734.863 179.429 734.677 179.43 734.536C179.43 734.466 179.433 734.412 179.436 734.371C179.438 734.351 179.44 734.336 179.442 734.325C179.443 734.32 179.443 734.316 179.444 734.313C179.444 734.31 179.445 734.309 179.445 734.309L177.496 733.858C177.404 734.255 177.42 734.765 177.469 735.287L179.46 735.098ZM179.463 734.205L184.139 695.867L182.153 695.625L177.478 733.963L179.463 734.205ZM182.375 695.108L161.997 719.755L163.539 721.03L183.917 696.383L182.375 695.108ZM161.997 719.755C161.781 720.016 161.576 720.11 161.358 720.131L161.547 722.122C162.354 722.046 163.026 721.65 163.539 721.03L161.997 719.755ZM161.358 720.131C161.113 720.154 160.919 720.096 160.72 719.932L159.445 721.473C160.048 721.971 160.767 722.196 161.547 722.122L161.358 720.131ZM160.72 719.932L154.588 714.862L153.314 716.403L159.445 721.473L160.72 719.932ZM154.588 714.862C154.327 714.646 154.233 714.441 154.212 714.223L152.221 714.412C152.298 715.219 152.693 715.891 153.314 716.403L154.588 714.862ZM154.212 714.223C154.192 714.005 154.245 713.786 154.461 713.525L152.92 712.25C152.407 712.87 152.145 713.605 152.221 714.412L154.212 714.223ZM154.461 713.525L186.768 674.451L185.227 673.176L152.92 712.25L154.461 713.525ZM186.768 674.451C186.935 674.249 187.15 674.119 187.473 674.066L187.152 672.092C186.384 672.217 185.723 672.576 185.227 673.176L186.768 674.451ZM187.407 674.075C187.625 674.054 187.844 674.108 188.105 674.324L189.38 672.782C188.76 672.269 188.025 672.007 187.218 672.084L187.407 674.075ZM188.105 674.324L193.636 678.896L194.91 677.355L189.38 672.782L188.105 674.324ZM193.636 678.896C194.136 679.31 194.239 679.595 194.252 679.734L196.243 679.546C196.159 678.66 195.612 677.935 194.91 677.355L193.636 678.896ZM194.249 679.593C194.224 680.113 194.218 680.546 194.246 680.843L196.238 680.654C196.224 680.512 196.222 680.206 196.247 679.687L194.249 679.593ZM194.248 680.64L190.158 718.147L192.147 718.364L196.236 680.857L194.248 680.64ZM191.923 718.893L211.655 695.027L210.114 693.753L190.382 717.618L191.923 718.893ZM211.655 695.027C211.871 694.766 212.076 694.672 212.294 694.652L212.105 692.66C211.298 692.737 210.627 693.133 210.114 693.753L211.655 695.027ZM212.294 694.652C212.512 694.631 212.731 694.684 212.993 694.901L214.267 693.359C213.647 692.846 212.912 692.584 212.105 692.66L212.294 694.652ZM212.993 694.901L219.064 699.92L220.339 698.379L214.267 693.359L212.993 694.901Z" fill="#19A467"/>
<path d="M171.561 658.361L172.557 658.452L172.557 658.452L171.561 658.361ZM130.447 692.607L130.538 691.611L130.538 691.611L130.447 692.607ZM123.908 684.756L124.903 684.847L124.903 684.847L123.908 684.756ZM124.118 683.667L125.034 684.068L125.055 684.02L125.071 683.969L124.118 683.667ZM135.781 646.848L136.734 647.15L137.765 643.893L135.141 646.08L135.781 646.848ZM109.78 667.795L109.871 666.799L109.871 666.799L109.78 667.795ZM102.941 659.584L103.937 659.675L103.937 659.675L102.941 659.584ZM144.055 625.338L144.145 624.343L144.112 624.34L144.079 624.339L144.055 625.338ZM150.644 633.25L151.617 633.48L151.633 633.411L151.64 633.34L150.644 633.25ZM150.434 634.338L151.391 634.628L151.421 634.53L151.43 634.429L150.434 634.338ZM139.5 670.448L138.543 670.158L137.576 673.352L140.14 671.216L139.5 670.448ZM164.722 650.15L164.631 651.146L164.722 650.15ZM170.314 657.573C170.531 657.834 170.585 658.052 170.565 658.27L172.557 658.452C172.63 657.645 172.365 656.911 171.85 656.293L170.314 657.573ZM170.565 658.27C170.545 658.489 170.452 658.694 170.192 658.911L171.472 660.448C172.09 659.933 172.483 659.259 172.557 658.452L170.565 658.27ZM170.192 658.911L131.235 691.36L132.515 692.896L171.472 660.448L170.192 658.911ZM131.235 691.36C130.975 691.577 130.756 691.631 130.538 691.611L130.356 693.603C131.164 693.676 131.897 693.411 132.515 692.896L131.235 691.36ZM130.538 691.611C130.32 691.591 130.114 691.498 129.897 691.238L128.361 692.518C128.876 693.136 129.549 693.529 130.356 693.603L130.538 691.611ZM129.897 691.238L125.355 685.784L123.818 687.064L128.361 692.518L129.897 691.238ZM125.355 685.784C124.939 685.285 124.891 684.986 124.903 684.847L122.912 684.665C122.831 685.551 123.235 686.364 123.818 687.064L125.355 685.784ZM124.903 684.847C124.925 684.612 124.95 684.428 124.977 684.289C124.99 684.22 125.003 684.167 125.014 684.128C125.02 684.109 125.024 684.094 125.028 684.084C125.03 684.079 125.031 684.075 125.032 684.072C125.033 684.07 125.034 684.068 125.034 684.068L123.201 683.266C123.038 683.639 122.959 684.143 122.912 684.665L124.903 684.847ZM125.071 683.969L136.734 647.15L134.827 646.546L123.164 683.365L125.071 683.969ZM135.141 646.08L110.568 666.547L111.848 668.084L136.421 647.617L135.141 646.08ZM110.568 666.547C110.308 666.765 110.089 666.819 109.871 666.799L109.689 668.791C110.496 668.864 111.23 668.599 111.848 668.084L110.568 666.547ZM109.871 666.799C109.625 666.777 109.445 666.684 109.28 666.485L107.743 667.766C108.244 668.367 108.909 668.72 109.689 668.791L109.871 666.799ZM109.28 666.485L104.188 660.372L102.651 661.652L107.743 667.766L109.28 666.485ZM104.188 660.372C103.971 660.112 103.917 659.893 103.937 659.675L101.945 659.493C101.871 660.301 102.136 661.034 102.651 661.652L104.188 660.372ZM103.937 659.675C103.957 659.457 104.05 659.251 104.31 659.034L103.03 657.498C102.412 658.013 102.019 658.686 101.945 659.493L103.937 659.675ZM104.31 659.034L143.266 626.586L141.986 625.049L103.03 657.498L104.31 659.034ZM143.266 626.586C143.467 626.418 143.703 626.33 144.03 626.338L144.079 624.339C143.301 624.32 142.584 624.551 141.986 625.049L143.266 626.586ZM143.964 626.334C144.182 626.354 144.387 626.447 144.604 626.708L146.141 625.428C145.626 624.809 144.953 624.416 144.145 624.343L143.964 626.334ZM144.604 626.708L149.197 632.222L150.734 630.942L146.141 625.428L144.604 626.708ZM149.197 632.222C149.613 632.72 149.661 633.019 149.648 633.159L151.64 633.34C151.721 632.454 151.317 631.641 150.734 630.942L149.197 632.222ZM149.671 633.019C149.551 633.526 149.465 633.95 149.438 634.247L151.43 634.429C151.443 634.287 151.497 633.985 151.617 633.48L149.671 633.019ZM149.477 634.048L138.543 670.158L140.457 670.738L151.391 634.628L149.477 634.048ZM140.14 671.216L163.934 651.398L162.654 649.861L138.86 669.68L140.14 671.216ZM163.934 651.398C164.194 651.181 164.413 651.127 164.631 651.146L164.813 649.155C164.005 649.081 163.272 649.346 162.654 649.861L163.934 651.398ZM164.631 651.146C164.849 651.166 165.054 651.259 165.271 651.52L166.808 650.24C166.293 649.621 165.62 649.228 164.813 649.155L164.631 651.146ZM165.271 651.52L170.314 657.573L171.85 656.293L166.808 650.24L165.271 651.52Z" fill="#19A467"/>
<path d="M131.685 608.279L132.65 608.538L132.65 608.538L131.685 608.279ZM85.3171 634.983L85.5769 634.018L85.5769 634.018L85.3171 634.983ZM74.0542 597.454L74.3141 596.489L74.3141 596.489L74.0542 597.454ZM87.8408 620.298L86.9742 620.797L87.4733 621.664L88.3399 621.165L87.8408 620.298ZM98.4526 614.186L98.9517 615.053L99.8183 614.554L99.3192 613.687L98.4526 614.186ZM86.4688 592.285L85.5031 592.025L85.5031 592.025L86.4688 592.285ZM93.8362 588.042L94.0961 587.076L94.0961 587.076L93.8362 588.042ZM106.766 609.398L105.9 609.897L106.399 610.764L107.265 610.265L106.766 609.398ZM117.716 603.092L118.215 603.958L119.082 603.459L118.583 602.593L117.716 603.092ZM104.564 579.162L105.53 579.422L105.53 579.422L104.564 579.162ZM112.337 574.686L112.078 575.651L112.078 575.651L112.337 574.686ZM130.591 607.289C130.76 607.582 130.776 607.807 130.719 608.019L132.65 608.538C132.861 607.756 132.725 606.988 132.324 606.29L130.591 607.289ZM130.719 608.019C130.662 608.23 130.535 608.417 130.242 608.586L131.24 610.319C131.937 609.917 132.44 609.321 132.65 608.538L130.719 608.019ZM130.242 608.586L86.3071 633.889L87.3053 635.622L131.24 610.319L130.242 608.586ZM86.3071 633.889C86.0133 634.058 85.7883 634.075 85.5769 634.018L85.0572 635.949C85.84 636.16 86.6078 636.024 87.3053 635.622L86.3071 633.889ZM85.5769 634.018C85.3655 633.961 85.179 633.834 85.0098 633.54L83.2767 634.538C83.6784 635.236 84.2745 635.738 85.0572 635.949L85.5769 634.018ZM85.0098 633.54L67.3753 602.921L65.6422 603.919L83.2767 634.538L85.0098 633.54ZM67.3753 602.921C67.2061 602.627 67.19 602.402 67.2468 602.191L65.3155 601.671C65.1049 602.454 65.2405 603.222 65.6422 603.919L67.3753 602.921ZM67.2468 602.191C67.3037 601.98 67.4306 601.793 67.7244 601.624L66.7263 599.891C66.0288 600.292 65.5262 600.889 65.3155 601.671L67.2468 602.191ZM67.7244 601.624L73.1317 598.51L72.1336 596.777L66.7263 599.891L67.7244 601.624ZM73.1317 598.51C73.3551 598.381 73.5563 598.356 73.7944 598.42L74.3141 596.489C73.5579 596.285 72.8114 596.386 72.1336 596.777L73.1317 598.51ZM73.7944 598.42C74.0058 598.477 74.1923 598.604 74.3615 598.898L76.0946 597.899C75.6929 597.202 75.0968 596.699 74.3141 596.489L73.7944 598.42ZM74.3615 598.898L86.9742 620.797L88.7073 619.799L76.0946 597.899L74.3615 598.898ZM88.3399 621.165L98.9517 615.053L97.9536 613.32L87.3417 619.432L88.3399 621.165ZM99.3192 613.687L87.5629 593.275L85.8298 594.273L97.5861 614.686L99.3192 613.687ZM87.5629 593.275C87.3937 592.981 87.3775 592.756 87.4344 592.545L85.5031 592.025C85.2925 592.808 85.4281 593.575 85.8298 594.273L87.5629 593.275ZM87.4344 592.545C87.4913 592.333 87.6182 592.147 87.912 591.977L86.9138 590.244C86.2163 590.646 85.7138 591.242 85.5031 592.025L87.4344 592.545ZM87.912 591.977L92.9138 589.097L91.9156 587.364L86.9138 590.244L87.912 591.977ZM92.9138 589.097C93.1372 588.968 93.3383 588.943 93.5764 589.007L94.0961 587.076C93.34 586.872 92.5934 586.973 91.9156 587.364L92.9138 589.097ZM93.5764 589.007C93.7878 589.064 93.9743 589.191 94.1435 589.485L95.8766 588.487C95.4749 587.789 94.8789 587.287 94.0961 587.076L93.5764 589.007ZM94.1435 589.485L105.9 609.897L107.633 608.899L95.8766 588.487L94.1435 589.485ZM107.265 610.265L118.215 603.958L117.217 602.225L106.267 608.532L107.265 610.265ZM118.583 602.593L105.659 580.153L103.925 581.151L116.85 603.591L118.583 602.593ZM105.659 580.153C105.489 579.859 105.473 579.634 105.53 579.422L103.599 578.903C103.388 579.685 103.524 580.453 103.925 581.151L105.659 580.153ZM105.53 579.422C105.587 579.211 105.714 579.024 106.008 578.855L105.01 577.122C104.312 577.524 103.809 578.12 103.599 578.903L105.53 579.422ZM106.008 578.855L111.347 575.78L110.349 574.047L105.01 577.122L106.008 578.855ZM111.347 575.78C111.641 575.611 111.866 575.594 112.078 575.651L112.597 573.72C111.815 573.509 111.047 573.645 110.349 574.047L111.347 575.78ZM112.078 575.651C112.289 575.708 112.476 575.835 112.645 576.129L114.378 575.131C113.976 574.433 113.38 573.931 112.597 573.72L112.078 575.651ZM112.645 576.129L130.591 607.289L132.324 606.29L114.378 575.131L112.645 576.129Z" fill="#19A467"/>
<path d="M103.871 558.046L104.779 558.466L104.779 558.466L103.871 558.046ZM53.6343 576.467L54.0547 575.56L54.0547 575.56L53.6343 576.467ZM44.4797 539.946L45.4269 540.267L45.4295 540.259L44.4797 539.946ZM64.5038 529.53L64.7693 528.566L64.7693 528.566L64.5038 529.53ZM72.3739 534.453L71.6339 535.126L72.3981 535.967L73.135 535.102L72.3739 534.453ZM86.8956 517.414L86.1678 516.729L86.1507 516.747L86.1345 516.766L86.8956 517.414ZM88.8802 516.936L89.3007 516.029L89.2658 516.012L89.2298 515.999L88.8802 516.936ZM92.769 528.221L93.653 528.689L93.6653 528.665L93.6763 528.641L92.769 528.221ZM91.7999 529.656L91.0721 528.971L91.0632 528.98L91.0546 528.99L91.7999 529.656ZM78.3058 544.74L77.5605 544.073L77.1603 544.521L77.367 545.084L78.3058 544.74ZM81.555 553.601L80.6162 553.945L80.9604 554.884L81.8993 554.54L81.555 553.601ZM99.9778 547.427L99.5573 548.335L99.9778 547.427ZM72.2546 557.011L72.5988 557.95L73.5377 557.606L73.1934 556.667L72.2546 557.011ZM64.8115 542.377L64.3565 543.268L64.3649 543.272L64.3734 543.276L64.8115 542.377ZM58.194 562.167L57.2551 562.511L57.5994 563.45L58.5383 563.106L58.194 562.167ZM102.962 556.884C103.079 557.202 103.056 557.427 102.964 557.625L104.779 558.466C105.12 557.731 105.117 556.951 104.84 556.196L102.962 556.884ZM102.964 557.625C102.872 557.824 102.715 557.986 102.397 558.103L103.085 559.981C103.841 559.704 104.438 559.202 104.779 558.466L102.964 557.625ZM102.397 558.103L54.7961 575.557L55.4847 577.435L103.085 559.981L102.397 558.103ZM54.7961 575.557C54.4778 575.674 54.2533 575.652 54.0547 575.56L53.2138 577.374C53.9493 577.715 54.729 577.712 55.4847 577.435L54.7961 575.557ZM54.0547 575.56C53.8561 575.468 53.6939 575.311 53.5772 574.993L51.6994 575.681C51.9765 576.437 52.4783 577.033 53.2138 577.374L54.0547 575.56ZM53.5772 574.993L46.4612 555.586L44.5834 556.275L51.6994 575.681L53.5772 574.993ZM46.4612 555.586C44.2744 549.622 43.9795 544.539 45.4269 540.267L43.5326 539.625C41.8946 544.46 42.2947 550.033 44.5834 556.275L46.4612 555.586ZM45.4295 540.259C46.8104 536.066 49.9315 533.031 54.9739 531.182L54.2854 529.304C48.7823 531.322 45.1368 534.755 43.5299 539.633L45.4295 540.259ZM54.9739 531.182C58.3845 529.931 61.4598 529.729 64.2382 530.494L64.7693 528.566C61.5101 527.668 58.0026 527.941 54.2854 529.304L54.9739 531.182ZM64.2382 530.494C67.0638 531.272 69.5256 532.807 71.6339 535.126L73.1138 533.781C70.7663 531.198 67.9814 529.45 64.7693 528.566L64.2382 530.494ZM73.135 535.102L87.6567 518.063L86.1345 516.766L71.6128 533.805L73.135 535.102ZM87.6234 518.1C87.7909 517.923 87.9076 517.859 87.9649 517.838L87.2764 515.96C86.8454 516.118 86.4788 516.399 86.1678 516.729L87.6234 518.1ZM87.9649 517.838C88.0976 517.79 88.269 517.775 88.5306 517.873L89.2298 515.999C88.5931 515.761 87.9248 515.723 87.2764 515.96L87.9649 517.838ZM88.4598 517.843C88.6037 517.91 88.7076 518.01 88.7835 518.218L90.6613 517.529C90.415 516.857 89.9574 516.333 89.3007 516.029L88.4598 517.843ZM88.7835 518.218L91.7642 526.346L93.6419 525.658L90.6613 517.529L88.7835 518.218ZM91.7642 526.346C92.0334 527.08 91.9891 527.526 91.8617 527.801L93.6763 528.641C94.1054 527.715 94.0172 526.681 93.6419 525.658L91.7642 526.346ZM91.885 527.753C91.5811 528.328 91.3068 528.721 91.0721 528.971L92.5277 530.342C92.9309 529.914 93.3027 529.351 93.653 528.689L91.885 527.753ZM91.0546 528.99L77.5605 544.073L79.0511 545.407L92.5452 530.323L91.0546 528.99ZM77.367 545.084L80.6162 553.945L82.4939 553.257L79.2447 544.396L77.367 545.084ZM81.8993 554.54L98.8159 548.337L98.1273 546.459L81.2108 552.662L81.8993 554.54ZM98.8159 548.337C99.1342 548.22 99.3587 548.243 99.5573 548.335L100.398 546.52C99.6627 546.179 98.8831 546.182 98.1273 546.459L98.8159 548.337ZM99.5573 548.335C99.7559 548.427 99.9181 548.583 100.035 548.902L101.913 548.213C101.636 547.458 101.134 546.861 100.398 546.52L99.5573 548.335ZM100.035 548.902L102.962 556.884L104.84 556.196L101.913 548.213L100.035 548.902ZM73.1934 556.667L69.7563 547.293L67.8785 547.982L71.3157 557.356L73.1934 556.667ZM69.7563 547.293C68.7283 544.49 67.2646 542.46 65.2497 541.478L64.3734 543.276C65.7304 543.938 66.9373 545.415 67.8785 547.982L69.7563 547.293ZM65.2665 541.487C63.2607 540.462 61.0117 540.462 58.616 541.341L59.3045 543.218C61.3027 542.486 62.9546 542.551 64.3565 543.268L65.2665 541.487ZM58.616 541.341C56.2293 542.216 54.4911 543.643 53.5516 545.67L55.3663 546.511C56.0347 545.068 57.2973 543.955 59.3045 543.218L58.616 541.341ZM53.5516 545.67C52.5897 547.746 52.7711 550.283 53.818 553.138L55.6957 552.449C54.7376 549.836 54.7204 547.904 55.3663 546.511L53.5516 545.67ZM53.818 553.138L57.2551 562.511L59.1329 561.823L55.6957 552.449L53.818 553.138ZM58.5383 563.106L72.5988 557.95L71.9103 556.072L57.8497 561.228L58.5383 563.106Z" fill="#19A467"/>
<path d="M34.2258 465.876L34.1219 464.881L33.1273 464.985L33.2313 465.98L34.2258 465.876ZM35.2956 481.37L36.0724 482L36.0724 482L35.2956 481.37ZM25.5984 482.383L26.2282 481.607L26.2282 481.607L25.5984 482.383ZM21.0679 439.017L21.8446 439.647L21.8446 439.647L21.0679 439.017ZM32.921 453.386L31.9264 453.49L32.0303 454.484L33.0249 454.38L32.921 453.386ZM75.9558 449.439L75.326 450.215L75.9558 449.439ZM76.5498 459.493C76.585 459.831 76.5083 460.043 76.3705 460.213L77.924 461.472C78.4345 460.843 78.6226 460.086 78.539 459.286L76.5498 459.493ZM76.3705 460.213C76.2326 460.383 76.0409 460.502 75.7036 460.537L75.9114 462.526C76.712 462.442 77.4134 462.102 77.924 461.472L76.3705 460.213ZM75.7036 460.537L34.1219 464.881L34.3297 466.87L75.9114 462.526L75.7036 460.537ZM33.2313 465.98L34.7063 480.099L36.6955 479.891L35.2204 465.772L33.2313 465.98ZM34.7063 480.099C34.7331 480.355 34.6741 480.549 34.5189 480.741L36.0724 482C36.5655 481.392 36.7767 480.669 36.6955 479.891L34.7063 480.099ZM34.5189 480.741C34.3636 480.932 34.186 481.03 33.9296 481.057L34.1374 483.046C34.9154 482.965 35.5792 482.608 36.0724 482L34.5189 480.741ZM33.9296 481.057L26.9476 481.786L27.1554 483.775L34.1374 483.046L33.9296 481.057ZM26.9476 481.786C26.6104 481.821 26.3982 481.745 26.2282 481.607L24.9686 483.16C25.5983 483.671 26.3549 483.859 27.1554 483.775L26.9476 481.786ZM26.2282 481.607C26.0367 481.451 25.9389 481.274 25.9122 481.017L23.923 481.225C24.0043 482.003 24.3604 482.667 24.9686 483.16L26.2282 481.607ZM25.9122 481.017L21.6653 440.367L19.6761 440.574L23.923 481.225L25.9122 481.017ZM21.6653 440.367C21.6301 440.029 21.7068 439.817 21.8446 439.647L20.2911 438.388C19.7806 439.017 19.5925 439.774 19.6761 440.574L21.6653 440.367ZM21.8446 439.647C21.9825 439.477 22.1742 439.358 22.5115 439.323L22.3037 437.334C21.5031 437.418 20.8017 437.758 20.2911 438.388L21.8446 439.647ZM22.5115 439.323L29.4935 438.594L29.2857 436.605L22.3037 437.334L22.5115 439.323ZM29.4935 438.594C29.7499 438.567 29.9438 438.626 30.1353 438.781L31.3949 437.228C30.7867 436.734 30.0636 436.523 29.2857 436.605L29.4935 438.594ZM30.1353 438.781C30.3053 438.919 30.4242 439.111 30.4595 439.448L32.4486 439.24C32.365 438.44 32.0246 437.738 31.3949 437.228L30.1353 438.781ZM30.4595 439.448L31.9264 453.49L33.9156 453.282L32.4486 439.24L30.4595 439.448ZM33.0249 454.38L74.6066 450.036L74.3988 448.047L32.8171 452.391L33.0249 454.38ZM74.6066 450.036C74.9438 450.001 75.156 450.078 75.326 450.215L76.5856 448.662C75.956 448.151 75.1993 447.963 74.3988 448.047L74.6066 450.036ZM75.326 450.215C75.4961 450.353 75.6149 450.545 75.6502 450.882L77.6393 450.674C77.5557 449.874 77.2153 449.172 76.5856 448.662L75.326 450.215ZM75.6502 450.882L76.5498 459.493L78.539 459.286L77.6393 450.674L75.6502 450.882Z" fill="#19A467"/>
<path d="M73.2861 417.066L73.9425 417.82L73.9425 417.82L73.2861 417.066ZM19.9071 413.353L20.6615 412.697L20.6615 412.697L19.9071 413.353ZM20.6918 402.07L21.3481 402.825L21.3481 402.825L20.6918 402.07ZM41.5833 402.976L41.5139 403.974L42.5115 404.043L42.5809 403.045L41.5833 402.976ZM43.05 381.889L44.0476 381.958L44.1169 380.961L43.1193 380.891L43.05 381.889ZM22.2342 379.894L22.9887 379.238L22.9887 379.238L22.2342 379.894ZM23.019 368.611L23.6753 369.366L23.6753 369.366L23.019 368.611ZM76.398 372.324L75.6435 372.98L75.6435 372.98L76.398 372.324ZM75.6133 383.607L74.9569 382.852L74.9569 382.852L75.6133 383.607ZM54.0993 382.658L54.1687 381.66L53.1711 381.591L53.1017 382.588L54.0993 382.658ZM52.6326 403.745L51.635 403.675L51.5656 404.673L52.5632 404.742L52.6326 403.745ZM74.0709 405.783L73.3164 406.439L74.0709 405.783ZM72.9306 415.634C72.9071 415.972 72.7949 416.168 72.6298 416.311L73.9425 417.82C74.5541 417.288 74.87 416.575 74.9258 415.772L72.9306 415.634ZM72.6298 416.311C72.4646 416.455 72.2553 416.539 71.917 416.515L71.7782 418.511C72.5812 418.566 73.3309 418.352 73.9425 417.82L72.6298 416.311ZM71.917 416.515L21.3392 412.998L21.2004 414.993L71.7782 418.511L71.917 416.515ZM21.3392 412.998C21.0009 412.974 20.8052 412.862 20.6615 412.697L19.1526 414.009C19.6847 414.621 20.3974 414.937 21.2004 414.993L21.3392 412.998ZM20.6615 412.697C20.5178 412.532 20.4339 412.322 20.4574 411.984L18.4622 411.845C18.4064 412.648 18.6206 413.398 19.1526 414.009L20.6615 412.697ZM20.4574 411.984L21.0473 403.502L19.0521 403.364L18.4622 411.845L20.4574 411.984ZM21.0473 403.502C21.0708 403.164 21.183 402.968 21.3481 402.825L20.0355 401.316C19.4239 401.848 19.108 402.561 19.0521 403.364L21.0473 403.502ZM21.3481 402.825C21.5133 402.681 21.7227 402.597 22.0609 402.621L22.1997 400.625C21.3967 400.57 20.6471 400.784 20.0355 401.316L21.3481 402.825ZM22.0609 402.621L41.5139 403.974L41.6527 401.978L22.1997 400.625L22.0609 402.621ZM42.5809 403.045L44.0476 381.958L42.0524 381.82L40.5857 402.907L42.5809 403.045ZM43.1193 380.891L23.6663 379.538L23.5276 381.534L42.9806 382.887L43.1193 380.891ZM23.6663 379.538C23.3281 379.515 23.1324 379.403 22.9887 379.238L21.4798 380.55C22.0118 381.162 22.7246 381.478 23.5276 381.534L23.6663 379.538ZM22.9887 379.238C22.845 379.072 22.761 378.863 22.7845 378.525L20.7894 378.386C20.7335 379.189 20.9477 379.939 21.4798 380.55L22.9887 379.238ZM22.7845 378.525L23.3745 370.043L21.3793 369.905L20.7894 378.386L22.7845 378.525ZM23.3745 370.043C23.398 369.705 23.5101 369.509 23.6753 369.366L22.3626 367.857C21.751 368.389 21.4351 369.102 21.3793 369.905L23.3745 370.043ZM23.6753 369.366C23.8405 369.222 24.0498 369.138 24.3881 369.161L24.5268 367.166C23.7239 367.11 22.9742 367.325 22.3626 367.857L23.6753 369.366ZM24.3881 369.161L74.9659 372.679L75.1047 370.684L24.5268 367.166L24.3881 369.161ZM74.9659 372.679C75.3042 372.703 75.4999 372.815 75.6435 372.98L77.1525 371.667C76.6204 371.056 75.9076 370.74 75.1047 370.684L74.9659 372.679ZM75.6435 372.98C75.7872 373.145 75.8712 373.355 75.8477 373.693L77.8429 373.832C77.8987 373.029 77.6845 372.279 77.1525 371.667L75.6435 372.98ZM75.8477 373.693L75.2578 382.174L77.253 382.313L77.8429 373.832L75.8477 373.693ZM75.2578 382.174C75.2343 382.513 75.1221 382.708 74.9569 382.852L76.2696 384.361C76.8812 383.829 77.1971 383.116 77.253 382.313L75.2578 382.174ZM74.9569 382.852C74.7918 382.996 74.5824 383.08 74.2442 383.056L74.1054 385.051C74.9084 385.107 75.658 384.893 76.2696 384.361L74.9569 382.852ZM74.2442 383.056L54.1687 381.66L54.0299 383.655L74.1054 385.051L74.2442 383.056ZM53.1017 382.588L51.635 403.675L53.6302 403.814L55.0969 382.727L53.1017 382.588ZM52.5632 404.742L72.6387 406.138L72.7775 404.143L52.702 402.747L52.5632 404.742ZM72.6387 406.138C72.977 406.162 73.1727 406.274 73.3164 406.439L74.8253 405.127C74.2933 404.515 73.5805 404.199 72.7775 404.143L72.6387 406.138ZM73.3164 406.439C73.4601 406.604 73.5441 406.814 73.5205 407.152L75.5157 407.291C75.5716 406.488 75.3574 405.738 74.8253 405.127L73.3164 406.439ZM73.5205 407.152L72.9306 415.634L74.9258 415.772L75.5157 407.291L73.5205 407.152Z" fill="#19A467"/>
<path d="M79.3082 351.468L79.8222 352.326L79.8222 352.326L79.3082 351.468ZM27.4066 338.455L28.2644 337.941L28.2644 337.941L27.4066 338.455ZM45.383 303.64L46.2409 303.126L46.2409 303.126L45.383 303.64ZM39.4253 329.648L38.4554 329.404L38.2122 330.374L39.1821 330.618L39.4253 329.648ZM51.3037 332.626L51.0605 333.596L52.0305 333.839L52.2737 332.869L51.3037 332.626ZM57.9033 308.548L57.3894 307.69L57.3894 307.69L57.9033 308.548ZM66.1501 310.615L67.0079 310.101L67.0079 310.101L66.1501 310.615ZM60.6097 334.959L59.6397 334.716L59.3965 335.686L60.3665 335.929L60.6097 334.959ZM72.8663 338.032L72.6231 339.002L73.5931 339.245L73.8363 338.275L72.8663 338.032ZM80.035 311.684L80.5489 312.542L80.5489 312.542L80.035 311.684ZM88.7357 313.866L87.8779 314.379L87.8779 314.379L88.7357 313.866ZM79.2093 349.995C79.1269 350.324 78.9821 350.497 78.7943 350.61L79.8222 352.326C80.5176 351.909 80.9535 351.263 81.1493 350.482L79.2093 349.995ZM78.7943 350.61C78.6065 350.722 78.3857 350.768 78.0568 350.686L77.5704 352.626C78.3512 352.822 79.1268 352.742 79.8222 352.326L78.7943 350.61ZM78.0568 350.686L28.8789 338.356L28.3925 340.296L77.5704 352.626L78.0568 350.686ZM28.8789 338.356C28.55 338.274 28.377 338.129 28.2644 337.941L26.5488 338.969C26.9654 339.665 27.6117 340.1 28.3925 340.296L28.8789 338.356ZM28.2644 337.941C28.1519 337.753 28.106 337.533 28.1884 337.204L26.2485 336.717C26.0527 337.498 26.1322 338.274 26.5488 338.969L28.2644 337.941ZM28.1884 337.204L36.7812 302.931L34.8413 302.444L26.2485 336.717L28.1884 337.204ZM36.7812 302.931C36.8637 302.602 37.0084 302.429 37.1962 302.316L36.1684 300.6C35.473 301.017 35.037 301.663 34.8413 302.444L36.7812 302.931ZM37.1962 302.316C37.384 302.204 37.6049 302.158 37.9338 302.24L38.4201 300.3C37.6394 300.104 36.8638 300.184 36.1684 300.6L37.1962 302.316ZM37.9338 302.24L43.9864 303.758L44.4728 301.818L38.4201 300.3L37.9338 302.24ZM43.9864 303.758C44.2365 303.82 44.3985 303.942 44.5252 304.154L46.2409 303.126C45.8385 302.454 45.2315 302.008 44.4728 301.818L43.9864 303.758ZM44.5252 304.154C44.6377 304.341 44.6837 304.562 44.6012 304.891L46.5412 305.377C46.7369 304.597 46.6575 303.821 46.2409 303.126L44.5252 304.154ZM44.6012 304.891L38.4554 329.404L40.3953 329.891L46.5412 305.377L44.6012 304.891ZM39.1821 330.618L51.0605 333.596L51.5469 331.656L39.6685 328.678L39.1821 330.618ZM52.2737 332.869L58.0022 310.02L56.0623 309.534L50.3337 332.383L52.2737 332.869ZM58.0022 310.02C58.0847 309.691 58.2294 309.518 58.4172 309.406L57.3894 307.69C56.694 308.107 56.258 308.753 56.0623 309.534L58.0022 310.02ZM58.4172 309.406C58.605 309.293 58.8258 309.247 59.1547 309.33L59.6411 307.39C58.8604 307.194 58.0848 307.273 57.3894 307.69L58.4172 309.406ZM59.1547 309.33L64.7535 310.733L65.2398 308.793L59.6411 307.39L59.1547 309.33ZM64.7535 310.733C65.0035 310.796 65.1655 310.918 65.2922 311.129L67.0079 310.101C66.6055 309.43 65.9985 308.984 65.2398 308.793L64.7535 310.733ZM65.2922 311.129C65.4047 311.317 65.4507 311.538 65.3683 311.867L67.3082 312.353C67.504 311.572 67.4245 310.797 67.0079 310.101L65.2922 311.129ZM65.3683 311.867L59.6397 334.716L61.5797 335.202L67.3082 312.353L65.3683 311.867ZM60.3665 335.929L72.6231 339.002L73.1095 337.062L60.8529 333.989L60.3665 335.929ZM73.8363 338.275L80.1339 313.156L78.194 312.67L71.8963 337.789L73.8363 338.275ZM80.1339 313.156C80.2164 312.827 80.3611 312.654 80.5489 312.542L79.5211 310.826C78.8257 311.243 78.3897 311.889 78.194 312.67L80.1339 313.156ZM80.5489 312.542C80.7367 312.429 80.9575 312.383 81.2864 312.466L81.7728 310.526C80.9921 310.33 80.2165 310.41 79.5211 310.826L80.5489 312.542ZM81.2864 312.466L87.2634 313.964L87.7498 312.025L81.7728 310.526L81.2864 312.466ZM87.2634 313.964C87.5923 314.047 87.7654 314.192 87.8779 314.379L89.5935 313.352C89.1769 312.656 88.5306 312.22 87.7498 312.025L87.2634 313.964ZM87.8779 314.379C87.9904 314.567 88.0364 314.788 87.9539 315.117L89.8939 315.603C90.0896 314.823 90.0101 314.047 89.5935 313.352L87.8779 314.379ZM87.9539 315.117L79.2093 349.995L81.1493 350.482L89.8939 315.603L87.9539 315.117Z" fill="#19A467"/>
<path d="M104.777 268.899L105.044 269.863L105.076 269.854L105.108 269.843L104.777 268.899ZM58.2138 242.537L57.2345 242.739L57.2412 242.772L57.2501 242.804L58.2138 242.537ZM63.3927 233.548L63.595 234.527L63.6276 234.521L63.6597 234.512L63.3927 233.548ZM64.6299 233.263L64.6478 232.263L64.5746 232.261L64.502 232.271L64.6299 233.263ZM94.711 233.801L94.6931 234.8L96.5253 234.833L95.5615 233.275L94.711 233.801ZM78.8486 208.148L79.6991 207.622L79.6891 207.606L79.6784 207.59L78.8486 208.148ZM78.3799 207.076L77.4162 207.343L77.4251 207.375L77.4361 207.407L78.3799 207.076ZM83.4615 197.942L83.7285 198.906L83.7285 198.906L83.4615 197.942ZM124.76 233.604L125.027 234.567L125.027 234.567L124.76 233.604ZM95.8472 217.862L96.3399 216.992L95.0028 218.398L95.8472 217.862ZM107.121 235.628L107.975 235.107L107.97 235.099L107.966 235.092L107.121 235.628ZM107.708 237.125L108.687 236.923L108.687 236.923L107.708 237.125ZM104.288 243.166L104.618 244.11L104.618 244.11L104.288 243.166ZM102.702 243.434L102.677 244.434L102.685 244.434L102.694 244.434L102.702 243.434ZM81.6669 242.908L81.6919 241.908L81.1743 243.778L81.6669 242.908ZM110.042 259.6L109.078 259.867L110.042 259.6ZM105.074 267.454C104.945 267.682 104.755 267.847 104.447 267.956L105.108 269.843C105.842 269.586 106.431 269.117 106.814 268.439L105.074 267.454ZM104.51 267.936C104.299 267.994 104.074 267.98 103.779 267.813L102.794 269.553C103.494 269.95 104.263 270.079 105.044 269.863L104.51 267.936ZM103.779 267.813L59.6592 242.834L58.6739 244.574L102.794 269.553L103.779 267.813ZM59.6592 242.834C59.3642 242.667 59.2359 242.481 59.1775 242.27L57.2501 242.804C57.4665 243.585 57.9734 244.178 58.6739 244.574L59.6592 242.834ZM59.1931 242.335C59.1269 242.015 59.1717 241.767 59.3006 241.539L57.5602 240.554C57.1767 241.231 57.077 241.977 57.2345 242.739L59.1931 242.335ZM59.3006 241.539L62.8745 235.227L61.134 234.241L57.5602 240.554L59.3006 241.539ZM62.8745 235.227C63.1771 234.692 63.4372 234.56 63.595 234.527L63.1904 232.569C62.2655 232.76 61.6 233.418 61.134 234.241L62.8745 235.227ZM63.6597 234.512C64.2233 234.356 64.5764 234.278 64.7579 234.254L64.502 232.271C64.1678 232.314 63.696 232.426 63.1257 232.584L63.6597 234.512ZM64.612 234.262L94.6931 234.8L94.7289 232.801L64.6478 232.263L64.612 234.262ZM95.5615 233.275L79.6991 207.622L77.9981 208.674L93.8605 234.327L95.5615 233.275ZM79.6784 207.59C79.6274 207.514 79.5062 207.267 79.3238 206.746L77.4361 207.407C77.619 207.929 77.8103 208.396 78.0188 208.706L79.6784 207.59ZM79.3436 206.809C79.2782 206.573 79.2933 206.226 79.591 205.7L77.8506 204.715C77.3797 205.547 77.1676 206.446 77.4162 207.343L79.3436 206.809ZM79.591 205.7L83.1649 199.388L81.4245 198.402L77.8506 204.715L79.591 205.7ZM83.1649 199.388C83.3319 199.093 83.5175 198.964 83.7285 198.906L83.1946 196.979C82.4134 197.195 81.821 197.702 81.4245 198.402L83.1649 199.388ZM83.7285 198.906C83.9395 198.848 84.1646 198.862 84.4596 199.029L85.445 197.289C84.7445 196.892 83.9758 196.762 83.1946 196.979L83.7285 198.906ZM84.4596 199.029L128.579 224.008L129.565 222.267L85.445 197.289L84.4596 199.029ZM128.579 224.008C128.874 224.175 129.003 224.36 129.061 224.571L130.989 224.038C130.772 223.256 130.265 222.664 129.565 222.267L128.579 224.008ZM129.061 224.571C129.12 224.782 129.105 225.008 128.938 225.303L130.678 226.288C131.075 225.587 131.205 224.819 130.989 224.038L129.061 224.571ZM128.938 225.303L125.018 232.226L126.759 233.211L130.678 226.288L128.938 225.303ZM125.018 232.226C124.891 232.45 124.731 232.574 124.493 232.64L125.027 234.567C125.782 234.358 126.373 233.892 126.759 233.211L125.018 232.226ZM124.493 232.64C124.282 232.698 124.057 232.684 123.762 232.517L122.777 234.257C123.477 234.654 124.246 234.784 125.027 234.567L124.493 232.64ZM123.762 232.517L96.3399 216.992L95.3545 218.732L122.777 234.257L123.762 232.517ZM95.0028 218.398L106.277 236.164L107.966 235.092L96.6915 217.326L95.0028 218.398ZM106.268 236.15C106.485 236.505 106.639 236.895 106.728 237.328L108.687 236.923C108.553 236.273 108.316 235.665 107.975 235.107L106.268 236.15ZM106.728 237.328C106.781 237.582 106.747 237.901 106.506 238.327L108.246 239.312C108.671 238.562 108.858 237.752 108.687 236.923L106.728 237.328ZM106.506 238.327L104.7 241.517L106.44 242.503L108.246 239.312L106.506 238.327ZM104.7 241.517C104.458 241.944 104.202 242.137 103.957 242.223L104.618 244.11C105.417 243.831 106.015 243.253 106.44 242.503L104.7 241.517ZM103.957 242.223C103.541 242.368 103.126 242.437 102.71 242.434L102.694 244.434C103.348 244.439 103.991 244.33 104.618 244.11L103.957 242.223ZM102.727 242.434L81.6919 241.908L81.642 243.908L102.677 244.434L102.727 242.434ZM81.1743 243.778L108.596 259.304L109.582 257.563L82.1596 242.038L81.1743 243.778ZM108.596 259.304C108.891 259.471 109.02 259.656 109.078 259.867L111.006 259.333C110.789 258.552 110.282 257.96 109.582 257.563L108.596 259.304ZM109.078 259.867C109.144 260.105 109.12 260.306 108.993 260.531L110.734 261.516C111.119 260.835 111.215 260.088 111.006 259.333L109.078 259.867ZM108.993 260.531L105.074 267.454L106.814 268.439L110.734 261.516L108.993 260.531Z" fill="#19A467"/>
<path d="M138.713 210.728L138.716 211.728L138.755 211.728L138.793 211.725L138.713 210.728ZM137.035 209.811L136.163 210.3L136.189 210.348L136.221 210.393L137.035 209.811ZM110.887 163.16L111.76 162.671L111.738 162.633L111.713 162.596L110.887 163.16ZM121.103 151.165L120.678 152.07L120.718 152.088L120.759 152.104L121.103 151.165ZM171.323 169.549L171.767 168.653L171.718 168.629L171.667 168.61L171.323 169.549ZM172.495 171.06L173.492 170.98L173.489 170.942L173.483 170.904L172.495 171.06ZM165.305 179.382L165.385 180.379L165.385 180.379L165.305 179.382ZM164.078 179.259L164.452 178.332L164.432 178.324L164.411 178.316L164.078 179.259ZM155.252 176.149L155.585 175.206L154.937 174.977L154.491 175.5L155.252 176.149ZM140.991 192.895L140.23 192.247L139.784 192.77L140.113 193.373L140.991 192.895ZM145.468 201.113L144.589 201.591L144.6 201.611L144.612 201.63L145.468 201.113ZM145.784 202.305L144.788 202.384L145.784 202.305ZM135.202 184.174L134.333 184.67L135.04 185.907L135.963 184.822L135.202 184.174ZM145.67 171.882L146.432 172.53L147.352 171.449L146.024 170.946L145.67 171.882ZM123.359 163.433L123.713 162.498L121.111 161.513L122.49 163.929L123.359 163.433ZM139.067 209.493C138.924 209.661 138.791 209.719 138.633 209.731L138.793 211.725C139.514 211.667 140.125 211.334 140.589 210.789L139.067 209.493ZM138.71 209.728C138.431 209.729 138.275 209.656 138.167 209.565L136.871 211.087C137.396 211.535 138.037 211.73 138.716 211.728L138.71 209.728ZM138.167 209.565C138.019 209.438 137.917 209.326 137.849 209.23L136.221 210.393C136.402 210.646 136.623 210.877 136.871 211.087L138.167 209.565ZM137.907 209.323L111.76 162.671L110.015 163.649L136.163 210.3L137.907 209.323ZM111.713 162.596C111.494 162.276 111.375 161.909 111.366 161.465L109.366 161.508C109.383 162.316 109.611 163.065 110.061 163.724L111.713 162.596ZM111.366 161.465C111.359 161.155 111.483 160.755 111.916 160.246L110.394 158.949C109.749 159.707 109.346 160.566 109.366 161.508L111.366 161.465ZM111.916 160.246L118.39 152.645L116.867 151.348L110.394 158.949L111.916 160.246ZM118.39 152.645C118.823 152.135 119.199 151.95 119.506 151.907L119.229 149.926C118.296 150.056 117.512 150.59 116.867 151.348L118.39 152.645ZM119.506 151.907C119.945 151.845 120.327 151.905 120.678 152.07L121.528 150.26C120.806 149.92 120.03 149.814 119.229 149.926L119.506 151.907ZM120.759 152.104L170.979 170.488L171.667 168.61L121.447 150.226L120.759 152.104ZM170.879 170.445C170.984 170.497 171.111 170.58 171.26 170.706L172.556 169.184C172.309 168.973 172.046 168.792 171.767 168.653L170.879 170.445ZM171.26 170.706C171.367 170.798 171.464 170.94 171.508 171.216L173.483 170.904C173.377 170.232 173.082 169.631 172.556 169.184L171.26 170.706ZM171.498 171.14C171.511 171.298 171.475 171.438 171.332 171.606L172.854 172.902C173.318 172.358 173.55 171.701 173.492 170.98L171.498 171.14ZM171.332 171.606L166.072 177.782L167.595 179.078L172.854 172.902L171.332 171.606ZM166.072 177.782C165.651 178.276 165.365 178.374 165.225 178.386L165.385 180.379C166.272 180.308 167.004 179.772 167.595 179.078L166.072 177.782ZM165.225 178.386C164.788 178.421 164.555 178.373 164.452 178.332L163.704 180.187C164.211 180.392 164.796 180.426 165.385 180.379L165.225 178.386ZM164.411 178.316L155.585 175.206L154.92 177.092L163.746 180.203L164.411 178.316ZM154.491 175.5L140.23 192.247L141.752 193.543L156.014 176.797L154.491 175.5ZM140.113 193.373L144.589 201.591L146.346 200.634L141.869 192.417L140.113 193.373ZM144.612 201.63C144.669 201.724 144.753 201.947 144.788 202.384L146.781 202.225C146.734 201.636 146.607 201.064 146.323 200.595L144.612 201.63ZM144.788 202.384C144.799 202.524 144.747 202.822 144.326 203.317L145.849 204.613C146.439 203.92 146.852 203.111 146.781 202.225L144.788 202.384ZM144.326 203.317L139.067 209.493L140.589 210.789L145.849 204.613L144.326 203.317ZM135.963 184.822L146.432 172.53L144.909 171.233L134.44 183.526L135.963 184.822ZM146.024 170.946L123.713 162.498L123.005 164.369L145.316 172.817L146.024 170.946ZM122.49 163.929L134.333 184.67L136.07 183.678L124.227 162.937L122.49 163.929Z" fill="#19A467"/>
<path d="M182.606 160.81L182.511 161.806L182.511 161.806L182.606 160.81ZM148.51 119.572L149.505 119.667L149.505 119.667L148.51 119.572ZM179.899 98.7808L179.912 99.7808L179.92 99.7806L179.899 98.7808ZM196.388 114.195L197.385 114.124L197.385 114.124L196.388 114.195ZM194.366 123.255L193.485 122.781L192.947 123.782L194.007 124.188L194.366 123.255ZM215.267 131.275L215.672 130.361L215.649 130.351L215.625 130.342L215.267 131.275ZM216.379 132.987L217.375 133.082L217.378 133.044L217.379 133.005L216.379 132.987ZM207.033 140.411L206.886 141.401L206.912 141.405L206.938 141.407L207.033 140.411ZM205.356 139.976L205.761 139.061L205.749 139.056L205.737 139.051L205.356 139.976ZM186.641 132.273L187.021 131.348L186.466 131.12L186.003 131.502L186.641 132.273ZM179.367 138.287L178.73 137.516L177.959 138.154L178.596 138.924L179.367 138.287ZM191.322 153.603L190.326 153.509L191.322 153.603ZM173.055 130.653L172.284 131.29L172.921 132.061L173.692 131.423L173.055 130.653ZM184.376 118.762L183.385 118.629L183.384 118.639L183.382 118.648L184.376 118.762ZM163.512 119.111L162.875 118.34L162.104 118.977L162.741 119.748L163.512 119.111ZM183.398 159.566C183.137 159.782 182.918 159.835 182.7 159.815L182.511 161.806C183.318 161.882 184.052 161.62 184.673 161.107L183.398 159.566ZM182.7 159.815C182.482 159.794 182.277 159.7 182.061 159.439L180.519 160.713C181.032 161.334 181.704 161.729 182.511 161.806L182.7 159.815ZM182.061 159.439L149.754 120.365L148.213 121.639L180.519 160.713L182.061 159.439ZM149.754 120.365C149.538 120.104 149.485 119.885 149.505 119.667L147.514 119.478C147.438 120.285 147.7 121.019 148.213 121.639L149.754 120.365ZM149.505 119.667C149.526 119.449 149.62 119.243 149.881 119.027L148.607 117.486C147.986 117.999 147.591 118.671 147.514 119.478L149.505 119.667ZM149.881 119.027L165.811 105.856L164.537 104.315L148.607 117.486L149.881 119.027ZM165.811 105.856C170.707 101.809 175.402 99.8383 179.912 99.7808L179.886 97.7809C174.782 97.846 169.66 100.079 164.537 104.315L165.811 105.856ZM179.92 99.7806C184.333 99.6869 188.235 101.619 191.658 105.758L193.199 104.484C189.464 99.9666 185.013 97.672 179.878 97.7811L179.92 99.7806ZM191.658 105.758C193.972 108.558 195.187 111.39 195.39 114.265L197.385 114.124C197.147 110.752 195.722 107.535 193.199 104.484L191.658 105.758ZM195.39 114.265C195.597 117.189 194.97 120.021 193.485 122.781L195.246 123.729C196.9 120.655 197.621 117.447 197.385 114.124L195.39 114.265ZM194.007 124.188L214.909 132.209L215.625 130.342L194.724 122.321L194.007 124.188ZM214.863 132.19C215.086 132.289 215.185 132.378 215.224 132.425L216.765 131.15C216.472 130.797 216.086 130.544 215.672 130.361L214.863 132.19ZM215.224 132.425C215.314 132.534 215.384 132.69 215.379 132.97L217.379 133.005C217.391 132.326 217.205 131.682 216.765 131.15L215.224 132.425ZM215.384 132.893C215.369 133.051 215.308 133.182 215.138 133.323L216.413 134.864C216.964 134.408 217.306 133.802 217.375 133.082L215.384 132.893ZM215.138 133.323L208.466 138.84L209.74 140.381L216.413 134.864L215.138 133.323ZM208.466 138.84C207.863 139.338 207.429 139.445 207.127 139.416L206.938 141.407C207.954 141.503 208.9 141.076 209.74 140.381L208.466 138.84ZM207.179 139.422C206.536 139.327 206.074 139.199 205.761 139.061L204.952 140.89C205.49 141.128 206.145 141.291 206.886 141.401L207.179 139.422ZM205.737 139.051L187.021 131.348L186.26 133.198L204.976 140.9L205.737 139.051ZM186.003 131.502L178.73 137.516L180.004 139.058L187.278 133.044L186.003 131.502ZM178.596 138.924L190.077 152.811L191.619 151.536L180.138 137.65L178.596 138.924ZM190.077 152.811C190.294 153.072 190.347 153.291 190.326 153.509L192.318 153.698C192.394 152.891 192.132 152.157 191.619 151.536L190.077 152.811ZM190.326 153.509C190.306 153.727 190.212 153.932 189.951 154.148L191.225 155.69C191.845 155.177 192.241 154.505 192.318 153.698L190.326 153.509ZM189.951 154.148L183.398 159.566L184.673 161.107L191.225 155.69L189.951 154.148ZM173.692 131.423L181.386 125.061L180.112 123.52L172.418 129.882L173.692 131.423ZM181.386 125.061C183.688 123.159 185.114 121.103 185.369 118.876L183.382 118.648C183.211 120.148 182.219 121.778 180.112 123.52L181.386 125.061ZM185.367 118.895C185.666 116.662 184.916 114.541 183.291 112.575L181.749 113.849C183.105 115.49 183.593 117.069 183.385 118.629L185.367 118.895ZM183.291 112.575C181.671 110.616 179.747 109.452 177.522 109.241L177.334 111.232C178.916 111.382 180.387 112.202 181.749 113.849L183.291 112.575ZM177.522 109.241C175.245 109.025 172.913 110.041 170.569 111.978L171.844 113.52C173.988 111.746 175.804 111.087 177.334 111.232L177.522 109.241ZM170.569 111.978L162.875 118.34L164.149 119.882L171.844 113.52L170.569 111.978ZM162.741 119.748L172.284 131.29L173.825 130.016L164.283 118.474L162.741 119.748Z" fill="#19A467"/>
<path d="M228.677 123.642L228.41 124.606L228.41 124.606L228.677 123.642ZM202.315 77.0791L203.279 77.3461L203.279 77.3461L202.315 77.0791ZM232.87 62.0211L232.94 63.0187L232.952 63.0177L232.87 62.0211ZM243.329 64.346L242.819 65.2064L242.828 65.2114L242.836 65.2162L243.329 64.346ZM251.634 72.9993L250.775 73.5114L250.775 73.5116L251.634 72.9993ZM257.514 83.3844L258.399 82.92L258.395 82.9121L257.514 83.3844ZM260.92 95.2593L259.92 95.2659L259.92 95.2659L260.92 95.2593ZM257.63 105.279L258.431 105.877L258.438 105.867L257.63 105.279ZM234.306 109.52L233.436 110.013L233.929 110.883L234.799 110.391L234.306 109.52ZM248.621 95.8585L247.623 95.9222L247.624 95.9352L248.621 95.8585ZM246.509 89.4357L245.622 89.8981L245.626 89.9048L245.629 89.9115L246.509 89.4357ZM244.578 85.8677L243.688 86.3221L243.697 86.3414L243.708 86.3604L244.578 85.8677ZM242.811 82.7454L241.94 83.238L241.951 83.2569L241.963 83.2754L242.811 82.7454ZM240.783 79.3221L239.926 79.8378L239.931 79.8455L240.783 79.3221ZM233.909 73.3544L233.642 74.3181L233.655 74.3218L233.668 74.3251L233.909 73.3544ZM217.321 79.5189L216.828 78.6487L215.958 79.1414L216.451 80.0116L217.321 79.5189ZM229.675 122.556C229.38 122.723 229.155 122.737 228.944 122.679L228.41 124.606C229.192 124.823 229.96 124.693 230.661 124.296L229.675 122.556ZM228.944 122.679C228.733 122.62 228.548 122.492 228.381 122.197L226.64 123.182C227.037 123.883 227.629 124.39 228.41 124.606L228.944 122.679ZM228.381 122.197L203.402 78.0772L201.662 79.0626L226.64 123.182L228.381 122.197ZM203.402 78.0772C203.235 77.7822 203.22 77.5571 203.279 77.3461L201.351 76.8122C201.135 77.5934 201.265 78.3621 201.662 79.0626L203.402 78.0772ZM203.279 77.3461C203.337 77.1351 203.466 76.9495 203.761 76.7825L202.775 75.0421C202.075 75.4386 201.568 76.031 201.351 76.8122L203.279 77.3461ZM203.761 76.7825L220.798 67.1369L219.812 65.3964L202.775 75.0421L203.761 76.7825ZM220.798 67.1369C225.236 64.6242 229.279 63.2738 232.94 63.0187L232.801 61.0235C228.758 61.3053 224.424 62.7852 219.812 65.3964L220.798 67.1369ZM232.952 63.0177C236.582 62.7201 239.86 63.4538 242.819 65.2064L243.839 63.4856C240.505 61.5109 236.81 60.6947 232.788 61.0244L232.952 63.0177ZM242.836 65.2162C245.816 66.9031 248.47 69.6446 250.775 73.5114L252.493 72.4872C250.057 68.4018 247.175 65.3744 243.822 63.4758L242.836 65.2162ZM250.775 73.5116C251.945 75.4725 252.95 77.1951 253.791 78.68L255.531 77.6947C254.681 76.193 253.668 74.4569 252.493 72.487L250.775 73.5116ZM253.791 78.68C254.631 80.1649 255.579 81.8902 256.632 83.8567L258.395 82.9121C257.336 80.9358 256.381 79.1964 255.531 77.6947L253.791 78.68ZM256.628 83.8488C258.824 88.0377 259.897 91.8381 259.92 95.2659L261.92 95.2526C261.895 91.4177 260.697 87.3015 258.399 82.92L256.628 83.8488ZM259.92 95.2659C259.943 98.675 258.919 101.808 256.821 104.691L258.438 105.867C260.777 102.653 261.946 99.1062 261.92 95.2526L259.92 95.2659ZM256.829 104.68C254.693 107.539 251.453 110.226 247.052 112.718L248.037 114.458C252.595 111.878 256.08 109.025 258.431 105.877L256.829 104.68ZM247.052 112.718L229.675 122.556L230.661 124.296L248.037 114.458L247.052 112.718ZM234.799 110.391L242.741 105.894L241.755 104.154L233.814 108.65L234.799 110.391ZM242.741 105.894C245.081 104.569 246.876 103.091 248.053 101.434L246.422 100.276C245.471 101.616 243.939 102.917 241.755 104.154L242.741 105.894ZM248.053 101.434C249.252 99.7445 249.777 97.8471 249.618 95.7817L247.624 95.9352C247.747 97.5345 247.35 98.968 246.422 100.276L248.053 101.434ZM249.619 95.7948C249.486 93.7001 248.717 91.4162 247.388 88.9598L245.629 89.9115C246.874 92.2125 247.514 94.2105 247.623 95.9222L249.619 95.7948ZM247.395 88.9733C246.694 87.6277 246.045 86.428 245.449 85.375L243.708 86.3604C244.29 87.389 244.928 88.5679 245.622 89.8981L247.395 88.9733ZM245.469 85.4133C244.912 84.3211 244.308 83.2551 243.659 82.2153L241.963 83.2754C242.582 84.266 243.157 85.2815 243.688 86.3221L245.469 85.4133ZM243.681 82.2527C243.085 81.1996 242.402 80.0481 241.635 78.7987L239.931 79.8455C240.688 81.0789 241.358 82.2096 241.94 83.238L243.681 82.2527ZM241.64 78.8064C239.555 75.3434 237.078 73.1081 234.149 72.3836L233.668 74.3251C235.881 74.8724 237.987 76.6156 239.926 79.8378L241.64 78.8064ZM234.175 72.3907C231.266 71.5848 227.987 72.3307 224.43 74.3446L225.416 76.0851C228.736 74.2049 231.448 73.7105 233.642 74.3181L234.175 72.3907ZM224.43 74.3446L216.828 78.6487L217.813 80.3891L225.416 76.0851L224.43 74.3446ZM216.451 80.0116L233.436 110.013L235.176 109.028L218.191 79.0262L216.451 80.0116Z" fill="#19A467"/>
<path d="M286.191 93.3035L285.791 94.22L285.791 94.22L286.191 93.3035ZM266.645 43.4936L267.561 43.8935L267.561 43.8935L266.645 43.4936ZM277.463 39.248L277.063 40.1645L277.063 40.1645L277.463 39.248ZM297.01 89.0579L296.094 88.658L296.094 88.658L297.01 89.0579ZM287.333 92.368C287.017 92.4918 286.792 92.4745 286.591 92.3869L285.791 94.22C286.534 94.5442 287.314 94.5238 288.063 94.2297L287.333 92.368ZM286.591 92.3869C286.391 92.2994 286.225 92.1463 286.101 91.8307L284.239 92.5613C284.533 93.3106 285.049 93.8958 285.791 94.22L286.591 92.3869ZM286.101 91.8307L267.58 44.6347L265.718 45.3653L284.239 92.5613L286.101 91.8307ZM267.58 44.6347C267.456 44.3191 267.474 44.0942 267.561 43.8935L265.728 43.0937C265.404 43.8367 265.424 44.616 265.718 45.3653L267.58 44.6347ZM267.561 43.8935C267.649 43.6929 267.802 43.5272 268.117 43.4033L267.387 41.5416C266.637 41.8356 266.052 42.3507 265.728 43.0937L267.561 43.8935ZM268.117 43.4033L276.322 40.1835L275.592 38.3217L267.387 41.5416L268.117 43.4033ZM276.322 40.1835C276.638 40.0596 276.863 40.077 277.063 40.1645L277.863 38.3314C277.12 38.0073 276.341 38.0277 275.592 38.3217L276.322 40.1835ZM277.063 40.1645C277.264 40.2521 277.43 40.4052 277.554 40.7208L279.415 39.9902C279.121 39.2409 278.606 38.6556 277.863 38.3314L277.063 40.1645ZM277.554 40.7208L296.075 87.9168L297.936 87.1862L279.415 39.9902L277.554 40.7208ZM296.075 87.9168C296.199 88.2324 296.181 88.4573 296.094 88.658L297.927 89.4578C298.251 88.7148 298.23 87.9354 297.936 87.1862L296.075 87.9168ZM296.094 88.658C296.006 88.8586 295.853 89.0243 295.537 89.1482L296.268 91.0099C297.017 90.7159 297.603 90.2008 297.927 89.4578L296.094 88.658ZM295.537 89.1482L287.333 92.368L288.063 94.2297L296.268 91.0099L295.537 89.1482Z" fill="#19A467"/>
<path d="M322.641 78.8394L322.471 79.8249L322.477 79.8258L322.641 78.8394ZM313.932 75.1231L314.573 74.3559L314.573 74.3559L313.932 75.1231ZM309.488 68.5069L308.517 68.7464L308.522 68.7654L308.527 68.7843L309.488 68.5069ZM309.681 67.3346L310.536 67.8518L310.556 67.8189L310.574 67.7846L309.681 67.3346ZM320.416 64.6062L319.966 65.4992L320.005 65.5191L320.046 65.5354L320.416 64.6062ZM321.643 65.3478L322.449 64.7567L322.374 64.6541L322.276 64.5737L321.643 65.3478ZM323.925 67.4359L323.381 68.2747L323.394 68.2835L323.408 68.2918L323.925 67.4359ZM327.686 68.6773L327.542 69.6668L327.558 69.6692L327.574 69.671L327.686 68.6773ZM339.9 64.7806L339.177 64.09L339.167 64.1003L339.9 64.7806ZM339.187 57.0032L338.696 57.8743L338.708 57.8813L338.721 57.8879L339.187 57.0032ZM334.48 55.8344L334.384 56.8299L334.392 56.8306L334.48 55.8344ZM326.46 55.5634L326.455 54.5634L326.442 54.5635L326.428 54.5639L326.46 55.5634ZM316 54.8497L315.78 55.8252L315.792 55.8277L315.803 55.8299L316 54.8497ZM308.785 51.3273L308.093 52.0495L308.103 52.0594L308.114 52.069L308.785 51.3273ZM305.448 35.5204L306.376 35.8918L306.38 35.8823L305.448 35.5204ZM311.127 28.2548L311.733 29.0505L311.744 29.0419L311.127 28.2548ZM330.724 22.6975L330.627 23.6928L330.633 23.6933L330.724 22.6975ZM338.115 24.6502L337.667 25.5444L337.674 25.5476L337.68 25.5507L338.115 24.6502ZM343.287 28.3554L342.55 29.0306L342.55 29.0306L343.287 28.3554ZM345.922 32.8472L346.893 32.6077L346.889 32.592L346.884 32.5765L345.922 32.8472ZM345.747 34.0952L346.603 34.6124L346.623 34.5795L346.64 34.5452L345.747 34.0952ZM334.804 36.9554L335.024 35.9799L335.024 35.9799L334.804 36.9554ZM333.558 36.138L332.666 36.5897L332.72 36.6959L332.797 36.7865L333.558 36.138ZM329.991 33.4027L329.637 34.3379L329.655 34.3449L329.674 34.3511L329.991 33.4027ZM318.291 36.1281L317.576 35.4295L317.57 35.4352L317.565 35.4409L318.291 36.1281ZM319.024 43.6597L318.427 44.4618L318.453 44.481L318.48 44.4985L319.024 43.6597ZM323.277 44.9405L323.154 45.9329L323.171 45.9351L323.189 45.9366L323.277 44.9405ZM330.748 45.2666L330.733 46.2665L330.761 46.2669L330.789 46.2658L330.748 45.2666ZM342.381 45.8516L342.565 44.8686L342.565 44.8686L342.381 45.8516ZM349.73 49.2609L349.046 49.9909L349.055 49.9987L349.73 49.2609ZM352.818 65.6913L351.909 65.2764L351.903 65.2882L352.818 65.6913ZM346.401 73.2194L346.973 74.0397L346.979 74.035L346.401 73.2194ZM335.117 76.9813C330.358 78.1552 326.263 78.4283 322.805 77.8529L322.477 79.8258C326.28 80.4587 330.662 80.1403 335.596 78.9231L335.117 76.9813ZM322.811 77.8539C319.362 77.2598 316.634 76.0786 314.573 74.3559L313.29 75.8904C315.682 77.8895 318.761 79.1858 322.471 79.8249L322.811 77.8539ZM314.573 74.3559C312.485 72.6103 311.124 70.5701 310.449 68.2295L308.527 68.7843C309.324 71.5435 310.926 73.9141 313.29 75.8904L314.573 74.3559ZM310.459 68.2674C310.427 68.1378 310.436 68.0177 310.536 67.8518L308.825 66.8174C308.469 67.4068 308.35 68.0682 308.517 68.7464L310.459 68.2674ZM310.574 67.7846C310.662 67.6099 310.762 67.5354 310.925 67.4952L310.446 65.5534C309.701 65.7373 309.131 66.2031 308.788 66.8846L310.574 67.7846ZM310.925 67.4952L319.028 65.4963L318.549 63.5545L310.446 65.5534L310.925 67.4952ZM319.028 65.4963C319.547 65.3684 319.824 65.4276 319.966 65.4992L320.866 63.7131C320.151 63.3532 319.343 63.3586 318.549 63.5545L319.028 65.4963ZM320.046 65.5354C320.352 65.6572 320.674 65.8474 321.01 66.1219L322.276 64.5737C321.807 64.1899 321.31 63.8856 320.785 63.6769L320.046 65.5354ZM320.836 65.9389C321.485 66.8246 322.342 67.6001 323.381 68.2747L324.47 66.5972C323.596 66.0297 322.931 65.4132 322.449 64.7567L320.836 65.9389ZM323.408 68.2918C324.557 68.986 325.946 69.4338 327.542 69.6668L327.831 67.6878C326.426 67.4827 325.308 67.1029 324.443 66.58L323.408 68.2918ZM327.574 69.671C329.215 69.857 331.093 69.6702 333.186 69.1539L332.707 67.2121C330.762 67.6921 329.133 67.8349 327.799 67.6837L327.574 69.671ZM333.186 69.1539C336.54 68.3267 339.083 67.1311 340.633 65.4609L339.167 64.1003C338.01 65.3477 335.917 66.4203 332.707 67.2121L333.186 69.1539ZM340.624 65.4712C342.24 63.7782 342.844 61.7904 342.306 59.6081L340.364 60.0871C340.722 61.5397 340.37 62.8406 339.177 64.0901L340.624 65.4712ZM342.306 59.6081C341.92 58.0429 341.036 56.8466 339.653 56.1184L338.721 57.8879C339.554 58.3269 340.102 59.0269 340.364 60.0871L342.306 59.6081ZM339.678 56.132C338.438 55.4328 336.702 55.0261 334.568 54.8383L334.392 56.8306C336.419 57.0089 337.821 57.3813 338.696 57.8743L339.678 56.132ZM334.576 54.839C332.499 54.639 329.788 54.5485 326.455 54.5634L326.464 56.5634C329.766 56.5486 332.402 56.6389 334.384 56.8298L334.576 54.839ZM326.428 54.5639C322.497 54.6884 319.091 54.4524 316.198 53.8694L315.803 55.8299C318.884 56.4511 322.451 56.6909 326.491 56.5629L326.428 54.5639ZM316.22 53.8741C313.405 53.2392 311.165 52.1319 309.456 50.5856L308.114 52.069C310.127 53.8891 312.698 55.13 315.78 55.8252L316.22 53.8741ZM309.476 50.6051C307.819 49.0179 306.612 46.8133 305.9 43.9248L303.958 44.4038C304.74 47.5736 306.104 50.1443 308.093 52.0495L309.476 50.6051ZM305.9 43.9248C305.2 41.0857 305.366 38.419 306.376 35.8918L304.519 35.1491C303.344 38.0886 303.164 41.1844 303.958 44.4038L305.9 43.9248ZM306.38 35.8823C307.385 33.2932 309.153 31.0144 311.733 29.0504L310.521 27.4592C307.69 29.6149 305.672 32.1799 304.516 35.1585L306.38 35.8823ZM311.744 29.0419C314.3 27.0384 317.604 25.518 321.692 24.5096L321.213 22.5678C316.92 23.6268 313.34 25.2504 310.51 27.4677L311.744 29.0419ZM321.692 24.5096C324.989 23.6961 327.964 23.4325 330.627 23.6928L330.822 21.7022C327.887 21.4153 324.68 21.7125 321.213 22.5678L321.692 24.5096ZM330.633 23.6933C333.386 23.9456 335.724 24.5708 337.667 25.5444L338.563 23.7561C336.351 22.6483 333.762 21.9717 330.816 21.7017L330.633 23.6933ZM337.68 25.5507C339.717 26.5349 341.331 27.6996 342.55 29.0306L344.025 27.6802C342.604 26.1274 340.769 24.822 338.55 23.7498L337.68 25.5507ZM342.55 29.0306C343.786 30.3812 344.573 31.7444 344.959 33.1179L346.884 32.5765C346.397 30.8447 345.428 29.2134 344.025 27.6802L342.55 29.0306ZM344.951 33.0867C344.985 33.2239 344.98 33.3958 344.854 33.6452L346.64 34.5452C346.946 33.9383 347.058 33.2782 346.893 32.6077L344.951 33.0867ZM344.892 33.578C344.81 33.7139 344.698 33.8061 344.484 33.8589L344.963 35.8007C345.658 35.6294 346.229 35.2319 346.603 34.6124L344.892 33.578ZM344.484 33.8589L336.002 35.9512L336.481 37.893L344.963 35.8007L344.484 33.8589ZM336.002 35.9512C335.63 36.043 335.309 36.0442 335.024 35.9799L334.584 37.9309C335.206 38.0712 335.844 38.0503 336.481 37.893L336.002 35.9512ZM335.024 35.9799C334.829 35.936 334.592 35.8093 334.319 35.4896L332.797 36.7865C333.278 37.352 333.871 37.7702 334.584 37.9309L335.024 35.9799ZM334.45 35.6864C333.669 34.1441 332.224 33.0949 330.308 32.4543L329.674 34.3511C331.261 34.8818 332.193 35.6561 332.666 36.5897L334.45 35.6864ZM330.345 32.4675C328.388 31.7267 326.127 31.719 323.622 32.337L324.101 34.2788C326.342 33.726 328.167 33.7816 329.637 34.3379L330.345 32.4675ZM323.622 32.337C321.042 32.9734 318.991 33.9802 317.576 35.4295L319.007 36.8267C320.072 35.7362 321.734 34.8628 324.101 34.2788L323.622 32.337ZM317.565 35.4409C316.112 36.9766 315.696 38.9011 316.227 41.0558L318.169 40.5768C317.779 38.9955 318.091 37.7946 319.018 36.8153L317.565 35.4409ZM316.227 41.0558C316.576 42.4711 317.305 43.6266 318.427 44.4618L319.622 42.8577C318.906 42.325 318.418 41.585 318.169 40.5768L316.227 41.0558ZM318.48 44.4985C319.621 45.2391 321.212 45.6922 323.154 45.9329L323.4 43.9481C321.585 43.7231 320.341 43.3223 319.569 42.821L318.48 44.4985ZM323.189 45.9366C325.139 46.1096 327.657 46.2189 330.733 46.2665L330.764 44.2667C327.711 44.2195 325.248 44.1114 323.365 43.9444L323.189 45.9366ZM330.789 46.2658C335.413 46.0803 339.209 46.2761 342.197 46.8346L342.565 44.8686C339.377 44.2727 335.418 44.0785 330.708 44.2674L330.789 46.2658ZM342.197 46.8346C345.148 47.386 347.407 48.456 349.046 49.9908L350.413 48.531C348.43 46.6744 345.791 45.4716 342.565 44.8686L342.197 46.8346ZM349.055 49.9987C350.671 51.4778 351.864 53.6211 352.577 56.5119L354.519 56.0329C353.737 52.8654 352.384 50.3343 350.404 48.5231L349.055 49.9987ZM352.577 56.5119C353.363 59.6978 353.127 62.6045 351.909 65.2764L353.728 66.1061C355.152 62.9848 355.402 59.6123 354.519 56.0329L352.577 56.5119ZM351.903 65.2882C350.718 67.9806 348.708 70.3558 345.822 72.4039L346.979 74.035C350.11 71.8138 352.379 69.1702 353.734 66.0943L351.903 65.2882ZM345.829 72.3992C342.981 74.3856 339.419 75.9201 335.117 76.9813L335.596 78.9231C340.079 77.8172 343.88 76.1966 346.973 74.0396L345.829 72.3992Z" fill="#19A467"/>
<path d="M322.641 78.8394L322.471 79.8249L322.477 79.8258L322.641 78.8394ZM313.932 75.1231L314.573 74.3559L314.573 74.3559L313.932 75.1231ZM309.488 68.5069L308.517 68.7464L308.522 68.7654L308.527 68.7843L309.488 68.5069ZM309.681 67.3346L310.536 67.8518L310.556 67.8189L310.574 67.7846L309.681 67.3346ZM320.416 64.6062L319.966 65.4992L320.005 65.5191L320.046 65.5354L320.416 64.6062ZM321.643 65.3478L322.449 64.7567L322.374 64.6541L322.276 64.5737L321.643 65.3478ZM323.925 67.4359L323.381 68.2747L323.394 68.2835L323.408 68.2918L323.925 67.4359ZM327.686 68.6773L327.542 69.6668L327.558 69.6692L327.574 69.671L327.686 68.6773ZM339.9 64.7806L339.177 64.09L339.167 64.1003L339.9 64.7806ZM339.187 57.0032L338.696 57.8743L338.708 57.8813L338.721 57.8879L339.187 57.0032ZM334.48 55.8344L334.384 56.8299L334.392 56.8306L334.48 55.8344ZM326.46 55.5634L326.455 54.5634L326.442 54.5635L326.428 54.5639L326.46 55.5634ZM316 54.8497L315.78 55.8252L315.792 55.8277L315.803 55.8299L316 54.8497ZM308.785 51.3273L308.093 52.0495L308.103 52.0594L308.114 52.069L308.785 51.3273ZM305.448 35.5204L306.376 35.8918L306.38 35.8823L305.448 35.5204ZM311.127 28.2548L311.733 29.0505L311.744 29.0419L311.127 28.2548ZM330.724 22.6975L330.627 23.6928L330.633 23.6933L330.724 22.6975ZM338.115 24.6502L337.667 25.5444L337.674 25.5476L337.68 25.5507L338.115 24.6502ZM343.287 28.3554L342.55 29.0306L342.55 29.0306L343.287 28.3554ZM345.922 32.8472L346.893 32.6077L346.889 32.592L346.884 32.5765L345.922 32.8472ZM345.747 34.0952L346.603 34.6124L346.623 34.5795L346.64 34.5452L345.747 34.0952ZM334.804 36.9554L335.024 35.9799L335.024 35.9799L334.804 36.9554ZM333.558 36.138L332.666 36.5897L332.72 36.6959L332.797 36.7865L333.558 36.138ZM329.991 33.4027L329.637 34.3379L329.655 34.3449L329.674 34.3511L329.991 33.4027ZM318.291 36.1281L317.576 35.4295L317.57 35.4352L317.565 35.4409L318.291 36.1281ZM319.024 43.6597L318.427 44.4618L318.453 44.481L318.48 44.4985L319.024 43.6597ZM323.277 44.9405L323.154 45.9329L323.171 45.9351L323.189 45.9366L323.277 44.9405ZM330.748 45.2666L330.733 46.2665L330.761 46.2669L330.789 46.2658L330.748 45.2666ZM342.381 45.8516L342.565 44.8686L342.565 44.8686L342.381 45.8516ZM349.73 49.2609L349.046 49.9909L349.055 49.9987L349.73 49.2609ZM352.818 65.6913L351.909 65.2764L351.903 65.2882L352.818 65.6913ZM346.401 73.2194L346.973 74.0397L346.979 74.035L346.401 73.2194ZM335.117 76.9813C330.358 78.1552 326.263 78.4283 322.805 77.8529L322.477 79.8258C326.28 80.4587 330.662 80.1403 335.596 78.9231L335.117 76.9813ZM322.811 77.8539C319.362 77.2598 316.634 76.0786 314.573 74.3559L313.29 75.8904C315.682 77.8895 318.761 79.1858 322.471 79.8249L322.811 77.8539ZM314.573 74.3559C312.485 72.6103 311.124 70.5701 310.449 68.2295L308.527 68.7843C309.324 71.5435 310.926 73.9141 313.29 75.8904L314.573 74.3559ZM310.459 68.2674C310.427 68.1378 310.436 68.0177 310.536 67.8518L308.825 66.8174C308.469 67.4068 308.35 68.0682 308.517 68.7464L310.459 68.2674ZM310.574 67.7846C310.662 67.6099 310.762 67.5354 310.925 67.4952L310.446 65.5534C309.701 65.7373 309.131 66.2031 308.788 66.8846L310.574 67.7846ZM310.925 67.4952L319.028 65.4963L318.549 63.5545L310.446 65.5534L310.925 67.4952ZM319.028 65.4963C319.547 65.3684 319.824 65.4276 319.966 65.4992L320.866 63.7131C320.151 63.3532 319.343 63.3586 318.549 63.5545L319.028 65.4963ZM320.046 65.5354C320.352 65.6572 320.674 65.8474 321.01 66.1219L322.276 64.5737C321.807 64.1899 321.31 63.8856 320.785 63.6769L320.046 65.5354ZM320.836 65.9389C321.485 66.8246 322.342 67.6001 323.381 68.2747L324.47 66.5972C323.596 66.0297 322.931 65.4132 322.449 64.7567L320.836 65.9389ZM323.408 68.2918C324.557 68.986 325.946 69.4338 327.542 69.6668L327.831 67.6878C326.426 67.4827 325.308 67.1029 324.443 66.58L323.408 68.2918ZM327.574 69.671C329.215 69.857 331.093 69.6702 333.186 69.1539L332.707 67.2121C330.762 67.6921 329.133 67.8349 327.799 67.6837L327.574 69.671ZM333.186 69.1539C336.54 68.3267 339.083 67.1311 340.633 65.4609L339.167 64.1003C338.01 65.3477 335.917 66.4203 332.707 67.2121L333.186 69.1539ZM340.624 65.4712C342.24 63.7782 342.844 61.7904 342.306 59.6081L340.364 60.0871C340.722 61.5397 340.37 62.8406 339.177 64.0901L340.624 65.4712ZM342.306 59.6081C341.92 58.0429 341.036 56.8466 339.653 56.1184L338.721 57.8879C339.554 58.3269 340.102 59.0269 340.364 60.0871L342.306 59.6081ZM339.678 56.132C338.438 55.4328 336.702 55.0261 334.568 54.8383L334.392 56.8306C336.419 57.0089 337.821 57.3813 338.696 57.8743L339.678 56.132ZM334.576 54.839C332.499 54.639 329.788 54.5485 326.455 54.5634L326.464 56.5634C329.766 56.5486 332.402 56.6389 334.384 56.8298L334.576 54.839ZM326.428 54.5639C322.497 54.6884 319.091 54.4524 316.198 53.8694L315.803 55.8299C318.884 56.4511 322.451 56.6909 326.491 56.5629L326.428 54.5639ZM316.22 53.8741C313.405 53.2392 311.165 52.1319 309.456 50.5856L308.114 52.069C310.127 53.8891 312.698 55.13 315.78 55.8252L316.22 53.8741ZM309.476 50.6051C307.819 49.0179 306.612 46.8133 305.9 43.9248L303.958 44.4038C304.74 47.5736 306.104 50.1443 308.093 52.0495L309.476 50.6051ZM305.9 43.9248C305.2 41.0857 305.366 38.419 306.376 35.8918L304.519 35.1491C303.344 38.0886 303.164 41.1844 303.958 44.4038L305.9 43.9248ZM306.38 35.8823C307.385 33.2932 309.153 31.0144 311.733 29.0504L310.521 27.4592C307.69 29.6149 305.672 32.1799 304.516 35.1585L306.38 35.8823ZM311.744 29.0419C314.3 27.0384 317.604 25.518 321.692 24.5096L321.213 22.5678C316.92 23.6268 313.34 25.2504 310.51 27.4677L311.744 29.0419ZM321.692 24.5096C324.989 23.6961 327.964 23.4325 330.627 23.6928L330.822 21.7022C327.887 21.4153 324.68 21.7125 321.213 22.5678L321.692 24.5096ZM330.633 23.6933C333.386 23.9456 335.724 24.5708 337.667 25.5444L338.563 23.7561C336.351 22.6483 333.762 21.9717 330.816 21.7017L330.633 23.6933ZM337.68 25.5507C339.717 26.5349 341.331 27.6996 342.55 29.0306L344.025 27.6802C342.604 26.1274 340.769 24.822 338.55 23.7498L337.68 25.5507ZM342.55 29.0306C343.786 30.3812 344.573 31.7444 344.959 33.1179L346.884 32.5765C346.397 30.8447 345.428 29.2134 344.025 27.6802L342.55 29.0306ZM344.951 33.0867C344.985 33.2239 344.98 33.3958 344.854 33.6452L346.64 34.5452C346.946 33.9383 347.058 33.2782 346.893 32.6077L344.951 33.0867ZM344.892 33.578C344.81 33.7139 344.698 33.8061 344.484 33.8589L344.963 35.8007C345.658 35.6294 346.229 35.2319 346.603 34.6124L344.892 33.578ZM344.484 33.8589L336.002 35.9512L336.481 37.893L344.963 35.8007L344.484 33.8589ZM336.002 35.9512C335.63 36.043 335.309 36.0442 335.024 35.9799L334.584 37.9309C335.206 38.0712 335.844 38.0503 336.481 37.893L336.002 35.9512ZM335.024 35.9799C334.829 35.936 334.592 35.8093 334.319 35.4896L332.797 36.7865C333.278 37.352 333.871 37.7702 334.584 37.9309L335.024 35.9799ZM334.45 35.6864C333.669 34.1441 332.224 33.0949 330.308 32.4543L329.674 34.3511C331.261 34.8818 332.193 35.6561 332.666 36.5897L334.45 35.6864ZM330.345 32.4675C328.388 31.7267 326.127 31.719 323.622 32.337L324.101 34.2788C326.342 33.726 328.167 33.7816 329.637 34.3379L330.345 32.4675ZM323.622 32.337C321.042 32.9734 318.991 33.9802 317.576 35.4295L319.007 36.8267C320.072 35.7362 321.734 34.8628 324.101 34.2788L323.622 32.337ZM317.565 35.4409C316.112 36.9766 315.696 38.9011 316.227 41.0558L318.169 40.5768C317.779 38.9955 318.091 37.7946 319.018 36.8153L317.565 35.4409ZM316.227 41.0558C316.576 42.4711 317.305 43.6266 318.427 44.4618L319.622 42.8577C318.906 42.325 318.418 41.585 318.169 40.5768L316.227 41.0558ZM318.48 44.4985C319.621 45.2391 321.212 45.6922 323.154 45.9329L323.4 43.9481C321.585 43.7231 320.341 43.3223 319.569 42.821L318.48 44.4985ZM323.189 45.9366C325.139 46.1096 327.657 46.2189 330.733 46.2665L330.764 44.2667C327.711 44.2195 325.248 44.1114 323.365 43.9444L323.189 45.9366ZM330.789 46.2658C335.413 46.0803 339.209 46.2761 342.197 46.8346L342.565 44.8686C339.377 44.2727 335.418 44.0785 330.708 44.2674L330.789 46.2658ZM342.197 46.8346C345.148 47.386 347.407 48.456 349.046 49.9908L350.413 48.531C348.43 46.6744 345.791 45.4716 342.565 44.8686L342.197 46.8346ZM349.055 49.9987C350.671 51.4778 351.864 53.6211 352.577 56.5119L354.519 56.0329C353.737 52.8654 352.384 50.3343 350.404 48.5231L349.055 49.9987ZM352.577 56.5119C353.363 59.6978 353.127 62.6045 351.909 65.2764L353.728 66.1061C355.152 62.9848 355.402 59.6123 354.519 56.0329L352.577 56.5119ZM351.903 65.2882C350.718 67.9806 348.708 70.3558 345.822 72.4039L346.979 74.035C350.11 71.8138 352.379 69.1702 353.734 66.0943L351.903 65.2882ZM345.829 72.3992C342.981 74.3856 339.419 75.9201 335.117 76.9813L335.596 78.9231C340.079 77.8172 343.88 76.1966 346.973 74.0396L345.829 72.3992Z" fill="#19A467"/>
</svg>
