<svg width="27" height="27" viewBox="0 0 27 27" fill="none" xmlns="http://www.w3.org/2000/svg">
<path fill-rule="evenodd" clip-rule="evenodd" d="M22.7391 8.44465C22.7543 8.65784 22.7543 8.87108 22.7543 9.08427C22.7543 15.5868 17.8051 23.0792 8.75938 23.0792C5.97256 23.0792 3.38374 22.2721 1.20605 20.8711C1.60201 20.9168 1.98268 20.932 2.39387 20.932C4.69333 20.932 6.81012 20.1554 8.50049 18.8305C6.33804 18.7848 4.52585 17.3686 3.90147 15.4193C4.20607 15.465 4.51061 15.4954 4.83044 15.4954C5.27206 15.4954 5.71371 15.4345 6.12486 15.3279C3.87105 14.8711 2.18064 12.8914 2.18064 10.5005V10.4396C2.83544 10.8051 3.59692 11.0335 4.40397 11.0639C3.07909 10.1807 2.21111 8.67308 2.21111 6.96748C2.21111 6.05379 2.45472 5.21622 2.88114 4.48525C5.30248 7.47003 8.9421 9.41924 13.0233 9.63247C12.9472 9.26699 12.9015 8.88631 12.9015 8.50559C12.9015 5.79489 15.0944 3.58679 17.8203 3.58679C19.2365 3.58679 20.5157 4.1807 21.4142 5.14009C22.5258 4.92691 23.5918 4.51572 24.536 3.95228C24.1705 5.09444 23.3939 6.05383 22.3736 6.66293C23.3634 6.55638 24.3228 6.28221 25.2061 5.90154C24.5361 6.87612 23.6985 7.74411 22.7391 8.44465ZM17.5661 5.35084C17.7614 5.15559 18.0779 5.15561 18.2732 5.35088L18.8302 5.9079L19.3873 5.35084C19.5825 5.15559 19.8991 5.15561 20.0944 5.35088C20.2896 5.54615 20.2896 5.86273 20.0943 6.05799L19.5372 6.61504L20.0944 7.17224C20.2896 7.36751 20.2896 7.68409 20.0943 7.87934C19.8991 8.0746 19.5825 8.07458 19.3872 7.87931L18.8301 7.32211L18.273 7.87916C18.0777 8.07441 17.7611 8.0744 17.5659 7.87913C17.3706 7.68385 17.3706 7.36727 17.5659 7.17202L18.123 6.61497L17.566 6.05795C17.3708 5.86268 17.3708 5.5461 17.5661 5.35084Z" fill="#B0D16A"/>
</svg>
