<svg width="668" height="668" viewBox="0 0 668 668" fill="none" xmlns="http://www.w3.org/2000/svg">
<path d="M88.2141 254.109L88.2128 254.108C87.0355 253.26 86.3877 251.848 86.5161 250.396C86.6391 249.006 86.7725 247.504 86.9102 245.954C87.1718 243.009 87.4489 239.89 87.699 237.04C88.2399 230.908 92.0929 225.566 97.7445 223.123L97.7448 223.123C100.755 221.82 104.428 220.229 108.685 218.386C150.44 200.304 248.28 157.936 325.436 124.489C343.979 116.449 362.318 108.495 379.836 100.897C447.621 71.4974 503.124 47.4241 510.728 44.3029C522.999 39.2662 531.146 37.0235 539.368 39.5331C547.624 42.0532 556.058 49.3937 568.767 63.9028C581.745 78.7224 584.387 88.5616 580.359 96.339C578.324 100.268 574.554 103.754 569.356 107.123C564.161 110.49 557.587 113.711 549.999 117.135C539.805 121.733 530.111 126.024 520.912 130.097C501.993 138.472 485.168 145.92 470.396 153.203C448.437 164.028 430.956 174.513 417.803 187.188C388.71 215.227 370.322 250.906 359.459 297.584C348.739 343.674 345.133 407.065 341.923 467.276C339.502 512.752 338.999 538.403 338.595 559.004C338.463 565.724 338.341 571.907 338.168 578.064C337.88 588.277 337.034 594.603 332.952 600.172C328.848 605.771 321.429 610.665 307.769 617.828C300.224 621.782 293.941 624.765 288.776 626.56C283.597 628.36 279.624 628.935 276.66 628.173C273.753 627.425 271.726 625.363 270.48 621.611C269.226 617.831 268.788 612.389 269.072 605.009C270.756 561.206 275.681 443.978 281.586 387.872C281.749 386.327 281.911 384.786 282.072 383.25C287.783 328.827 292.891 280.146 323.449 229.739C355.39 177.047 415.892 147.316 458.412 127.921C470.803 122.27 481.328 117.459 490.541 113.248C511.747 103.556 526 97.0413 540.038 90.7725C541.734 90.0152 543.313 89.2659 544.591 88.4243C545.867 87.5838 546.893 86.6188 547.424 85.4064C547.963 84.1749 547.958 82.764 547.323 81.1086C546.692 79.4672 545.434 77.5631 543.432 75.2963L543.088 75.6007L543.432 75.2962C539.438 70.7755 535.898 68.2119 531.111 67.8167C526.375 67.4258 520.506 69.168 511.877 72.9603C504.569 76.1709 487.591 83.4954 464.422 93.4908C430.821 107.987 384.197 128.101 335.163 149.432C253.122 185.124 123.847 240.931 92.2662 254.556C90.9317 255.131 89.3913 254.963 88.2141 254.109Z" fill="#E3E0D8" stroke="#3B372B"/>
</svg>
